<svg xmlns="http://www.w3.org/2000/svg" viewBox="0 0 1012.38 684.04"><defs><style>.cls-1{isolation:isolate;}.cls-2{fill:#69a343;}.cls-3{fill:#598b3e;}.cls-4{fill:#585856;}.cls-5{fill:#3d3d3c;}.cls-6{fill:#87c546;}.cls-28,.cls-7{fill:#fff;}.cls-8{fill:#c7c6c5;}.cls-9{fill:#d14158;}.cls-10{fill:#878787;}.cls-11{fill:#dbdada;}.cls-12{fill:#70cde1;}.cls-13{fill:#a72339;}.cls-14{fill:#9bc1b6;}.cls-15{fill:#4077ab;}.cls-16{fill:#302f2e;}.cls-17{fill:#9c9c9b;}.cls-18{fill:#ededee;}.cls-19{fill:#b3b3b3;}.cls-20{fill:#f6f6f6;}.cls-21{fill:#4dc5d6;}.cls-22{fill:#599ad3;}.cls-23{fill:#f04a5a;}.cls-24{fill:#717070;}.cls-25{fill:#ccc;}.cls-26{fill:#010101;opacity:0.15;}.cls-27{fill:#91d7eb;}.cls-28{opacity:0.75;}</style></defs><title>company</title><g id="Layer_2" data-name="Layer 2"><g id="Layer_1-2" data-name="Layer 1"><g class="cls-1"><polygon class="cls-2" points="781.57 207.68 781.53 221.32 506.13 379.97 506.17 366.33 781.57 207.68"/><polygon class="cls-3" points="506.17 366.33 506.13 379.97 275.33 247.88 275.37 234.24 506.17 366.33"/><polygon class="cls-4" points="781.57 220.96 781.53 234.6 506.13 393.25 506.17 379.61 781.57 220.96"/><polygon class="cls-5" points="506.17 379.61 506.13 393.25 275.33 261.15 275.37 247.52 506.17 379.61"/><polygon class="cls-6" points="781.57 207.68 506.17 366.33 275.37 234.24 550.77 75.59 781.57 207.68"/></g><g class="cls-1"><path class="cls-4" d="M644.45,164.89l0,5c0,3.12-2.07,6.23-6.2,8.61-8.32,4.79-21.84,4.78-30.2,0-4.21-2.41-6.31-5.58-6.3-8.73v-5c0,3.15,2.1,6.32,6.31,8.73,8.36,4.78,21.88,4.79,30.19,0C642.37,171.12,644.44,168,644.45,164.89Z"/><path class="cls-7" d="M638.15,156.16c8.36,4.78,8.4,12.55.09,17.34s-21.83,4.78-30.19,0-8.42-12.55-.1-17.34S629.78,151.37,638.15,156.16Z"/></g><path class="cls-8" d="M633.53,159.57c5.83,2.92,5.86,7.64.07,10.56s-15.21,2.91-21,0-5.86-7.64-.07-10.56S627.7,156.66,633.53,159.57Z"/><path class="cls-8" d="M608.21,164.85h29.71V121.08c0-16.7-6.71-30.11-18.4-36.8s-26.76-5.74-41.34,2.6L522,119l14.86,25.51L593,112.39c6-3.41,10-3.54,11.63-2.6s3.55,4.45,3.55,11.29Z"/><path class="cls-4" d="M637.92,138.56c0,2.18-1.42,4.37-4.32,6-5.79,3.33-15.21,3.33-21,0-2.91-1.67-4.38-3.86-4.39-6v8.85c0,2.18,1.48,4.37,4.39,6,5.83,3.33,15.25,3.34,21,0,2.9-1.67,4.34-3.85,4.32-6Z"/><path class="cls-9" d="M637.92,124.86c0,2.19-1.42,4.38-4.32,6-5.79,3.34-15.21,3.34-21,0-2.91-1.66-4.38-3.85-4.39-6v8.86c0,2.18,1.48,4.37,4.39,6,5.83,3.33,15.25,3.34,21,0,2.9-1.67,4.34-3.86,4.32-6Z"/><g class="cls-1"><path class="cls-4" d="M596.13,206.83l-.49,31.44c0,15.47-10.3,30.92-30.78,42.72-41.25,23.76-108.35,23.76-149.86,0-20.89-11.95-31.32-27.65-31.28-43.32l.49-31.44c0,15.67,10.39,31.37,31.28,43.32,41.51,23.76,108.61,23.76,149.85,0C585.83,237.75,596.09,222.3,596.13,206.83Z"/><ellipse class="cls-7" cx="490.17" cy="206.53" rx="60.84" ry="105.97" transform="translate(282.28 696.12) rotate(-89.84)"/></g><g class="cls-1"><path class="cls-4" d="M583.31,55.6l-.1,32.85L583.09,135l-.2,70.12c0,13.61-9.06,27.19-27.08,37.57-36.27,20.89-95.28,20.89-131.78,0-18.36-10.52-27.53-24.32-27.49-38.1l.21-69.79.12-46.2.1-33.42c0,13.74,9.18,27.5,27.5,38,36.51,20.89,95.51,20.89,131.78,0C574.25,82.79,583.27,69.21,583.31,55.6Z"/><path class="cls-10" d="M410,134.34c-6.38-5.56-10.8-11.62-13.17-17.87l-.12,18.32a39,39,0,0,0,5,9.22,52.57,52.57,0,0,0,8.27,8.84Z"/><path class="cls-10" d="M557.51,143.27c-29.33,16.57-73.13,20-108.63,10.36v18.48c35.49,9.61,79.26,6.19,108.57-10.35,13.47-7.63,22-17,25.64-26.77l.12-18.66C579.65,126.21,571.08,135.61,557.51,143.27Z"/><ellipse class="cls-11" cx="490.14" cy="55.33" rx="53.5" ry="93.18" transform="translate(433.44 545.32) rotate(-89.84)"/><path class="cls-4" d="M573.27,55.49a22,22,0,0,1-1.09,6.79c-2.59,8.1-9.82,15.85-21,22.28-16,9.22-37.59,14.32-60.74,14.32s-44.8-5.1-61-14.34C418.1,78,410.73,70.16,408.1,61.94A21.57,21.57,0,0,1,407,55.19c0-10.54,7.82-20.88,22.08-29.08,16-9.24,37.59-14.32,60.74-14.32s44.8,5.1,60.95,14.34C565.27,34.41,573.27,44.83,573.27,55.49Z"/><path class="cls-12" d="M572.18,62.28c-2.59,8.1-9.82,15.85-21,22.28-16,9.22-37.59,14.32-60.74,14.32s-44.8-5.1-61-14.34C418.1,78,410.73,70.16,408.1,61.94c2.61-8.11,9.84-15.84,21-22.25,16-9.24,37.59-14.32,60.74-14.32s44.8,5.1,60.95,14.34C562.18,46.22,569.55,54.05,572.18,62.28Z"/></g><path class="cls-7" d="M421.19,139.46a.27.27,0,0,1-.28-.27V90.91a7.26,7.26,0,0,1,3.3-5.68A2.56,2.56,0,0,1,426.8,85a2.46,2.46,0,0,1,1.06,2.27v2.89a.28.28,0,1,1-.55,0V87.25a1.66,1.66,0,0,0-2.75-1.57,6.62,6.62,0,0,0-3.09,5.23v48.28A.28.28,0,0,1,421.19,139.46Z"/><path class="cls-7" d="M428.11,143.42a.27.27,0,0,1-.28-.27V94.87a7.26,7.26,0,0,1,3.3-5.68,2.54,2.54,0,0,1,2.58-.25,2.45,2.45,0,0,1,1.07,2.27V94.1a.27.27,0,0,1-.28.28.28.28,0,0,1-.28-.28V91.21a1.65,1.65,0,0,0-2.74-1.58,6.67,6.67,0,0,0-3.1,5.24v48.28A.28.28,0,0,1,428.11,143.42Z"/><path class="cls-7" d="M428.11,139.42c-.14,0-7-4-7-4a.28.28,0,1,1,.28-.48l6.89,3.94a.29.29,0,0,1,.1.38A.28.28,0,0,1,428.11,139.42Z"/><path class="cls-7" d="M428.1,135c-.14,0-7-4-7-4a.27.27,0,0,1-.1-.38.27.27,0,0,1,.38-.1l6.88,3.94a.27.27,0,0,1,.1.38A.28.28,0,0,1,428.1,135Z"/><path class="cls-7" d="M428.1,130.59c-.14,0-7-4-7-4a.28.28,0,0,1,.28-.48l6.89,3.94a.27.27,0,0,1,.1.38A.29.29,0,0,1,428.1,130.59Z"/><path class="cls-7" d="M428.09,126.18c-.14,0-7-4-7-4a.28.28,0,1,1,.28-.48l6.88,3.94a.28.28,0,0,1,.11.38A.31.31,0,0,1,428.09,126.18Z"/><path class="cls-7" d="M428.09,121.77c-.14,0-7-4-7-4a.27.27,0,0,1-.1-.37.28.28,0,0,1,.38-.1l6.89,3.94a.27.27,0,0,1,.1.37A.27.27,0,0,1,428.09,121.77Z"/><path class="cls-7" d="M428.08,117.36c-.13,0-7-4-7-4a.27.27,0,0,1-.1-.38.29.29,0,0,1,.38-.1l6.88,3.94a.28.28,0,0,1,.11.38A.3.3,0,0,1,428.08,117.36Z"/><path class="cls-7" d="M428.08,113c-.14,0-7-4-7-4a.28.28,0,0,1-.11-.38.29.29,0,0,1,.38-.1l6.89,3.94a.28.28,0,0,1,.1.38A.27.27,0,0,1,428.08,113Z"/><path class="cls-7" d="M428.08,108.54c-.14,0-7-4-7-4a.27.27,0,0,1-.1-.38.29.29,0,0,1,.38-.1l6.88,3.94a.28.28,0,0,1,.11.38A.29.29,0,0,1,428.08,108.54Z"/><path class="cls-7" d="M428.07,104.13c-.14,0-7-4-7-4a.28.28,0,0,1-.11-.38.28.28,0,0,1,.38-.1l6.89,3.94a.28.28,0,0,1,.1.38A.27.27,0,0,1,428.07,104.13Z"/><path class="cls-7" d="M428.07,99.72c-.14,0-7-4-7-4a.28.28,0,1,1,.28-.48l6.89,3.94a.29.29,0,0,1,.1.38A.28.28,0,0,1,428.07,99.72Z"/><path class="cls-7" d="M428.06,95.3c-.14,0-7-4-7-4a.27.27,0,0,1-.1-.38.28.28,0,0,1,.38-.1l6.88,3.94a.27.27,0,0,1,.1.38A.28.28,0,0,1,428.06,95.3Z"/><path class="cls-7" d="M428.11,101.83a.3.3,0,0,1-.25-.14.27.27,0,0,1,.11-.37l3.27-1.88a.29.29,0,0,1,.38.1.28.28,0,0,1-.1.38l-3.27,1.87A.27.27,0,0,1,428.11,101.83Z"/><path class="cls-7" d="M421.21,97.79a.29.29,0,0,1-.24-.13.27.27,0,0,1,.1-.38l3.28-1.88a.28.28,0,0,1,.38.11.27.27,0,0,1-.1.37l-3.28,1.88A.32.32,0,0,1,421.21,97.79Z"/><path class="cls-7" d="M428.11,119.41a.3.3,0,0,1-.25-.14.28.28,0,0,1,.11-.38l3.27-1.87a.29.29,0,0,1,.38.1.28.28,0,0,1-.1.38l-3.27,1.87A.27.27,0,0,1,428.11,119.41Z"/><path class="cls-7" d="M421.21,115.37a.29.29,0,0,1-.24-.13.27.27,0,0,1,.1-.38l3.28-1.88a.29.29,0,0,1,.38.1.28.28,0,0,1-.1.38l-3.28,1.88A.32.32,0,0,1,421.21,115.37Z"/><path class="cls-7" d="M428.11,137a.3.3,0,0,1-.25-.14.28.28,0,0,1,.11-.38l3.27-1.87a.29.29,0,0,1,.38.1.28.28,0,0,1-.1.38L428.25,137A.27.27,0,0,1,428.11,137Z"/><path class="cls-7" d="M421.21,133a.29.29,0,0,1-.24-.13.27.27,0,0,1,.1-.38l3.28-1.88a.29.29,0,0,1,.38.1.28.28,0,0,1-.1.38l-3.28,1.88A.32.32,0,0,1,421.21,133Z"/><path class="cls-7" d="M420.91,127.47v46.87a.28.28,0,0,0,.28.28.29.29,0,0,0,.28-.28V127.47Z"/><path class="cls-7" d="M427.83,131v47.3a.28.28,0,0,0,.28.28.29.29,0,0,0,.28-.28V131Z"/><path class="cls-7" d="M428.11,174.57c-.14,0-7-4-7-4a.27.27,0,0,1-.1-.38.29.29,0,0,1,.38-.1l6.89,3.94a.29.29,0,0,1,.1.38A.28.28,0,0,1,428.11,174.57Z"/><path class="cls-7" d="M428.1,170.16c-.14,0-7-4-7-4a.27.27,0,0,1-.1-.38.28.28,0,0,1,.38-.1l6.88,3.94a.28.28,0,0,1,.1.38A.27.27,0,0,1,428.1,170.16Z"/><path class="cls-7" d="M428.1,165.75c-.14,0-7-4-7-4a.28.28,0,0,1-.1-.38.29.29,0,0,1,.38-.1l6.89,3.94a.28.28,0,0,1-.14.52Z"/><path class="cls-7" d="M428.09,161.34c-.14,0-7-4-7-4a.28.28,0,0,1,.28-.48l6.88,3.94a.28.28,0,0,1,.11.38A.3.3,0,0,1,428.09,161.34Z"/><path class="cls-7" d="M428.09,156.92c-.14,0-7-4-7-4a.29.29,0,0,1-.1-.38.28.28,0,0,1,.38-.1l6.89,3.94a.27.27,0,0,1,.1.38A.28.28,0,0,1,428.09,156.92Z"/><path class="cls-7" d="M428.08,152.51c-.13,0-7-4-7-4a.28.28,0,0,1,.28-.48l6.88,3.94a.28.28,0,0,1,.11.38A.31.31,0,0,1,428.08,152.51Z"/><path class="cls-7" d="M428.08,148.1c-.14,0-7-4-7-4a.28.28,0,0,1-.11-.38.28.28,0,0,1,.38-.1l6.89,3.94a.27.27,0,0,1,.1.38A.28.28,0,0,1,428.08,148.1Z"/><path class="cls-7" d="M428.08,143.69c-.14,0-7-4-7-4a.27.27,0,0,1-.1-.37.28.28,0,0,1,.38-.1l6.88,3.94a.27.27,0,0,1,.11.37A.29.29,0,0,1,428.08,143.69Z"/><path class="cls-7" d="M428.07,139.28c-.14,0-7-4-7-4a.28.28,0,0,1-.11-.38.29.29,0,0,1,.38-.1l6.89,3.94a.28.28,0,0,1,.1.38A.27.27,0,0,1,428.07,139.28Z"/><path class="cls-7" d="M428.07,134.87c-.14,0-7-4-7-4a.27.27,0,0,1-.1-.38.29.29,0,0,1,.38-.1l6.89,3.94a.29.29,0,0,1,.1.38A.28.28,0,0,1,428.07,134.87Z"/><path class="cls-7" d="M428.11,137a.31.31,0,0,1-.25-.13.28.28,0,0,1,.11-.38l3.27-1.88a.28.28,0,0,1,.38.11.27.27,0,0,1-.1.37L428.25,137Z"/><path class="cls-7" d="M421.21,133a.28.28,0,0,1-.14-.52l3.28-1.87a.28.28,0,0,1,.38.1.29.29,0,0,1-.1.38l-3.28,1.87A.23.23,0,0,1,421.21,133Z"/><path class="cls-7" d="M428.11,154.56a.31.31,0,0,1-.25-.13.28.28,0,0,1,.11-.38l3.27-1.88a.28.28,0,0,1,.38.11.27.27,0,0,1-.1.37l-3.27,1.88Z"/><path class="cls-7" d="M421.21,150.53a.28.28,0,0,1-.14-.52l3.28-1.87a.28.28,0,0,1,.38.1.29.29,0,0,1-.1.38l-3.28,1.87A.33.33,0,0,1,421.21,150.53Z"/><path class="cls-7" d="M428.11,172.14a.3.3,0,0,1-.25-.14.27.27,0,0,1,.11-.37l3.27-1.88a.29.29,0,0,1,.38.1.27.27,0,0,1-.1.38l-3.27,1.88Z"/><path class="cls-7" d="M421.21,168.11a.28.28,0,0,1-.14-.52l3.28-1.87a.28.28,0,0,1,.38.1.29.29,0,0,1-.1.38l-3.28,1.87A.33.33,0,0,1,421.21,168.11Z"/><path class="cls-7" d="M420.91,162.64v46.87a.27.27,0,0,0,.28.27.28.28,0,0,0,.28-.27V162.64Z"/><path class="cls-7" d="M427.83,166.16v47.3a.27.27,0,0,0,.28.28.28.28,0,0,0,.28-.28v-47.3Z"/><path class="cls-7" d="M428.11,209.73c-.14,0-7-4-7-4a.28.28,0,1,1,.28-.48l6.89,3.94a.28.28,0,0,1,.1.38A.29.29,0,0,1,428.11,209.73Z"/><path class="cls-7" d="M428.1,205.32c-.14,0-7-4-7-4a.27.27,0,0,1-.1-.38.27.27,0,0,1,.38-.1l6.88,3.94a.27.27,0,0,1,.1.37A.27.27,0,0,1,428.1,205.32Z"/><path class="cls-7" d="M428.1,200.91c-.14,0-7-4-7-4a.27.27,0,0,1-.1-.38.29.29,0,0,1,.38-.1l6.89,4a.27.27,0,0,1,.1.37A.28.28,0,0,1,428.1,200.91Z"/><path class="cls-7" d="M428.09,196.5c-.14,0-7-4-7-4a.27.27,0,0,1-.1-.38.29.29,0,0,1,.38-.1l6.88,3.94a.28.28,0,0,1,.11.38A.3.3,0,0,1,428.09,196.5Z"/><path class="cls-7" d="M428.09,192.09c-.14,0-7-4-7-4a.28.28,0,0,1-.1-.38.29.29,0,0,1,.38-.1l6.89,3.94a.28.28,0,0,1,.1.38A.27.27,0,0,1,428.09,192.09Z"/><path class="cls-7" d="M428.08,187.68c-.13,0-7-4-7-4a.28.28,0,0,1-.1-.38.29.29,0,0,1,.38-.1l6.88,3.94a.28.28,0,0,1,.11.38A.3.3,0,0,1,428.08,187.68Z"/><path class="cls-7" d="M428.08,183.27c-.14,0-7-4-7-4a.28.28,0,0,1-.11-.38.29.29,0,0,1,.38-.1l6.89,3.94a.28.28,0,0,1,.1.38A.27.27,0,0,1,428.08,183.27Z"/><path class="cls-7" d="M428.08,178.85c-.14,0-7-4-7-4a.28.28,0,0,1,.28-.48l6.88,3.94a.27.27,0,0,1-.13.51Z"/><path class="cls-7" d="M428.07,174.44c-.14,0-7-4-7-4a.28.28,0,0,1-.11-.38.28.28,0,0,1,.38-.1l6.89,3.94a.27.27,0,0,1,.1.38A.28.28,0,0,1,428.07,174.44Z"/><path class="cls-7" d="M428.07,170c-.14,0-7-4-7-4a.28.28,0,0,1,.28-.48l6.89,3.94a.28.28,0,0,1,.1.38A.29.29,0,0,1,428.07,170Z"/><path class="cls-7" d="M428.11,172.15a.3.3,0,0,1-.25-.14.28.28,0,0,1,.11-.38l3.27-1.87a.28.28,0,1,1,.28.48l-3.27,1.87A.27.27,0,0,1,428.11,172.15Z"/><path class="cls-7" d="M421.21,168.11A.28.28,0,0,1,421,168a.27.27,0,0,1,.1-.37l3.28-1.88a.29.29,0,0,1,.38.1.28.28,0,0,1-.1.38l-3.28,1.87A.23.23,0,0,1,421.21,168.11Z"/><path class="cls-7" d="M428.11,189.73a.3.3,0,0,1-.25-.14.28.28,0,0,1,.11-.38l3.27-1.87a.28.28,0,0,1,.28.48l-3.27,1.87A.27.27,0,0,1,428.11,189.73Z"/><path class="cls-7" d="M421.21,185.69a.28.28,0,0,1-.14-.52l3.28-1.87a.28.28,0,0,1,.28.48l-3.28,1.87A.23.23,0,0,1,421.21,185.69Z"/><path class="cls-7" d="M428.11,207.31a.3.3,0,0,1-.25-.14.28.28,0,0,1,.11-.38l3.27-1.87a.28.28,0,1,1,.28.48l-3.27,1.87A.43.43,0,0,1,428.11,207.31Z"/><path class="cls-7" d="M421.21,203.27a.28.28,0,0,1-.14-.52l3.28-1.87a.28.28,0,0,1,.28.48l-3.28,1.87A.23.23,0,0,1,421.21,203.27Z"/><path class="cls-7" d="M420.91,197.8v46.87a.28.28,0,0,0,.28.28.29.29,0,0,0,.28-.28V197.8Z"/><path class="cls-7" d="M427.83,201.33v47.3a.28.28,0,0,0,.28.28.29.29,0,0,0,.28-.28v-47.3Z"/><path class="cls-7" d="M428.11,244.9c-.14,0-7-4-7-4a.28.28,0,0,1-.1-.38.29.29,0,0,1,.38-.1l6.89,3.94a.29.29,0,0,1,.1.38A.28.28,0,0,1,428.11,244.9Z"/><path class="cls-7" d="M428.1,240.49c-.14,0-7-4-7-4a.27.27,0,0,1-.1-.38.28.28,0,0,1,.38-.1l6.88,3.94a.28.28,0,0,1,.1.38A.27.27,0,0,1,428.1,240.49Z"/><path class="cls-7" d="M428.1,236.08c-.14,0-7-4-7-4a.28.28,0,1,1,.28-.48l6.89,3.94a.28.28,0,0,1-.14.52Z"/><path class="cls-7" d="M428.09,231.66c-.14,0-7-4-7-4a.28.28,0,1,1,.28-.48l6.88,3.94a.28.28,0,0,1,.11.38A.31.31,0,0,1,428.09,231.66Z"/><path class="cls-7" d="M428.09,227.25c-.14,0-7-4-7-4a.29.29,0,0,1-.1-.38.28.28,0,0,1,.38-.1l6.89,3.94a.27.27,0,0,1,.1.37A.27.27,0,0,1,428.09,227.25Z"/><path class="cls-7" d="M428.08,222.84c-.13,0-7-4-7-4a.27.27,0,0,1-.1-.37.28.28,0,0,1,.38-.1l6.88,3.94a.27.27,0,0,1,.11.37A.3.3,0,0,1,428.08,222.84Z"/><path class="cls-7" d="M428.08,218.43c-.14,0-7-4-7-4a.27.27,0,0,1-.11-.37.28.28,0,0,1,.38-.11l6.89,3.95a.27.27,0,0,1,.1.37A.27.27,0,0,1,428.08,218.43Z"/><path class="cls-7" d="M428.08,214c-.14,0-7-4-7-4a.27.27,0,0,1-.1-.38.29.29,0,0,1,.38-.1l6.88,3.94a.28.28,0,0,1,.11.38A.29.29,0,0,1,428.08,214Z"/><path class="cls-7" d="M428.07,209.61c-.14,0-7-4-7-4a.28.28,0,0,1-.11-.38.29.29,0,0,1,.38-.1l6.89,3.94a.28.28,0,0,1,.1.38A.27.27,0,0,1,428.07,209.61Z"/><path class="cls-7" d="M428.07,205.2c-.14,0-7-4-7-4a.28.28,0,0,1-.1-.38.29.29,0,0,1,.38-.1l6.89,3.94a.29.29,0,0,1,.1.38A.28.28,0,0,1,428.07,205.2Z"/><path class="cls-7" d="M428.11,207.31a.3.3,0,0,1-.25-.14.27.27,0,0,1,.11-.37l3.27-1.88a.29.29,0,0,1,.38.1.27.27,0,0,1-.1.38l-3.27,1.88Z"/><path class="cls-7" d="M421.21,203.28a.28.28,0,0,1-.14-.52l3.28-1.87a.28.28,0,0,1,.38.1.29.29,0,0,1-.1.38l-3.28,1.87A.33.33,0,0,1,421.21,203.28Z"/><path class="cls-7" d="M428.11,224.89a.3.3,0,0,1-.25-.14.27.27,0,0,1,.11-.37l3.27-1.88a.29.29,0,0,1,.38.1.27.27,0,0,1-.1.38l-3.27,1.88Z"/><path class="cls-7" d="M421.21,220.85a.29.29,0,0,1-.24-.13.27.27,0,0,1,.1-.38l3.28-1.87a.28.28,0,0,1,.38.1.27.27,0,0,1-.1.37l-3.28,1.88A.32.32,0,0,1,421.21,220.85Z"/><path class="cls-7" d="M428.11,242.47a.3.3,0,0,1-.25-.14A.27.27,0,0,1,428,242l3.27-1.88a.29.29,0,0,1,.38.1.28.28,0,0,1-.1.38l-3.27,1.87A.27.27,0,0,1,428.11,242.47Z"/><path class="cls-7" d="M421.21,238.43a.29.29,0,0,1-.24-.13.27.27,0,0,1,.1-.38l3.28-1.87a.27.27,0,0,1,.38.1.27.27,0,0,1-.1.37l-3.28,1.88A.32.32,0,0,1,421.21,238.43Z"/><path class="cls-5" d="M490.28,102.69c-17,0-34-2.75-48.93-8.39a.3.3,0,0,1-.17-.38.31.31,0,0,1,.39-.18c35.05,13.25,81.95,10.5,111.53-6.53,16.59-9.56,25.71-22.25,25.7-35.73s-9.3-26.37-26.11-36c-34.72-19.87-91-19.87-125.51,0-15.68,9-24.78,21-25.63,33.75-.77,11.6,5.47,23.09,17.57,32.36a.3.3,0,0,1-.37.48C406.48,72.68,400.16,61,401,49.2,401.81,36.26,411,24.11,426.88,15,461.53-5,518.11-5,553,15c17,9.74,26.39,22.7,26.41,36.51s-9.22,26.58-26,36.24C536.27,97.59,513.36,102.69,490.28,102.69Z"/><path class="cls-5" d="M418.93,86.26a.29.29,0,0,1-.3-.3V81.84a.3.3,0,0,1,.6,0V86A.29.29,0,0,1,418.93,86.26Z"/><path class="cls-5" d="M402.92,65.85a.31.31,0,0,1-.3-.3V61.43a.31.31,0,0,1,.61,0v4.12A.31.31,0,0,1,402.92,65.85Z"/><path class="cls-5" d="M402.92,45.43a.3.3,0,0,1-.3-.3V41a.31.31,0,0,1,.61,0v4.12A.3.3,0,0,1,402.92,45.43Z"/><path class="cls-5" d="M414.22,29a.3.3,0,0,1-.3-.3V24.58a.31.31,0,0,1,.61,0V28.7A.3.3,0,0,1,414.22,29Z"/><path class="cls-5" d="M435.07,15.85a.29.29,0,0,1-.3-.3V11.43a.3.3,0,0,1,.6,0v4.12A.29.29,0,0,1,435.07,15.85Z"/><path class="cls-5" d="M463.32,7.27A.31.31,0,0,1,463,7V2.85a.3.3,0,0,1,.3-.3.29.29,0,0,1,.3.3V7A.3.3,0,0,1,463.32,7.27Z"/><path class="cls-5" d="M497.69,5.21a.3.3,0,0,1-.3-.3V.79a.29.29,0,0,1,.3-.3.3.3,0,0,1,.3.3V4.91A.31.31,0,0,1,497.69,5.21Z"/><path class="cls-5" d="M528.58,9.78a.29.29,0,0,1-.3-.3V5.37a.29.29,0,0,1,.3-.3.3.3,0,0,1,.3.3V9.48A.3.3,0,0,1,528.58,9.78Z"/><path class="cls-5" d="M551.18,19a.29.29,0,0,1-.3-.3V14.58a.3.3,0,0,1,.6,0v4.11A.29.29,0,0,1,551.18,19Z"/><path class="cls-5" d="M571.1,35a.3.3,0,0,1-.3-.3V30.59a.31.31,0,0,1,.3-.3.3.3,0,0,1,.3.3v4.12A.29.29,0,0,1,571.1,35Z"/><path class="cls-5" d="M579.1,57.93a.3.3,0,0,1-.31-.3V53.51a.31.31,0,0,1,.61,0v4.12A.3.3,0,0,1,579.1,57.93Z"/><path class="cls-5" d="M569.11,79.78a.31.31,0,0,1-.3-.3V75.36a.31.31,0,0,1,.61,0v4.12A.31.31,0,0,1,569.11,79.78Z"/><path class="cls-5" d="M543.48,96.88a.3.3,0,0,1-.31-.3V92.46a.31.31,0,0,1,.61,0v4.12A.3.3,0,0,1,543.48,96.88Z"/><path class="cls-5" d="M507.31,106.4a.3.3,0,0,1-.3-.3V102a.3.3,0,0,1,.3-.3.29.29,0,0,1,.3.3v4.11A.29.29,0,0,1,507.31,106.4Z"/><path class="cls-5" d="M472.74,105.66a.3.3,0,0,1-.3-.3v-4.12a.3.3,0,0,1,.6,0v4.12A.3.3,0,0,1,472.74,105.66Z"/><path class="cls-5" d="M441.47,98.09a.3.3,0,0,1-.3-.3V93.68a.31.31,0,0,1,.61,0v4.11A.3.3,0,0,1,441.47,98.09Z"/><g class="cls-1"><path class="cls-4" d="M593.43,284.55v3.34c0,2.07,1.38,4.14,4.12,5.72,5.51,3.17,14.48,3.17,20,0,2.8-1.6,4.2-3.7,4.19-5.8v-3.34c0,2.09-1.39,4.19-4.19,5.79-5.54,3.18-14.52,3.18-20,0C594.81,288.68,593.44,286.62,593.43,284.55Z"/><path class="cls-7" d="M597.61,278.75c-5.55,3.18-5.58,8.33-.06,11.51s14.49,3.18,20,0,5.59-8.33.07-11.51S603.17,275.58,597.61,278.75Z"/></g><path class="cls-13" d="M600.67,281c-3.86,1.94-3.89,5.07,0,7a17.55,17.55,0,0,0,14,0c3.87-1.94,3.89-5.07,0-7A17.55,17.55,0,0,0,600.67,281Z"/><path class="cls-8" d="M600.67,281c-3.86,1.94-3.89,5.07,0,7a17.55,17.55,0,0,0,14,0c3.87-1.94,3.89-5.07,0-7A17.55,17.55,0,0,0,600.67,281Z"/><g class="cls-1"><path class="cls-8" d="M564.39,191.27l-2.92-1.66c-1.81-1-4.3-.89-7.05.68-5.54,3.15-10,10.85-10,17.2,0,3.2,1.13,5.45,3,6.49l2.92,1.66c-1.83-1-3-3.29-3-6.49,0-6.35,4.49-14.05,10-17.2C560.09,190.39,562.58,190.24,564.39,191.27Z"/><path class="cls-4" d="M567.36,197.76c0-6.35-4.48-8.95-10-5.81s-10,10.85-10,17.2,4.49,9,10,5.81S567.36,204.12,567.36,197.76Z"/></g><path class="cls-13" d="M563.85,199.25c.25-4.28-2.48-5.87-6.09-3.54a17.17,17.17,0,0,0-7,12c-.25,4.29,2.48,5.87,6.09,3.54A17.19,17.19,0,0,0,563.85,199.25Z"/><path class="cls-8" d="M563.85,199.25c.25-4.28-2.48-5.87-6.09-3.54a17.17,17.17,0,0,0-7,12c-.25,4.29,2.48,5.87,6.09,3.54A17.19,17.19,0,0,0,563.85,199.25Z"/><path class="cls-8" d="M597.76,284.52H617.5v-27c0-17.33-11.85-37.69-27-46.36L562.22,195l-9.88,17,28.3,16.19c9.12,5.22,17.12,19,17.12,29.4Z"/><path class="cls-9" d="M597.76,267.44c0,1.45,1,2.9,2.87,4a15.53,15.53,0,0,0,14,0c1.93-1.11,2.91-2.56,2.91-4v5.88c0,1.45-1,2.9-2.91,4a15.46,15.46,0,0,1-14,0c-1.92-1.1-2.88-2.55-2.87-4Z"/><path class="cls-9" d="M597.76,258.35c0,1.46,1,2.91,2.87,4a15.46,15.46,0,0,0,14,0c1.93-1.1,2.91-2.56,2.91-4v5.88c0,1.45-1,2.9-2.91,4a15.53,15.53,0,0,1-14,0c-1.92-1.11-2.88-2.56-2.87-4Z"/><path class="cls-9" d="M577.5,203.73c-1.27-.73-3-.64-4.94.46a15.21,15.21,0,0,0-7,12c0,2.22.78,3.78,2,4.51l-5.13-2.94c-1.26-.73-2-2.29-2-4.51a15.21,15.21,0,0,1,7-12c1.92-1.1,3.67-1.19,4.93-.46Z"/><path class="cls-9" d="M585.43,208.27c-1.26-.73-3-.64-4.93.46a15.21,15.21,0,0,0-7,12c0,2.21.78,3.77,2,4.5l-5.13-2.93c-1.27-.74-2-2.3-2-4.51a15.24,15.24,0,0,1,7-12c1.93-1.1,3.68-1.19,4.94-.46Z"/><g class="cls-1"><polygon class="cls-2" points="1012.38 339.78 1012.34 353.42 736.94 512.07 736.98 498.43 1012.38 339.78"/><polygon class="cls-3" points="736.98 498.43 736.94 512.07 506.13 379.98 506.17 366.34 736.98 498.43"/><polygon class="cls-4" points="1012.38 353.06 1012.34 366.7 736.94 525.35 736.98 511.71 1012.38 353.06"/><polygon class="cls-5" points="736.98 511.71 736.94 525.35 506.13 393.25 506.17 379.62 736.98 511.71"/><polygon class="cls-6" points="1012.38 339.78 736.98 498.43 506.17 366.34 781.57 207.69 1012.38 339.78"/></g><path class="cls-4" d="M869.74,288.1c57.08,32.89,56.78,86.37-.68,119.25s-150.6,32.89-207.69,0-56.78-86.36.68-119.25S812.65,255.22,869.74,288.1Z"/><path class="cls-14" d="M868.17,278.29c56.22,32.66,55.92,85.78-.67,118.45s-148.34,32.66-204.56,0S607,311,663.61,278.29,811.94,245.62,868.17,278.29Z"/><path class="cls-14" d="M865.38,279.9c54.69,31.77,54.4,83.45-.65,115.23s-144.3,31.77-199,0-54.41-83.46.65-115.23S810.68,248.12,865.38,279.9Z"/><ellipse class="cls-14" cx="765.55" cy="337.51" rx="136.9" ry="78.6" transform="translate(-0.94 2.13) rotate(-0.16)"/><path class="cls-14" d="M635,337.71c0,.87,0,1.74.1,2.62,1.11,17.68,14,34.41,36.5,47.37,24.78,14.28,58,22.15,93.52,22.15S833.93,402,858.9,387.7c22.89-13.1,36-30,37.11-47.86.07-.84.1-1.68.1-2.52,0-18.64-13-36.39-36.6-50-24.79-14.29-58-22.14-93.51-22.14s-68.82,7.87-93.78,22.14C648.24,301.05,635,318.94,635,337.71Z"/><path class="cls-14" d="M635.1,340.33c1.11,17.68,14,34.41,36.5,47.37,24.78,14.28,58,22.15,93.52,22.15S833.93,402,858.9,387.7c22.89-13.1,36-30,37.11-47.86-1.16-17.64-14-34.36-36.5-47.31-24.79-14.29-58-22.15-93.51-22.15s-68.82,7.86-93.78,22.15C649.34,305.6,636.26,322.51,635.1,340.33Z"/><path class="cls-7" d="M868.17,278.29c56.22,32.66,55.92,85.78-.67,118.45s-148.34,32.66-204.56,0S607,311,663.61,278.29,811.94,245.62,868.17,278.29Z"/><path class="cls-5" d="M865.38,279.9c54.69,31.77,54.4,83.45-.65,115.23s-144.3,31.77-199,0-54.41-83.46.65-115.23S810.68,248.12,865.38,279.9Z"/><ellipse class="cls-7" cx="765.55" cy="337.51" rx="136.9" ry="78.6" transform="translate(-0.94 2.13) rotate(-0.16)"/><path class="cls-5" d="M635,337.71c0,.87,0,1.74.1,2.62,1.11,17.68,14,34.41,36.5,47.37,24.78,14.28,58,22.15,93.52,22.15S833.93,402,858.9,387.7c22.89-13.1,36-30,37.11-47.86.07-.84.1-1.68.1-2.52,0-18.64-13-36.39-36.6-50-24.79-14.29-58-22.14-93.51-22.14s-68.82,7.87-93.78,22.14C648.24,301.05,635,318.94,635,337.71Z"/><path class="cls-15" d="M635.1,340.33c1.11,17.68,14,34.41,36.5,47.37,24.78,14.28,58,22.15,93.52,22.15S833.93,402,858.9,387.7c22.89-13.1,36-30,37.11-47.86-1.16-17.64-14-34.36-36.5-47.31-24.79-14.29-58-22.15-93.51-22.15s-68.82,7.86-93.78,22.15C649.34,305.6,636.26,322.51,635.1,340.33Z"/><g class="cls-1"><path class="cls-16" d="M749.87,337.22l.17,5.88c0,2.28,1.52,4.56,4.53,6.29,6.07,3.5,16,3.5,22.07,0,3.07-1.76,4.6-4.07,4.6-6.38l-.18-5.88c0,2.31-1.52,4.62-4.6,6.38-6.1,3.49-16,3.49-22.06,0C751.38,341.77,749.88,339.5,749.87,337.22Z"/><path class="cls-14" d="M776.54,330.84c6.06,3.49,6,9.17-.08,12.67s-16,3.49-22.06,0-6-9.18.07-12.67S770.47,327.34,776.54,330.84Z"/><path class="cls-11" d="M776.54,330.84c6.06,3.49,6,9.17-.08,12.67s-16,3.49-22.06,0-6-9.18.07-12.67S770.47,327.34,776.54,330.84Z"/></g><g class="cls-1"><polygon class="cls-17" points="862.49 385.12 674.56 277.02 674.57 279.55 862.49 387.64 862.49 385.12"/><polygon class="cls-18" points="864.59 383.91 676.67 275.82 674.56 277.02 862.49 385.12 864.59 383.91"/><polygon class="cls-11" points="862.49 387.64 674.57 279.55 670.14 282.08 858.06 390.17 862.49 387.64"/><polygon class="cls-17" points="855.95 388.86 855.95 391.38 855.96 393.78 668.03 285.69 668.03 283.29 668.02 280.77 855.95 388.86"/><polygon class="cls-18" points="858.06 387.65 670.13 279.56 668.02 280.77 855.95 388.86 858.06 387.65"/><polygon class="cls-16" points="855.95 388.86 855.95 391.38 855.96 393.78 858.07 392.57 864.61 388.83 864.59 383.91 862.49 385.12 862.49 387.64 858.06 390.17 858.06 387.65 855.95 388.86"/></g><path class="cls-18" d="M854.37,418.43c.06,1.54,3.15,1.49,3.15,0V403.89a12.18,12.18,0,0,0-5.65-9.7l-83-47.49a1.46,1.46,0,0,1-.06-2.49l1.6-1c1.07-.8-.5-3.33-1.7-2.62l-1.6,1a4.55,4.55,0,0,0,.19,7.81l83,47.49a9.2,9.2,0,0,1,4.07,7Z"/><polygon class="cls-10" points="612 417.3 610.34 425.95 620.7 431.89 662.43 407.96 662.94 396.74 655.4 397.94 649.2 397.67 612 417.3"/><polygon class="cls-19" points="612 417.3 610.34 425.95 620.7 431.89 619.96 421.84 649.2 397.67 612 417.3"/><polygon class="cls-7" points="612 417.3 613.45 418.12 618.34 420.92 619.96 421.84 664.65 396.21 663.2 395.27 658.62 392.28 657.19 391.36 612 417.3"/><polygon class="cls-5" points="613.45 418.12 618.34 420.92 663.2 395.27 667.22 392.96 662.32 390.16 658.62 392.28 613.45 418.12"/><polygon class="cls-5" points="613.45 424.93 618.34 427.74 618.34 420.92 613.45 418.12 613.45 424.93"/><polygon class="cls-15" points="618.34 420.92 613.45 423.89 613.45 424.93 618.34 427.74 618.34 420.92"/><g class="cls-1"><polygon class="cls-2" points="506.25 366.38 506.21 380.02 230.81 538.67 230.84 525.03 506.25 366.38"/><polygon class="cls-3" points="230.84 525.03 230.81 538.67 0 406.58 0.04 392.94 230.84 525.03"/><polygon class="cls-4" points="506.25 379.66 506.21 393.3 230.81 551.95 230.84 538.31 506.25 379.66"/><polygon class="cls-5" points="230.84 538.31 230.81 551.95 0 419.86 0.04 406.22 230.84 538.31"/><polygon class="cls-6" points="506.25 366.38 230.84 525.03 0.04 392.94 275.44 234.29 506.25 366.38"/></g><g class="cls-1"><path class="cls-5" d="M150.27,315.26v4.79c0,3,2,5.92,5.9,8.18,7.9,4.55,20.74,4.54,28.69,0,4-2.29,6-5.3,6-8.3v-4.79c0,3-2,6-6,8.3-8,4.55-20.79,4.55-28.7,0C152.24,321.18,150.28,318.22,150.27,315.26Z"/><path class="cls-7" d="M156.26,307c-7.95,4.55-8,11.93-.1,16.48s20.75,4.55,28.7,0,8-11.92.09-16.48S164.21,302.41,156.26,307Z"/></g><path class="cls-20" d="M187.71,294.6a17.15,17.15,0,1,1-17.2-17A17.07,17.07,0,0,1,187.71,294.6Z"/><g class="cls-1"><path class="cls-8" d="M153.41,294.7l0,18.4c0,2.5,1.66,5,5,6.91,6.67,3.85,17.53,3.85,24.24,0,3.39-1.93,5.07-4.47,5.07-7V294.6c0,2.53-1.69,5.07-5.07,7-6.71,3.84-17.57,3.84-24.25,0C155.08,299.7,153.42,297.2,153.41,294.7Z"/></g><path class="cls-9" d="M153.43,297.71c0,2.52,1.64,5,5,7,6.67,3.85,17.53,3.85,24.24,0,3.36-1.92,5-4.44,5.07-7v1.84c0,2.52-1.71,5-5.07,7-6.71,3.84-17.57,3.85-24.24,0-3.34-1.92-5-4.44-5-7Z"/><polygon class="cls-4" points="88.16 400.06 244.29 489.42 438.94 378.02 438.94 365.32 282.81 288.66 88.16 387.36 88.16 400.06"/><polygon class="cls-20" points="88.16 387.36 244.29 476.72 438.94 365.32 282.81 275.96 88.16 387.36"/><polygon class="cls-5" points="236.54 309.17 241.77 312.15 380.92 391.8 421.96 368.31 427.18 365.32 282.81 282.68 236.54 309.17"/><polygon class="cls-5" points="99.93 387.36 105.14 390.34 244.29 469.99 285.34 446.5 290.55 443.51 146.19 360.89 99.93 387.36"/><polygon class="cls-5" points="253.12 415.8 258.34 418.79 296.04 440.37 370.2 397.92 375.43 394.93 332.5 370.37 253.12 415.8"/><polygon class="cls-5" points="151.67 357.74 156.89 360.73 194.6 382.31 268.77 339.86 273.98 336.87 231.05 312.3 151.67 357.74"/><polygon class="cls-5" points="201.08 386.02 206.3 389 246.65 412.1 320.81 369.65 326.02 366.66 280.46 340.59 201.08 386.02"/><polygon class="cls-15" points="241.77 312.15 380.92 391.8 421.96 368.31 282.81 288.66 241.77 312.15"/><polygon class="cls-21" points="105.14 390.34 244.29 469.99 285.34 446.5 146.19 366.85 105.14 390.34"/><polygon class="cls-22" points="258.34 418.79 296.04 440.37 370.2 397.92 332.5 376.34 258.34 418.79"/><polygon class="cls-22" points="156.89 360.73 194.6 382.31 268.77 339.86 231.05 318.28 156.89 360.73"/><polygon class="cls-15" points="206.3 389 246.65 412.1 320.81 369.65 280.46 346.55 206.3 389"/><g class="cls-1"><polygon class="cls-11" points="216.84 342.52 216.97 373.67 268.33 403.26 268.19 372.11 216.84 342.52"/><polygon class="cls-4" points="268.19 372.11 268.33 403.26 310.27 379.26 310.13 348.11 268.19 372.11"/><polygon class="cls-20" points="216.84 342.52 268.19 372.11 310.13 348.11 258.77 318.52 216.84 342.52"/></g><path class="cls-22" d="M255.35,375l-.06,7.47v3.84L224,368.41l.07-11.33,3.35,1.92,16.09,9.22,3.4,1.95.62.35.87.51Z"/><polygon class="cls-5" points="255.29 382.47 255.28 386.31 224.02 368.41 227.38 366.47 255.29 382.47"/><polygon class="cls-5" points="227.44 359 227.38 366.47 224.02 368.41 224.09 357.08 227.44 359"/><path class="cls-13" d="M201.62,339c-1.42.71-1.43,1.86,0,2.57a6.44,6.44,0,0,0,5.13,0c1.42-.71,1.43-1.86,0-2.57A6.44,6.44,0,0,0,201.62,339Z"/><path class="cls-7" d="M201.62,339c-1.42.71-1.43,1.86,0,2.57a6.44,6.44,0,0,0,5.13,0c1.42-.71,1.43-1.86,0-2.57A6.44,6.44,0,0,0,201.62,339Z"/><g class="cls-1"><path class="cls-7" d="M188.3,306l-1.08-.61a2.61,2.61,0,0,0-2.59.25A8,8,0,0,0,181,312a2.58,2.58,0,0,0,1.09,2.38l1.08.61A2.58,2.58,0,0,1,182,312.6a8,8,0,0,1,3.68-6.32A2.61,2.61,0,0,1,188.3,306Z"/><path class="cls-5" d="M189.39,308.41c0-2.33-1.65-3.28-3.68-2.13A8,8,0,0,0,182,312.6c0,2.33,1.65,3.29,3.68,2.13A8,8,0,0,0,189.39,308.41Z"/></g><path class="cls-13" d="M188.1,309c.09-1.57-.91-2.15-2.24-1.3a6.31,6.31,0,0,0-2.56,4.4c-.09,1.58.91,2.16,2.24,1.3A6.31,6.31,0,0,0,188.1,309Z"/><path class="cls-7" d="M188.1,309c.09-1.57-.91-2.15-2.24-1.3a6.31,6.31,0,0,0-2.56,4.4c-.09,1.58.91,2.16,2.24,1.3A6.31,6.31,0,0,0,188.1,309Z"/><path class="cls-7" d="M200.55,340.28h7.25v-9.92c0-6.36-4.35-13.84-9.91-17l-10.39-5.95-3.63,6.23,10.39,5.95c3.35,1.91,6.29,7,6.29,10.79Z"/><path class="cls-13" d="M200.55,334a1.78,1.78,0,0,0,1,1.47,5.66,5.66,0,0,0,5.13,0A1.79,1.79,0,0,0,207.8,334v2.16a1.8,1.8,0,0,1-1.07,1.47,5.72,5.72,0,0,1-5.13,0,1.78,1.78,0,0,1-1-1.47Z"/><path class="cls-13" d="M200.55,330.67a1.8,1.8,0,0,0,1,1.47,5.72,5.72,0,0,0,5.13,0,1.8,1.8,0,0,0,1.07-1.47v2.15a1.78,1.78,0,0,1-1.07,1.47,5.66,5.66,0,0,1-5.13,0,1.77,1.77,0,0,1-1-1.47Z"/><path class="cls-13" d="M193.11,310.61a1.8,1.8,0,0,0-1.81.16,5.6,5.6,0,0,0-2.57,4.4,1.81,1.81,0,0,0,.75,1.66l-1.88-1.08a1.78,1.78,0,0,1-.75-1.65,5.59,5.59,0,0,1,2.56-4.41,1.8,1.8,0,0,1,1.81-.16Z"/><path class="cls-13" d="M196,312.27a1.81,1.81,0,0,0-1.81.17,5.59,5.59,0,0,0-2.56,4.4,1.79,1.79,0,0,0,.75,1.66l-1.89-1.08a1.81,1.81,0,0,1-.75-1.66,5.6,5.6,0,0,1,2.57-4.4,1.83,1.83,0,0,1,1.81-.17Z"/><path class="cls-11" d="M312.48,397.94c-1.37.68-1.38,1.79,0,2.48a6.22,6.22,0,0,0,5,0c1.38-.69,1.38-1.8,0-2.48A6.18,6.18,0,0,0,312.48,397.94Z"/><g class="cls-1"><path class="cls-11" d="M299.61,366.11l-1-.59a2.49,2.49,0,0,0-2.5.24,7.75,7.75,0,0,0-3.55,6.1,2.49,2.49,0,0,0,1.05,2.3l1,.59a2.49,2.49,0,0,1-1.05-2.3,7.75,7.75,0,0,1,3.55-6.1A2.49,2.49,0,0,1,299.61,366.11Z"/><path class="cls-7" d="M300.66,368.41c0-2.25-1.59-3.18-3.55-2.06a7.75,7.75,0,0,0-3.55,6.1c0,2.25,1.59,3.18,3.55,2.06A7.76,7.76,0,0,0,300.66,368.41Z"/></g><path class="cls-11" d="M299.42,368.94c.09-1.52-.88-2.08-2.16-1.26a6.13,6.13,0,0,0-2.48,4.25c-.09,1.52.88,2.09,2.16,1.26A6.13,6.13,0,0,0,299.42,368.94Z"/><path class="cls-11" d="M311.44,399.18h7V389.6c0-6.14-4.21-13.36-9.58-16.43l-10-5.75-3.5,6,10,5.75a13.69,13.69,0,0,1,6.07,10.42Z"/><path class="cls-23" d="M311.44,393.12a1.73,1.73,0,0,0,1,1.42,5.47,5.47,0,0,0,5,0,1.76,1.76,0,0,0,1-1.42v2.08a1.75,1.75,0,0,1-1,1.42,5.47,5.47,0,0,1-5,0,1.72,1.72,0,0,1-1-1.42Z"/><path class="cls-23" d="M311.44,389.9a1.73,1.73,0,0,0,1,1.42,5.53,5.53,0,0,0,5,0,1.76,1.76,0,0,0,1-1.42V392a1.75,1.75,0,0,1-1,1.42,5.47,5.47,0,0,1-5,0,1.72,1.72,0,0,1-1-1.42Z"/><path class="cls-23" d="M304.26,370.52a1.74,1.74,0,0,0-1.75.17,5.38,5.38,0,0,0-2.48,4.25,1.74,1.74,0,0,0,.73,1.6l-1.82-1.05a1.73,1.73,0,0,1-.73-1.59,5.42,5.42,0,0,1,2.48-4.26,1.76,1.76,0,0,1,1.75-.16Z"/><path class="cls-23" d="M307.07,372.14a1.74,1.74,0,0,0-1.75.16,5.39,5.39,0,0,0-2.47,4.25,1.74,1.74,0,0,0,.72,1.6l-1.82-1a1.74,1.74,0,0,1-.72-1.6,5.37,5.37,0,0,1,2.47-4.25,1.75,1.75,0,0,1,1.75-.17Z"/><path class="cls-11" d="M303.34,403.22c-1.37.68-1.38,1.8,0,2.48a6.18,6.18,0,0,0,4.95,0c1.37-.68,1.38-1.8,0-2.48A6.18,6.18,0,0,0,303.34,403.22Z"/><g class="cls-1"><path class="cls-11" d="M290.47,371.39l-1-.59a2.51,2.51,0,0,0-2.5.24,7.76,7.76,0,0,0-3.55,6.1,2.48,2.48,0,0,0,1.05,2.3l1,.59a2.48,2.48,0,0,1-1.05-2.3,7.76,7.76,0,0,1,3.55-6.1A2.54,2.54,0,0,1,290.47,371.39Z"/><path class="cls-7" d="M291.52,373.69c0-2.25-1.59-3.18-3.55-2.06a7.76,7.76,0,0,0-3.55,6.1c0,2.26,1.59,3.18,3.55,2.06A7.73,7.73,0,0,0,291.52,373.69Z"/></g><path class="cls-11" d="M290.28,374.22c.09-1.52-.88-2.08-2.16-1.26a6.15,6.15,0,0,0-2.48,4.26c-.09,1.52.88,2.08,2.16,1.25A6.13,6.13,0,0,0,290.28,374.22Z"/><path class="cls-11" d="M302.3,404.46h7v-9.57c0-6.15-4.21-13.37-9.58-16.44l-10-5.75-3.5,6,10,5.74a13.69,13.69,0,0,1,6.07,10.43Z"/><path class="cls-23" d="M302.3,398.4a1.72,1.72,0,0,0,1,1.42,5.47,5.47,0,0,0,4.95,0,1.75,1.75,0,0,0,1-1.42v2.09a1.77,1.77,0,0,1-1,1.42,5.53,5.53,0,0,1-4.95,0,1.74,1.74,0,0,1-1-1.42Z"/><path class="cls-23" d="M302.3,395.18a1.73,1.73,0,0,0,1,1.42,5.47,5.47,0,0,0,4.95,0,1.76,1.76,0,0,0,1-1.42v2.08a1.77,1.77,0,0,1-1,1.43,5.53,5.53,0,0,1-4.95,0,1.74,1.74,0,0,1-1-1.43Z"/><path class="cls-23" d="M295.12,375.81a1.74,1.74,0,0,0-1.75.16,5.4,5.4,0,0,0-2.48,4.25,1.73,1.73,0,0,0,.73,1.6l-1.82-1a1.74,1.74,0,0,1-.73-1.6,5.4,5.4,0,0,1,2.48-4.25,1.77,1.77,0,0,1,1.75-.17Z"/><path class="cls-23" d="M297.93,377.42a1.74,1.74,0,0,0-1.75.16,5.39,5.39,0,0,0-2.47,4.25,1.73,1.73,0,0,0,.72,1.6l-1.82-1a1.74,1.74,0,0,1-.72-1.6,5.39,5.39,0,0,1,2.47-4.25,1.74,1.74,0,0,1,1.75-.16Z"/><g class="cls-1"><polygon class="cls-4" points="247.36 343.17 259.71 336.05 259.75 332.22 259.75 328.53 247.4 335.65 247.4 339.19 247.36 343.17"/><polygon class="cls-24" points="237.29 329.89 237.29 337.41 247.36 343.17 247.4 339.19 247.4 335.65 237.29 329.89"/><polygon class="cls-25" points="259.73 328.54 247.38 335.65 237.31 329.88 249.65 322.77 259.73 328.54"/></g><path class="cls-26" d="M237.29,330v3.5l10.11,5.8c.11.07,12.35-7,12.35-7v-3.68l-12.35,7.12Z"/><polygon class="cls-4" points="261.86 325.39 261.85 329.4 247.15 337.87 247.15 333.86 261.86 325.39"/><polygon class="cls-24" points="247.15 333.86 247.15 337.87 235.14 331 235.15 326.99 247.15 333.86"/><polygon class="cls-11" points="235.15 326.99 247.16 333.86 261.85 325.39 259.35 323.95 249.86 318.52 241.36 323.42 235.15 326.99"/><g class="cls-1"><polygon class="cls-4" points="274.57 359.63 286.92 352.51 286.96 348.67 286.96 344.99 274.61 352.11 274.61 355.65 274.57 359.63"/><polygon class="cls-24" points="264.5 346.35 264.5 353.87 274.57 359.63 274.61 355.65 274.61 352.11 264.5 346.35"/><polygon class="cls-25" points="286.94 345 274.6 352.11 264.52 346.34 276.86 339.23 286.94 345"/></g><path class="cls-26" d="M264.5,346.48V350l10.11,5.8c.11.07,12.35-7,12.35-7v-3.69l-12.35,7.13Z"/><polygon class="cls-4" points="289.07 341.85 289.07 345.86 274.36 354.33 274.37 350.32 289.07 341.85"/><polygon class="cls-24" points="274.37 350.32 274.36 354.33 262.35 347.45 262.36 343.45 274.37 350.32"/><polygon class="cls-11" points="262.36 343.45 274.37 350.32 289.06 341.85 286.56 340.41 277.07 334.98 268.57 339.88 262.36 343.45"/><g class="cls-1"><path class="cls-5" d="M383.32,326.53v2.39c0,1.47,1,2.95,2.94,4.07a15.84,15.84,0,0,0,14.29,0c2-1.14,3-2.64,3-4.13v-2.39c0,1.5-1,3-3,4.14a15.91,15.91,0,0,1-14.29,0C384.31,329.48,383.33,328,383.32,326.53Z"/><path class="cls-7" d="M386.31,322.4c-4,2.26-4,5.94-.05,8.21a15.91,15.91,0,0,0,14.29,0c4-2.27,4-5.94.05-8.21A15.84,15.84,0,0,0,386.31,322.4Z"/></g><path class="cls-11" d="M355.82,344.47h10.26v-7.53c0-5.05,3.88-11.71,8.29-14.23l10.77-6.17c1.6-.91,2.45-.81,2.55-.75s.61.73.61,2.56v7.53h10.27v-7.53c0-5.14-2.1-9.28-5.75-11.37s-8.32-1.82-12.81.75l-10.77,6.16c-7.53,4.31-13.42,14.44-13.42,23.05Z"/><path class="cls-11" d="M389.82,323.78c-2,1.15-2,3,0,4.17a8.07,8.07,0,0,0,7.26,0c2-1.16,2-3,0-4.17A8,8,0,0,0,389.82,323.78Z"/><path class="cls-11" d="M357.33,342.39c-2,1.15-2,3,0,4.17a8.07,8.07,0,0,0,7.26,0c2-1.15,2-3,0-4.17A8.07,8.07,0,0,0,357.33,342.39Z"/><g class="cls-1"><path class="cls-5" d="M340.73,300.62V303c0,1.48,1,2.95,2.93,4.07a15.84,15.84,0,0,0,14.29,0c2-1.14,3-2.63,3-4.13v-2.38c0,1.49-1,3-3,4.13a15.88,15.88,0,0,1-14.29,0C341.71,303.57,340.73,302.1,340.73,300.62Z"/><path class="cls-7" d="M343.71,296.49c-4,2.27-4,5.94,0,8.21a15.88,15.88,0,0,0,14.29,0c4-2.27,4-5.94,0-8.21A15.88,15.88,0,0,0,343.71,296.49Z"/></g><path class="cls-11" d="M313.22,318.57h10.27V311c0-5,3.87-11.7,8.29-14.23l10.77-6.17c1.59-.91,2.44-.81,2.54-.75s.62.74.62,2.56V300H356v-7.54c0-5.14-2.09-9.28-5.74-11.37s-8.33-1.82-12.81.75L326.65,288c-7.53,4.3-13.43,14.43-13.43,23Z"/><path class="cls-11" d="M347.22,297.87c-2,1.15-2,3,0,4.17a8.07,8.07,0,0,0,7.26,0c2-1.15,2-3,0-4.17A8.07,8.07,0,0,0,347.22,297.87Z"/><path class="cls-11" d="M314.74,316.48c-2,1.15-2,3,0,4.17a8.07,8.07,0,0,0,7.26,0c2-1.15,2-3,0-4.17A8,8,0,0,0,314.74,316.48Z"/><g class="cls-1"><path class="cls-5" d="M100.25,429.6v3.23c0,2,1.33,4,4,5.53,5.34,3.08,14,3.07,19.39,0,2.7-1.55,4.06-3.58,4.05-5.6v-3.24c0,2-1.34,4.06-4,5.61-5.37,3.07-14.05,3.07-19.39,0C101.59,433.6,100.26,431.6,100.25,429.6Z"/><path class="cls-7" d="M104.3,424c-5.37,3.08-5.4,8.06-.07,11.14s14,3.07,19.39,0,5.4-8.06.06-11.14S109.67,420.92,104.3,424Z"/></g><path class="cls-4" d="M107,428.84h13.92V418.62c0-6.86,5.26-15.88,11.25-19.31L146.79,391c2.16-1.24,3.31-1.1,3.45-1s.83,1,.83,3.47v10.22H165V393.4c0-7-2.84-12.59-7.8-15.43s-11.29-2.46-17.37,1l-14.61,8.36C115,393.2,107,406.93,107,418.62Z"/><path class="cls-4" d="M153.13,400.76c-2.73,1.57-2.74,4.1,0,5.66a10.93,10.93,0,0,0,9.84,0c2.73-1.56,2.74-4.09,0-5.66A10.93,10.93,0,0,0,153.13,400.76Z"/><path class="cls-4" d="M109.06,426c-2.72,1.56-2.74,4.09,0,5.65a11,11,0,0,0,9.85,0c2.73-1.56,2.74-4.09,0-5.65A11,11,0,0,0,109.06,426Z"/><g class="cls-1"><path class="cls-4" d="M163.65,279.73v1.58a3.32,3.32,0,0,0,1.95,2.7,10.54,10.54,0,0,0,9.46,0,3.35,3.35,0,0,0,2-2.74v-1.58a3.34,3.34,0,0,1-2,2.74,10.51,10.51,0,0,1-9.46,0A3.3,3.3,0,0,1,163.65,279.73Z"/><path class="cls-11" d="M165.62,277c-2.62,1.5-2.63,3.94,0,5.44a10.51,10.51,0,0,0,9.46,0c2.62-1.5,2.64-3.93,0-5.44A10.54,10.54,0,0,0,165.62,277Z"/></g><path class="cls-4" d="M167.07,278.06c-1.83.92-1.84,2.4,0,3.31a8.3,8.3,0,0,0,6.59,0c1.82-.91,1.83-2.39,0-3.31A8.3,8.3,0,0,0,167.07,278.06Z"/><path class="cls-4" d="M167.07,278.06c-1.83.92-1.84,2.4,0,3.31a8.3,8.3,0,0,0,6.59,0c1.82-.91,1.83-2.39,0-3.31A8.3,8.3,0,0,0,167.07,278.06Z"/><g class="cls-1"><path class="cls-24" d="M157.73,240.25,146.49,234a3.34,3.34,0,0,0-3.32.31,10.32,10.32,0,0,0-4.73,8.13,3.29,3.29,0,0,0,1.4,3.06l11.23,6.3a3.31,3.31,0,0,1-1.4-3.06,10.35,10.35,0,0,1,4.73-8.13A3.35,3.35,0,0,1,157.73,240.25Z"/><path class="cls-11" d="M159.13,243.31c0-3-2.12-4.23-4.73-2.75a10.35,10.35,0,0,0-4.73,8.13c0,3,2.12,4.22,4.73,2.74A10.33,10.33,0,0,0,159.13,243.31Z"/></g><path class="cls-13" d="M157.48,244c.11-2-1.18-2.77-2.88-1.67a8.13,8.13,0,0,0-3.3,5.66c-.11,2,1.17,2.77,2.88,1.67A8.15,8.15,0,0,0,157.48,244Z"/><path class="cls-4" d="M157.48,244c.11-2-1.18-2.77-2.88-1.67a8.13,8.13,0,0,0-3.3,5.66c-.11,2,1.17,2.77,2.88,1.67A8.15,8.15,0,0,0,157.48,244Z"/><path class="cls-4" d="M165.69,279.72H175V267c0-8.18-5.59-17.79-12.74-21.88L156.7,242,152,250l5.57,3.09c4.3,2.47,8.08,9,8.08,13.88Z"/><path class="cls-27" d="M165.69,271.65a2.31,2.31,0,0,0,1.36,1.9,7.35,7.35,0,0,0,6.59,0,2.32,2.32,0,0,0,1.37-1.9v2.78a2.31,2.31,0,0,1-1.37,1.89,7.35,7.35,0,0,1-6.59,0,2.3,2.3,0,0,1-1.36-1.89Z"/><g class="cls-1"><polygon class="cls-2" points="737.05 498.47 737.01 512.11 461.61 670.76 461.65 657.12 737.05 498.47"/><polygon class="cls-3" points="461.65 657.12 461.61 670.76 230.81 538.67 230.85 525.03 461.65 657.12"/><polygon class="cls-4" points="737.05 511.75 737.01 525.39 461.61 684.04 461.65 670.4 737.05 511.75"/><polygon class="cls-5" points="461.65 670.4 461.61 684.04 230.81 551.95 230.85 538.31 461.65 670.4"/><polygon class="cls-6" points="737.05 498.47 461.65 657.12 230.85 525.03 506.25 366.38 737.05 498.47"/></g><g class="cls-1"><path class="cls-4" d="M314.54,510.89v2.58c0,1.6,1.07,3.2,3.19,4.42a17.2,17.2,0,0,0,15.5,0c2.16-1.24,3.24-2.86,3.23-4.48v-2.59c0,1.62-1.08,3.25-3.24,4.49a17.26,17.26,0,0,1-15.5,0C315.6,514.08,314.54,512.49,314.54,510.89Z"/><path class="cls-7" d="M317.77,506.41c-4.29,2.45-4.31,6.44,0,8.9a17.26,17.26,0,0,0,15.5,0c4.3-2.46,4.32-6.45,0-8.9S322.07,504,317.77,506.41Z"/></g><path class="cls-24" d="M320.14,508.16c-3,1.49-3,3.92,0,5.42a13.61,13.61,0,0,0,10.8,0c3-1.5,3-3.92,0-5.42A13.52,13.52,0,0,0,320.14,508.16Z"/><path class="cls-24" d="M333.14,510.87H317.88V471.94c0-8.57,3.45-15.45,9.45-18.89s13.74-2.94,21.22,1.34l28.84,16.5L369.76,484l-28.83-16.5c-3.07-1.75-5.13-1.82-6-1.33s-1.82,2.28-1.82,5.79Z"/><g class="cls-1"><path class="cls-4" d="M357.24,544.18v4.55c0,2.82,1.87,5.64,5.61,7.79,7.51,4.33,19.73,4.32,27.29,0,3.81-2.18,5.71-5,5.7-7.89v-4.56c0,2.85-1.89,5.71-5.7,7.89-7.56,4.33-19.78,4.33-27.3,0C359.11,549.81,357.24,547,357.24,544.18Z"/><path class="cls-11" d="M362.93,536.29c-7.56,4.32-7.6,11.34-.09,15.67s19.74,4.33,27.3,0,7.61-11.34.09-15.67S370.5,532,362.93,536.29Z"/></g><path class="cls-7" d="M367.1,539.38c-5.27,2.63-5.29,6.9-.06,9.54s13.75,2.63,19,0,5.3-6.91.06-9.54S372.37,536.74,367.1,539.38Z"/><path class="cls-7" d="M390,544.15V487.84l-26.05-14.91a50.65,50.65,0,0,0-.81,8.79v62.43Z"/><g class="cls-1"><path class="cls-4" d="M398.17,482.77l0,9.06c0,3.15-2.1,6.31-6.28,8.71-8.42,4.86-22.11,4.85-30.58,0-4.26-2.44-6.39-5.64-6.38-8.84v-9.05c0,3.2,2.12,6.4,6.39,8.84,8.47,4.84,22.16,4.85,30.58,0C396.07,489.08,398.16,485.93,398.17,482.77Z"/><path class="cls-19" d="M391.79,473.93c8.46,4.85,8.51,12.71.1,17.56s-22.11,4.84-30.58,0-8.52-12.71-.1-17.56S383.31,469.08,391.79,473.93Z"/></g><polygon class="cls-19" points="398.17 484.86 355.26 484.86 332.13 422.68 420.95 422.68 398.17 484.86"/><g class="cls-1"><path class="cls-11" d="M421.25,362.29l0,57.63c0,6.52-4.34,13-13,18-17.41,10-45.71,10-63.21,0-8.82-5.05-13.23-11.67-13.21-18.28l0-57.63c0,6.61,4.39,13.23,13.21,18.28,17.5,10,45.8,10,63.21,0C416.91,375.33,421.23,368.81,421.25,362.29Z"/></g><g class="cls-1"><path class="cls-4" d="M426.79,369.18l0,5.93c0,7.33-4.88,14.66-14.59,20.25-19.57,11.27-51.38,11.26-71.06,0-9.91-5.67-14.86-13.11-14.84-20.54l0-5.93c0,7.43,4.93,14.87,14.84,20.54,19.67,11.26,51.48,11.27,71.05,0C421.9,383.84,426.76,376.51,426.79,369.18Z"/><path class="cls-11" d="M412,348.63c19.68,11.27,19.78,29.54.23,40.8s-51.38,11.26-71.05,0-19.8-29.52-.23-40.8S392.26,337.36,412,348.63Z"/></g><g class="cls-1"><path class="cls-4" d="M426.79,362.18l0,5.93c0,7.33-4.88,14.66-14.59,20.25-19.57,11.28-51.38,11.26-71.06,0-9.91-5.67-14.86-13.11-14.84-20.54l0-5.93c0,7.43,4.93,14.87,14.84,20.54,19.67,11.26,51.48,11.28,71.05,0C421.9,376.84,426.76,369.51,426.79,362.18Z"/><ellipse class="cls-7" cx="376.55" cy="362.03" rx="28.85" ry="50.24" transform="translate(13.47 737.57) rotate(-89.84)"/></g><path class="cls-11" d="M419,356.81c0,6.2-4.12,12.39-12.34,17.11-16.53,9.53-43.42,9.53-60.05,0-7.83-4.46-12-10.27-12.5-16.14,0-.36,0-.74,0-1.09a42.47,42.47,0,0,1,84.93.12Z"/><g class="cls-1"><path class="cls-4" d="M392.16,314.74v3.69c0,2.28-1.51,4.56-4.54,6.3-6.09,3.51-16,3.51-22.11,0-3.08-1.76-4.62-4.08-4.62-6.39l0-3.69c0,2.31,1.53,4.63,4.61,6.39,6.13,3.51,16,3.51,22.11,0C390.65,319.3,392.16,317,392.16,314.74Z"/><path class="cls-11" d="M387.55,308.35c6.12,3.5,6.16,9.19.07,12.69s-16,3.51-22.11,0-6.16-9.18-.07-12.69S381.42,304.84,387.55,308.35Z"/></g><path class="cls-28" d="M347.79,367.2c0-12.59,2-23,5.45-31.27,1.5-3.63-3.32-6.49-5.87-3.49a37.34,37.34,0,0,0-8.94,24.13c0,4.72,3.3,9.29,9.34,13Z"/><g class="cls-1"><path class="cls-4" d="M476,506.06v2.22c0,1.37-.91,2.74-2.73,3.79a14.74,14.74,0,0,1-13.29,0c-1.86-1.06-2.78-2.45-2.78-3.84V506c0,1.39.92,2.78,2.77,3.84a14.76,14.76,0,0,0,13.3,0C475.12,508.8,476,507.43,476,506.06Z"/><path class="cls-11" d="M473.26,502.22c3.68,2.1,3.7,5.52,0,7.63a14.76,14.76,0,0,1-13.3,0c-3.68-2.11-3.7-5.52,0-7.63A14.76,14.76,0,0,1,473.26,502.22Z"/></g><path class="cls-13" d="M471.23,503.72c2.56,1.28,2.57,3.37,0,4.65a11.67,11.67,0,0,1-9.27,0c-2.57-1.29-2.58-3.36,0-4.65A11.67,11.67,0,0,1,471.23,503.72Z"/><path class="cls-4" d="M471.23,503.72c2.56,1.28,2.57,3.37,0,4.65a11.67,11.67,0,0,1-9.27,0c-2.57-1.29-2.58-3.36,0-4.65A11.67,11.67,0,0,1,471.23,503.72Z"/><rect class="cls-4" x="460.06" y="229.77" width="13.1" height="276.27"/><path class="cls-27" d="M473.16,494.71a3.23,3.23,0,0,1-1.9,2.66,10.29,10.29,0,0,1-9.27,0,3.26,3.26,0,0,1-1.93-2.66v3.9a3.26,3.26,0,0,0,1.93,2.66,10.29,10.29,0,0,0,9.27,0,3.24,3.24,0,0,0,1.9-2.66Z"/><path class="cls-13" d="M524.44,188.71c-.16-2.84,1.65-3.9,4-2.35a11.4,11.4,0,0,1,4.63,7.95c.17,2.85-1.64,3.9-4,2.35A11.39,11.39,0,0,1,524.44,188.71Z"/><path class="cls-4" d="M524.44,188.71c-.16-2.84,1.65-3.9,4-2.35a11.4,11.4,0,0,1,4.63,7.95c.17,2.85-1.64,3.9-4,2.35A11.39,11.39,0,0,1,524.44,188.71Z"/><polygon class="cls-4" points="470.52 231.57 532.08 197.12 525.52 185.88 470.52 216.63 470.52 231.57"/><g class="cls-1"><path class="cls-4" d="M385.85,311.79V314c0,1.37-.91,2.75-2.73,3.79a14.74,14.74,0,0,1-13.29,0C368,316.74,367,315.35,367,314v-2.22c0,1.39.92,2.78,2.77,3.84a14.76,14.76,0,0,0,13.3,0C384.94,314.54,385.84,313.17,385.85,311.79Z"/><path class="cls-11" d="M383.07,308c3.69,2.11,3.71,5.53.05,7.63a14.76,14.76,0,0,1-13.3,0c-3.68-2.11-3.7-5.52,0-7.63A14.74,14.74,0,0,1,383.07,308Z"/></g><path class="cls-4" d="M381,309.45c2.57,1.29,2.58,3.37,0,4.65a11.65,11.65,0,0,1-9.26,0c-2.57-1.28-2.58-3.36,0-4.65A11.65,11.65,0,0,1,381,309.45Z"/><path class="cls-4" d="M381,309.45c2.57,1.29,2.58,3.37,0,4.65a11.65,11.65,0,0,1-9.26,0c-2.57-1.28-2.58-3.36,0-4.65A11.65,11.65,0,0,1,381,309.45Z"/><g class="cls-1"><path class="cls-24" d="M452.25,223.55,468,214.69c1.2-.68,2.86-.59,4.68.45a14.51,14.51,0,0,1,6.65,11.41c0,2.13-.76,3.62-2,4.31l-15.79,8.85c1.21-.69,2-2.18,2-4.3A14.5,14.5,0,0,0,456.93,224C455.1,223,453.45,222.86,452.25,223.55Z"/><path class="cls-11" d="M450.28,227.85c0-4.22,3-5.94,6.65-3.86a14.5,14.5,0,0,1,6.64,11.42c0,4.22-3,5.94-6.64,3.85A14.48,14.48,0,0,1,450.28,227.85Z"/></g><path class="cls-13" d="M452.61,228.84c-.16-2.84,1.65-3.9,4-2.35a11.45,11.45,0,0,1,4.64,7.95c.16,2.85-1.65,3.9-4.05,2.35A11.39,11.39,0,0,1,452.61,228.84Z"/><path class="cls-4" d="M452.61,228.84c-.16-2.84,1.65-3.9,4-2.35a11.45,11.45,0,0,1,4.64,7.95c.16,2.85-1.65,3.9-4.05,2.35A11.39,11.39,0,0,1,452.61,228.84Z"/><path class="cls-4" d="M383,311.78H369.87V293.87c0-11.5,7.87-25,17.92-30.76l65.9-37.1,6.56,11.24-65.91,37.11c-6.06,3.46-11.36,12.58-11.36,19.5Z"/><path class="cls-27" d="M383,300.44a3.21,3.21,0,0,1-1.91,2.66,10.27,10.27,0,0,1-9.26,0,3.28,3.28,0,0,1-1.94-2.66v3.9a3.28,3.28,0,0,0,1.94,2.66,10.27,10.27,0,0,0,9.26,0,3.22,3.22,0,0,0,1.91-2.66Z"/><g class="cls-1"><path class="cls-4" d="M435,590.4v2.45c0,1.51,1,3,3,4.18a16.33,16.33,0,0,0,14.67,0c2-1.17,3.07-2.71,3.07-4.24v-2.45c0,1.53-1,3.07-3.06,4.24a16.3,16.3,0,0,1-14.67,0C436,593.42,435,591.91,435,590.4Z"/><path class="cls-7" d="M438.09,586.16c-4.06,2.32-4.08,6.09,0,8.42a16.3,16.3,0,0,0,14.67,0c4.06-2.33,4.08-6.1,0-8.42A16.27,16.27,0,0,0,438.09,586.16Z"/></g><path class="cls-18" d="M440.34,587.82c-2.83,1.41-2.85,3.71,0,5.12a12.79,12.79,0,0,0,10.22,0c2.84-1.41,2.85-3.71,0-5.12A12.79,12.79,0,0,0,440.34,587.82Z"/><g class="cls-1"><path class="cls-18" d="M413.78,415.61l-2.14-1.22c-1.33-.76-3.15-.65-5.16.49a16,16,0,0,0-7.34,12.6c0,2.34.83,4,2.18,4.75l2.14,1.21c-1.34-.76-2.17-2.4-2.17-4.75a16,16,0,0,1,7.33-12.59C410.63,415,412.45,414.85,413.78,415.61Z"/><path class="cls-4" d="M416,420.35c0-4.65-3.28-6.55-7.33-4.25a16,16,0,0,0-7.33,12.59c0,4.66,3.28,6.56,7.33,4.26A16,16,0,0,0,416,420.35Z"/></g><path class="cls-13" d="M413.38,421.45c.18-3.14-1.82-4.3-4.46-2.59a12.58,12.58,0,0,0-5.11,8.77c-.18,3.14,1.82,4.3,4.46,2.59A12.53,12.53,0,0,0,413.38,421.45Z"/><path class="cls-18" d="M413.38,421.45c.18-3.14-1.82-4.3-4.46-2.59a12.58,12.58,0,0,0-5.11,8.77c-.18,3.14,1.82,4.3,4.46,2.59A12.53,12.53,0,0,0,413.38,421.45Z"/><path class="cls-18" d="M438.2,590.38h14.46V464.1c0-12.68-8.68-27.58-19.76-33.93l-20.71-11.85L405,430.73l20.71,11.85c6.68,3.82,12.53,13.88,12.53,21.52Z"/><g class="cls-1"><polygon class="cls-24" points="639.62 516.47 639.49 529.14 523.4 595.72 523.53 583.04 639.62 516.47"/><polygon class="cls-5" points="523.53 583.04 523.4 595.72 484.87 573.66 484.79 560.87 523.53 583.04"/><polygon class="cls-8" points="639.62 516.47 523.53 583.04 484.79 560.87 601.09 494.41 639.62 516.47"/></g><path class="cls-5" d="M626.78,392l-18.16-10.39-7,4V493.5l-1.25-.71v4.77l2.92,4.54,2.5-1.44V487.24l23.86,13.65v8.65l-2.22-1.27v6.82l3.88,3,2.51-1.43V404.07Zm2.85,104.62L605.77,483V456.68l23.86,13.65Zm0-30.57-23.86-13.65V426.11l23.86,13.65Zm0-30.56-23.86-13.65V395.55l23.85,13.65Zm0-30.57-23.85-13.65V390l4.57-2.62,14.7,8.42,4.58,7.85Z"/><polygon class="cls-17" points="624.28 393.45 606.12 383.06 599.1 387.08 599.1 499.71 603.27 502.1 603.27 391.44 607.85 388.82 622.55 397.24 627.12 405.09 627.12 515.75 631.29 518.13 631.29 405.5 624.28 393.45"/><polygon class="cls-17" points="630.18 504.08 600.21 486.92 600.21 482.67 630.18 499.82 630.18 504.08"/><polygon class="cls-17" points="630.18 473.51 600.21 456.36 600.21 452.1 630.18 469.26 630.18 473.51"/><polygon class="cls-17" points="630.19 442.95 600.21 425.79 600.21 421.54 630.19 438.69 630.19 442.95"/><polygon class="cls-17" points="630.19 412.38 600.21 395.23 600.21 390.97 630.19 408.13 630.19 412.38"/><polygon class="cls-11" points="627.12 495.2 605.77 482.99 603.27 484.42 627.12 498.07 627.12 495.2"/><polygon class="cls-11" points="627.12 464.64 605.77 452.42 603.27 453.85 627.12 467.5 627.12 464.64"/><polygon class="cls-11" points="627.12 434.07 605.77 421.86 603.27 423.29 627.12 436.94 627.12 434.07"/><polygon class="cls-11" points="625.74 402.72 605.77 391.29 603.27 392.72 627.12 406.37 627.12 405.09 625.74 402.72"/><polygon class="cls-11" points="626.78 392.02 608.62 381.63 606.12 383.06 624.28 393.45 626.78 392.02"/><path class="cls-5" d="M566.85,479.31a1.92,1.92,0,0,1-1.05-.31,1.9,1.9,0,0,1-.55-2.63L600,424.19a1.93,1.93,0,0,1,2.65-.54,1.9,1.9,0,0,1,.55,2.64l-34.69,52.17A1.93,1.93,0,0,1,566.85,479.31Z"/><path class="cls-5" d="M601.55,457.71a1.84,1.84,0,0,1-.47-.06l-34.7-8.71a1.9,1.9,0,1,1,.94-3.69L602,454a1.9,1.9,0,0,1-.47,3.75Z"/><path class="cls-5" d="M566.85,448.7a1.92,1.92,0,0,1-1.05-.31,1.9,1.9,0,0,1-.55-2.63L600,393.58a1.92,1.92,0,0,1,2.65-.54,1.89,1.89,0,0,1,.55,2.63l-34.69,52.18A1.93,1.93,0,0,1,566.85,448.7Z"/><path class="cls-5" d="M601.55,427.09a1.84,1.84,0,0,1-.47-.06l-34.7-8.7a1.9,1.9,0,1,1,.94-3.69l34.7,8.71a1.9,1.9,0,0,1-.47,3.74Z"/><path class="cls-5" d="M566.85,509.29a2,2,0,0,1-1.06-.32,1.89,1.89,0,0,1-.53-2.64L600,454.75a1.94,1.94,0,0,1,2.66-.53,1.9,1.9,0,0,1,.53,2.64l-34.69,51.58A1.93,1.93,0,0,1,566.85,509.29Z"/><path class="cls-5" d="M601.55,488.27a2,2,0,0,1-.48-.06l-34.69-8.77a1.89,1.89,0,0,1-1.38-2.31,1.92,1.92,0,0,1,2.33-1.37L602,484.53a1.9,1.9,0,0,1,1.39,2.31A1.93,1.93,0,0,1,601.55,488.27Z"/><path class="cls-5" d="M594.12,493.84a1.92,1.92,0,0,1-1-.31,1.9,1.9,0,0,1-.55-2.64l34.69-52.17a1.93,1.93,0,0,1,2.66-.54,1.89,1.89,0,0,1,.55,2.63L595.72,493A1.91,1.91,0,0,1,594.12,493.84Z"/><path class="cls-5" d="M628.82,472.23a2,2,0,0,1-.48-.06l-34.69-8.71a1.9,1.9,0,0,1-1.39-2.31,1.92,1.92,0,0,1,2.33-1.37l34.7,8.71a1.9,1.9,0,0,1-.47,3.74Z"/><path class="cls-5" d="M594.12,463.23a1.85,1.85,0,0,1-1-.32,1.89,1.89,0,0,1-.55-2.63l34.69-52.17a1.94,1.94,0,0,1,2.66-.55,1.91,1.91,0,0,1,.55,2.64l-34.7,52.17A1.91,1.91,0,0,1,594.12,463.23Z"/><path class="cls-5" d="M628.82,441.62a2,2,0,0,1-.48-.06l-34.69-8.71a1.9,1.9,0,1,1,.94-3.68l34.7,8.7a1.9,1.9,0,0,1-.47,3.75Z"/><path class="cls-5" d="M594.12,523.81a1.9,1.9,0,0,1-1.59-2.95l34.69-51.58a1.93,1.93,0,0,1,2.66-.53,1.88,1.88,0,0,1,.53,2.63L595.72,523A1.93,1.93,0,0,1,594.12,523.81Z"/><path class="cls-5" d="M628.82,502.79a2,2,0,0,1-.48-.05L593.65,494a1.9,1.9,0,0,1-1.39-2.31,1.94,1.94,0,0,1,2.34-1.38l34.69,8.77a1.9,1.9,0,0,1-.47,3.74Z"/><path class="cls-5" d="M589,413.63l-18.16-10.39-7,4V515.11l-1.25-.71v4.77l2.91,4.53,2.51-1.43V508.85l23.85,13.65v8.65l-2.22-1.27v6.82l3.89,3,2.5-1.43V425.68Zm2.85,104.62L568,504.6V478.29l23.85,13.65Zm0-30.57L568,474V447.72l23.85,13.65Zm0-30.56L568,443.47V417.16l23.85,13.65Zm0-30.57L568,412.9v-1.28l4.57-2.62,14.71,8.42,4.57,7.85Z"/><polygon class="cls-17" points="586.52 415.06 568.36 404.67 561.34 408.69 561.34 521.32 565.51 523.71 565.51 413.05 570.09 410.43 584.79 418.85 589.37 426.7 589.37 537.36 593.53 539.74 593.54 427.11 586.52 415.06"/><polygon class="cls-17" points="592.43 525.69 562.45 508.53 562.45 504.27 592.43 521.43 592.43 525.69"/><polygon class="cls-17" points="592.43 495.12 562.45 477.97 562.45 473.71 592.43 490.87 592.43 495.12"/><polygon class="cls-17" points="592.43 464.56 562.45 447.4 562.45 443.15 592.43 460.3 592.43 464.56"/><polygon class="cls-17" points="592.43 433.99 562.45 416.84 562.45 412.58 592.43 429.74 592.43 433.99"/><polygon class="cls-11" points="589.37 516.81 568.02 504.6 565.51 506.03 589.37 519.68 589.37 516.81"/><polygon class="cls-11" points="589.37 486.25 568.02 474.03 565.51 475.46 589.37 489.11 589.37 486.25"/><polygon class="cls-11" points="589.37 455.69 568.02 443.47 565.51 444.9 589.37 458.55 589.37 455.69"/><polygon class="cls-11" points="587.99 424.33 568.02 412.9 565.51 414.33 589.37 427.98 589.37 426.7 587.99 424.33"/><polygon class="cls-11" points="589.02 413.63 570.86 403.24 568.36 404.67 586.52 415.06 589.02 413.63"/><g class="cls-1"><path class="cls-17" d="M643.58,403l0,10.86c0,6.71-4.47,13.42-13.36,18.54-17.91,10.32-47,10.31-65.05,0-9.07-5.19-13.6-12-13.58-18.8l0-10.86c0,6.8,4.51,13.61,13.58,18.8,18,10.31,47.14,10.32,65.05,0C639.11,416.46,643.56,409.76,643.58,403Z"/><path class="cls-7" d="M630,384.23c18,10.31,18.11,27,.21,37.35s-47,10.31-65.05,0-18.12-27-.21-37.35S612,373.91,630,384.23Z"/></g><path class="cls-18" d="M558.71,366.79a38.88,38.88,0,1,0,39-38.43A38.7,38.7,0,0,0,558.71,366.79Z"/><g class="cls-1"><path class="cls-11" d="M636.46,367l0,31.14c0,5.67-3.78,11.34-11.29,15.67-15.14,8.72-39.75,8.71-55,0-7.67-4.39-11.5-10.15-11.49-15.89l0-31.14c0,5.74,3.81,11.5,11.48,15.89,15.23,8.71,39.84,8.72,55,0C632.68,378.35,636.44,372.68,636.46,367Z"/></g><path class="cls-15" d="M636.43,366.79c0,5.71-3.73,11.42-11.29,15.78-15.14,8.72-39.75,8.71-55,0-7.62-4.36-11.45-10.07-11.48-15.78v11.73c0,5.71,3.87,11.42,11.49,15.78,15.22,8.72,39.83,8.72,55,0,7.56-4.35,11.32-10.07,11.29-15.78Z"/><path class="cls-15" d="M636.43,382.25c0,5.72-3.73,11.43-11.29,15.79-15.14,8.72-39.75,8.71-55,0-7.62-4.36-11.45-10.07-11.48-15.79v4.17c0,5.71,3.87,11.42,11.49,15.78,15.22,8.71,39.83,8.72,55,0,7.56-4.36,11.32-10.07,11.29-15.78Z"/><g class="cls-1"><path class="cls-4" d="M611.89,331.34v3.38c0,2.09-1.39,4.18-4.16,5.77-5.57,3.21-14.64,3.21-20.24,0-2.82-1.62-4.23-3.73-4.23-5.85v-3.38c0,2.12,1.41,4.24,4.23,5.85,5.6,3.21,14.67,3.21,20.24,0C610.5,335.52,611.88,333.43,611.89,331.34Z"/><path class="cls-19" d="M607.66,325.49c5.61,3.21,5.64,8.41.07,11.62s-14.64,3.21-20.24,0-5.64-8.41-.07-11.62S602.05,322.28,607.66,325.49Z"/></g><path class="cls-5" d="M557.21,431.44,539.05,421l-7,4V532.92l-1.25-.72V537l2.91,4.53,2.51-1.43V526.66l23.85,13.65V549l-2.22-1.26v6.82l3.89,3,2.5-1.44V443.48Zm2.85,104.61L536.21,522.4V496.09l23.85,13.65Zm0-30.56-23.85-13.66v-26.3l23.85,13.65Zm0-30.57-23.85-13.65V435l23.85,13.65Zm0-30.56-23.85-13.65v-1.29l4.57-2.61,14.71,8.41,4.57,7.85Z"/><polygon class="cls-17" points="554.71 432.87 536.55 422.48 529.53 426.49 529.53 539.12 533.7 541.51 533.71 430.86 538.28 428.24 552.98 436.65 557.56 444.5 557.55 555.16 561.73 557.55 561.73 444.92 554.71 432.87"/><polygon class="cls-17" points="560.62 543.49 530.64 526.34 530.64 522.08 560.62 539.23 560.62 543.49"/><polygon class="cls-17" points="560.62 512.93 530.64 495.77 530.64 491.51 560.62 508.67 560.62 512.93"/><polygon class="cls-17" points="560.62 482.36 530.64 465.21 530.64 460.95 560.62 478.11 560.62 482.36"/><polygon class="cls-17" points="560.62 451.8 530.64 434.64 530.64 430.38 560.62 447.54 560.62 451.8"/><polygon class="cls-11" points="557.55 534.62 536.21 522.4 533.7 523.83 557.55 537.48 557.55 534.62"/><polygon class="cls-11" points="557.55 504.05 536.21 491.83 533.7 493.27 557.55 506.92 557.55 504.05"/><polygon class="cls-11" points="557.55 473.49 536.21 461.27 533.7 462.7 557.55 476.35 557.55 473.49"/><polygon class="cls-11" points="556.17 442.13 536.21 430.71 533.71 432.14 557.56 445.79 557.56 444.5 556.17 442.13"/><polygon class="cls-11" points="557.21 431.44 539.05 421.04 536.55 422.48 554.71 432.87 557.21 431.44"/><path class="cls-5" d="M497.28,518.73a1.91,1.91,0,0,1-1.59-3l34.69-52.17a1.92,1.92,0,0,1,2.65-.54,1.89,1.89,0,0,1,.55,2.63l-34.69,52.17A1.92,1.92,0,0,1,497.28,518.73Z"/><path class="cls-5" d="M532,497.12a1.89,1.89,0,0,1-.47-.06l-34.7-8.71a1.9,1.9,0,1,1,.95-3.68l34.69,8.71a1.9,1.9,0,0,1-.47,3.74Z"/><path class="cls-5" d="M497.28,488.12a1.91,1.91,0,0,1-1.59-2.95L530.38,433a1.93,1.93,0,0,1,2.65-.55,1.9,1.9,0,0,1,.55,2.64l-34.69,52.17A1.92,1.92,0,0,1,497.28,488.12Z"/><path class="cls-5" d="M532,466.51a1.89,1.89,0,0,1-.47-.06l-34.7-8.71a1.9,1.9,0,1,1,.95-3.68l34.69,8.7a1.9,1.9,0,0,1,1.39,2.31A1.92,1.92,0,0,1,532,466.51Z"/><path class="cls-5" d="M497.28,548.7a1.9,1.9,0,0,1-1.06-.32,1.88,1.88,0,0,1-.53-2.63l34.69-51.59a1.93,1.93,0,0,1,2.66-.52,1.88,1.88,0,0,1,.53,2.63l-34.69,51.58A1.93,1.93,0,0,1,497.28,548.7Z"/><path class="cls-5" d="M532,527.68a1.83,1.83,0,0,1-.47,0l-34.7-8.77a1.91,1.91,0,0,1-1.38-2.31,1.92,1.92,0,0,1,2.33-1.38l34.69,8.77a1.9,1.9,0,0,1-.47,3.74Z"/><path class="cls-5" d="M524.55,533.25a1.92,1.92,0,0,1-1-.31,1.89,1.89,0,0,1-.55-2.63l34.7-52.18a1.92,1.92,0,0,1,2.65-.54,1.9,1.9,0,0,1,.55,2.63l-34.7,52.18A1.91,1.91,0,0,1,524.55,533.25Z"/><path class="cls-5" d="M559.25,511.64a1.84,1.84,0,0,1-.47-.06l-34.7-8.7a1.9,1.9,0,1,1,.94-3.69l34.7,8.71a1.9,1.9,0,0,1-.47,3.74Z"/><path class="cls-5" d="M524.55,502.64a1.92,1.92,0,0,1-1-.31,1.9,1.9,0,0,1-.55-2.64l34.7-52.17a1.92,1.92,0,0,1,2.65-.54,1.9,1.9,0,0,1,.55,2.63l-34.7,52.18A1.91,1.91,0,0,1,524.55,502.64Z"/><path class="cls-5" d="M559.25,481a1.84,1.84,0,0,1-.47-.06l-34.7-8.71a1.9,1.9,0,0,1-1.39-2.31,1.92,1.92,0,0,1,2.33-1.37l34.7,8.71a1.9,1.9,0,0,1-.47,3.74Z"/><path class="cls-5" d="M524.55,563.22a2,2,0,0,1-1.06-.31,1.9,1.9,0,0,1-.53-2.64l34.69-51.58a1.94,1.94,0,0,1,2.66-.53,1.89,1.89,0,0,1,.53,2.64l-34.69,51.58A1.92,1.92,0,0,1,524.55,563.22Z"/><path class="cls-5" d="M559.25,542.21a2,2,0,0,1-.48-.06l-34.69-8.77a1.9,1.9,0,0,1-1.39-2.31A1.93,1.93,0,0,1,525,529.7l34.69,8.77a1.88,1.88,0,0,1,1.38,2.31A1.91,1.91,0,0,1,559.25,542.21Z"/><path class="cls-5" d="M519.45,453.05l-18.16-10.4-7,4V554.53l-1.25-.72v4.77l2.91,4.54,2.51-1.43V548.27l23.85,13.65v8.64l-2.21-1.26v6.82l3.88,3,2.5-1.44V465.09Zm2.85,104.61L498.45,544V517.7l23.85,13.65Zm0-30.57-23.85-13.65v-26.3l23.85,13.65Zm0-30.56-23.85-13.65V456.57l23.85,13.65Zm0-30.56-23.85-13.65V451l4.57-2.62,14.71,8.42,4.57,7.85Z"/><polygon class="cls-17" points="516.95 454.48 498.79 444.08 491.78 448.1 491.77 560.73 495.94 563.12 495.95 452.46 500.52 449.85 515.23 458.26 519.8 466.11 519.8 576.77 523.97 579.15 523.97 466.52 516.95 454.48"/><polygon class="cls-17" points="522.86 565.1 492.88 547.95 492.88 543.69 522.86 560.84 522.86 565.1"/><polygon class="cls-17" points="522.86 534.54 492.88 517.38 492.88 513.12 522.86 530.28 522.86 534.54"/><polygon class="cls-17" points="522.86 503.97 492.88 486.82 492.88 482.56 522.86 499.71 522.86 503.97"/><polygon class="cls-17" points="522.86 473.41 492.88 456.25 492.88 452 522.86 469.15 522.86 473.41"/><polygon class="cls-11" points="519.8 556.23 498.45 544.01 495.94 545.44 519.8 559.09 519.8 556.23"/><polygon class="cls-11" points="519.8 525.66 498.45 513.45 495.94 514.88 519.8 528.53 519.8 525.66"/><polygon class="cls-11" points="519.8 495.1 498.45 482.88 495.95 484.31 519.8 497.96 519.8 495.1"/><polygon class="cls-11" points="518.42 463.74 498.45 452.31 495.95 453.75 519.8 467.4 519.8 466.11 518.42 463.74"/><polygon class="cls-11" points="519.46 453.05 501.29 442.65 498.79 444.08 516.95 454.48 519.46 453.05"/><g class="cls-1"><path class="cls-17" d="M574,442.45l0,10.86c0,6.72-4.47,13.42-13.36,18.54-17.91,10.32-47,10.31-65.05,0-9.07-5.19-13.6-12-13.58-18.8l0-10.86c0,6.8,4.51,13.62,13.58,18.81,18,10.31,47.14,10.32,65,0C569.55,455.88,574,449.17,574,442.45Z"/><path class="cls-7" d="M560.44,423.65c18,10.31,18.11,27,.21,37.35s-47,10.31-65,0-18.12-27-.21-37.35S542.41,413.33,560.44,423.65Z"/></g><path class="cls-18" d="M489.14,406.2a38.88,38.88,0,1,0,39-38.42A38.7,38.7,0,0,0,489.14,406.2Z"/><g class="cls-1"><path class="cls-11" d="M566.89,406.42l0,31.14c0,5.67-3.78,11.34-11.29,15.67-15.14,8.72-39.75,8.71-55,0-7.67-4.39-11.5-10.14-11.48-15.89l0-31.14c0,5.75,3.82,11.5,11.48,15.89,15.23,8.71,39.84,8.72,55,0C563.11,417.76,566.87,412.1,566.89,406.42Z"/></g><path class="cls-9" d="M566.86,406.2c0,5.71-3.73,11.43-11.29,15.78-15.14,8.72-39.75,8.71-55,0-7.62-4.36-11.45-10.07-11.48-15.78v11.73c0,5.72,3.86,11.43,11.48,15.79,15.22,8.71,39.83,8.72,55,0,7.56-4.36,11.32-10.07,11.29-15.79Z"/><path class="cls-9" d="M566.86,421.67c0,5.71-3.73,11.42-11.29,15.78-15.14,8.72-39.75,8.71-55,0-7.62-4.36-11.45-10.07-11.48-15.78v4.16c0,5.71,3.86,11.42,11.48,15.78,15.22,8.72,39.83,8.73,55,0,7.56-4.35,11.32-10.06,11.29-15.78Z"/><g class="cls-1"><path class="cls-4" d="M542.32,370.75v3.38c0,2.09-1.39,4.18-4.16,5.77-5.57,3.22-14.63,3.21-20.24,0-2.82-1.61-4.23-3.73-4.23-5.85v-3.38c0,2.12,1.41,4.24,4.23,5.86,5.61,3.2,14.67,3.21,20.24,0C540.93,374.93,542.31,372.85,542.32,370.75Z"/><path class="cls-19" d="M538.1,364.9c5.6,3.21,5.63,8.42.06,11.63s-14.63,3.2-20.24,0-5.64-8.42-.07-11.63S532.49,361.69,538.1,364.9Z"/></g><path class="cls-4" d="M567.79,304.26V319.2l14.48-8.11a6,6,0,0,1,9,5.19v14.56h13.1V315.05c0-14-15.18-22.75-27.45-15.88Z"/><g class="cls-1"><path class="cls-4" d="M537.32,368.9v2.22c0,1.37-.92,2.74-2.73,3.79a14.76,14.76,0,0,1-13.3,0c-1.85-1.06-2.78-2.45-2.78-3.84v-2.22c0,1.39.92,2.78,2.78,3.84a14.74,14.74,0,0,0,13.29,0C536.41,371.65,537.32,370.28,537.32,368.9Z"/><path class="cls-11" d="M534.55,365.06c3.68,2.11,3.7,5.53,0,7.63a14.74,14.74,0,0,1-13.29,0c-3.69-2.11-3.71-5.52,0-7.63A14.76,14.76,0,0,1,534.55,365.06Z"/></g><path class="cls-4" d="M532.52,366.56c2.56,1.29,2.58,3.37,0,4.65a11.67,11.67,0,0,1-9.27,0c-2.56-1.28-2.58-3.36,0-4.65A11.67,11.67,0,0,1,532.52,366.56Z"/><path class="cls-4" d="M532.52,366.56c2.56,1.29,2.58,3.37,0,4.65a11.67,11.67,0,0,1-9.27,0c-2.56-1.28-2.58-3.36,0-4.65A11.67,11.67,0,0,1,532.52,366.56Z"/><g class="cls-1"><path class="cls-24" d="M548.07,311.76l15.8-8.86c1.2-.68,2.85-.58,4.67.45a14.49,14.49,0,0,1,6.65,11.42c0,2.12-.75,3.61-2,4.3l-15.79,8.86c1.22-.69,2-2.19,2-4.31a14.49,14.49,0,0,0-6.65-11.41C550.93,311.17,549.28,311.08,548.07,311.76Z"/><path class="cls-11" d="M546.1,316.06c0-4.21,3-5.94,6.65-3.85a14.49,14.49,0,0,1,6.65,11.41c0,4.22-3,5.94-6.65,3.86A14.51,14.51,0,0,1,546.1,316.06Z"/></g><path class="cls-13" d="M548.43,317.05c-.16-2.84,1.65-3.89,4.05-2.35a11.4,11.4,0,0,1,4.63,8c.16,2.84-1.65,3.89-4,2.35A11.45,11.45,0,0,1,548.43,317.05Z"/><path class="cls-4" d="M548.43,317.05c-.16-2.84,1.65-3.89,4.05-2.35a11.4,11.4,0,0,1,4.63,8c.16,2.84-1.65,3.89-4,2.35A11.45,11.45,0,0,1,548.43,317.05Z"/><path class="cls-4" d="M534.45,368.89h-13.1V351c0-11.49,7.87-25,17.91-30.75l10.26-6,6.55,11.25-10.26,6c-6,3.46-11.36,12.58-11.36,19.5Z"/><path class="cls-27" d="M534.45,357.55a3.21,3.21,0,0,1-1.9,2.66,10.29,10.29,0,0,1-9.27,0,3.27,3.27,0,0,1-1.93-2.66v3.9a3.28,3.28,0,0,0,1.93,2.66,10.29,10.29,0,0,0,9.27,0,3.21,3.21,0,0,0,1.9-2.66Z"/><path class="cls-4" d="M552.28,309.67c3.06-3.27,5.55,1.65,8.45,3.26,2.47,1.37,4.83-1.51,4.65-6.17V296.12c0-11.5-7.87-25-17.91-30.76L475,224.74c-6.48-4-10.22,2.88-6.55,11.25l72.46,40.62c6.05,3.47,11.36,12.58,11.36,21.68Z"/><path class="cls-4" d="M602.4,328.51c2.57,1.29,2.58,3.37,0,4.65a11.67,11.67,0,0,1-9.27,0c-2.57-1.28-2.58-3.36,0-4.65A11.65,11.65,0,0,1,602.4,328.51Z"/><path class="cls-4" d="M602.4,328.51c2.57,1.29,2.58,3.37,0,4.65a11.67,11.67,0,0,1-9.27,0c-2.57-1.28-2.58-3.36,0-4.65A11.65,11.65,0,0,1,602.4,328.51Z"/></g></g></svg>