<svg xmlns="http://www.w3.org/2000/svg" viewBox="0 0 450.85 628.39"><defs><style>.cls-1{isolation:isolate;}.cls-2{fill:#fbbba0;}.cls-3{fill:#fdccaa;}.cls-4{fill:#f09981;}.cls-16,.cls-5{fill:#fff;}.cls-5{fill-rule:evenodd;}.cls-6{fill:#de9b6d;}.cls-7{fill:#bbb9c7;mix-blend-mode:multiply;}.cls-17,.cls-35,.cls-38,.cls-7{opacity:0.3;}.cls-8,.cls-9{fill:#9895a9;mix-blend-mode:darken;}.cls-31,.cls-9{opacity:0.5;}.cls-10{fill:#363f46;}.cls-11{fill:#697d88;}.cls-12{fill:#fffef3;}.cls-13{fill:none;stroke:#2b2b27;stroke-linecap:round;stroke-miterlimit:10;stroke-width:6.06px;}.cls-14{fill:#626a74;}.cls-15{fill:#95b63d;}.cls-17,.cls-22,.cls-30{fill:#010101;}.cls-18{fill:#537fa2;}.cls-19{fill:#a7a6a6;}.cls-20{fill:#575858;}.cls-21{fill:#818181;}.cls-23{fill:#e7edf8;}.cls-24{fill:#b3c4d9;}.cls-25{fill:#7dc684;}.cls-26{fill:#c3d3ed;}.cls-27,.cls-35{fill:#659ec9;}.cls-28{fill:#ffc655;}.cls-29{fill:#f48588;}.cls-30{opacity:0.1;}.cls-31{fill:#dae5f5;}.cls-32{opacity:0.7;}.cls-33{fill:#64b9e8;}.cls-34{fill:#93d2f3;}.cls-36,.cls-38{fill:#2b5f88;}.cls-37{fill:#3587c8;}.cls-39{fill:#333;}</style></defs><title>ordering</title><g class="cls-1"><g id="Layer_2" data-name="Layer 2"><g id="Layer_1-2" data-name="Layer 1"><path class="cls-2" d="M412.31,227.25c-5.19.07-10.34.41-13.88,5.2s-7.69,13.49-7.38,18.38,1.8,12.91,4,15.38,14.79,20.94,29.08,19.24,19.74-11.09,19.84-17.12a48.22,48.22,0,0,0-3.25-18.2,57.36,57.36,0,0,0-10.8-17.61c-3.57-3.76-6.33-6.88-9.42-7.61s-9,.25-8.6,1.29Z"/><path class="cls-3" d="M437.37,242.73c-1-1.79-6.29-6.47-11.21-7-5.37-.59-5.34,3.37-5.34,3.37.16,1.35,3.59,2.07,8.16,4.23,6.95,3.27,15.3,13.77,14.35,26.45a30.79,30.79,0,0,0-1.48-16.52C438.52,244,437.37,242.73,437.37,242.73Z"/><path class="cls-4" d="M443.43,272l-1.36-1.13.09-1.17c.94-12.57-7.43-22.37-13.68-25.31-1.5-.71-2.86-1.25-4.06-1.73-2.85-1.14-4.58-1.83-4.77-3.42v-.13a3.32,3.32,0,0,1,1.34-2.72,5.28,5.28,0,0,1,5.2-1c9.15,2.87,11.33,8,11.33,8l-.59-1c-.8-1.41-6.33-4.92-10.9-5.42a4.21,4.21,0,0,0-3.32.67A2.27,2.27,0,0,0,422,239a19.57,19.57,0,0,0,3.29,1.5c1.23.49,2.63,1.05,4.19,1.79,6.85,3.23,15.23,10.34,15,27.6Z"/><path class="cls-4" d="M442.34,262.81s1.72,12.35-13.45,14.28c-23.58,3-25.4-55.71-5.95-48.69,4.83,1.75,5.92,2.75,9.51,7.08a98.39,98.39,0,0,0-7.39-8.38,21.86,21.86,0,0,0-11.12-6.19c-4.5-.85-10.8.4-10.8.4l-2.58,9-5.45,9.4L393,249.5l1.48,10.22s2.34,8.19,4.48,10.13a44.18,44.18,0,0,1,5.06,5.69c.24.36,4.71,4.09,7.32,6.19h-.73c3.44,3.07,16.65,7.44,27.24-1.6S442.34,262.81,442.34,262.81Z"/><path class="cls-2" d="M377.58,73.69c3.51-1.51,30.05-16.42,44.49-6.77s21.66,37.27-22.77,56.1c-5.81,2.46-10.88,4.55-15.29,6.33"/><path class="cls-4" d="M432.58,82.08a3,3,0,0,0-.11,1c.23,4.58,2.89,8.87-9.39,19.23S401.19,114.41,398,108a1.62,1.62,0,0,0-.1-.18c-6.23-13.86-10.35-34.84-9-39.32-5.7,2.27-10.05,4.6-11.33,5.15l6.28,54.37a32.76,32.76,0,0,0,4.42-.44l3.61-1.49a38.14,38.14,0,0,1,4.19-1.94c.05.09.1.11.14,0a.41.41,0,0,1,.15-.14l.41-.16a5.45,5.45,0,0,1,.74-.14l1.78-.75C428.53,110.64,435.4,94.45,432.58,82.08Z"/><path class="cls-2" d="M379.51,149.58c11.65-6.75,29.5-13.71,47.92-9.47,20.48,4.72,24.91,26.73,23,33.08-3.18,10.69-10.55,20-47.89,28.68s-48.86,7.62-48.86,7.62"/><path class="cls-4" d="M450.45,173.19a18.49,18.49,0,0,0,0-7.71c1.73,11.89-14.09,19.25-30,23.19s-17.17-3.29-19.61-15.29c-1.84-10.75-3.85-28.59,7.53-34h-.22a71.52,71.52,0,0,0-15.91,4.13l-.91.41a17,17,0,0,0-9.44,12.6l7.25,47.26,8.09-.95a10.52,10.52,0,0,0,3.06-.41l2.28-.52C439.9,193.2,447.27,183.88,450.45,173.19Z"/><g id="d8HMMY.tif"><path class="cls-5" d="M187.1,547.2a2.84,2.84,0,0,0,2.14-1.44c.33-.5.75-.93,1.09-1.42a3.36,3.36,0,0,0,.46-.88,3.5,3.5,0,0,0-2.75-4.38c-1.19-.21-2.38-.39-3.58-.54a3.2,3.2,0,0,0-2.69.91,4.75,4.75,0,0,0-.8,1,1,1,0,0,1-1.3.47,13.31,13.31,0,0,1-9.45-7.71.53.53,0,0,1,.08-.65c.28-.32.55-.66.8-1a3.28,3.28,0,0,0,.44-3.25c-.4-1-.83-2.07-1.25-3.11a3.58,3.58,0,0,0-2.07-2,3.19,3.19,0,0,0-3.82,1.05L163,526a2.24,2.24,0,0,0-.48,1.72,20,20,0,0,0,.41,2.44,21.88,21.88,0,0,0,7.46,12.07C175.13,546.06,180.57,547.66,187.1,547.2Z"/><path class="cls-5" d="M187.1,547.2c-6.53.46-12-1.14-16.67-5A21.88,21.88,0,0,1,163,530.11a20,20,0,0,1-.41-2.44A2.4,2.4,0,0,1,163,526c.43-.6.86-1.13,1.36-1.73a3.19,3.19,0,0,1,3.82-1.05,3.58,3.58,0,0,1,2.07,2c.42,1,.85,2.07,1.25,3.11a3.28,3.28,0,0,1-.44,3.25c-.25.35-.52.69-.8,1a.53.53,0,0,0-.08.65,13.31,13.31,0,0,0,9.45,7.71,1,1,0,0,0,1.3-.47,4.75,4.75,0,0,1,.8-1,3.2,3.2,0,0,1,2.69-.91c1.2.15,2.39.33,3.58.54a3.5,3.5,0,0,1,2.75,4.38,16.1,16.1,0,0,1-1.51,2.37A2.83,2.83,0,0,1,187.1,547.2Z"/></g><path class="cls-6" d="M400.22,222.21c-3.51.33-3.43-1.32-4.77.48s-1.36,5.45-1.77,7.32,0,3.37.07,5.19.25,2.88,1.4,2.56a4.79,4.79,0,0,0,2.68-2,38.2,38.2,0,0,0,1.83-3.77,12.59,12.59,0,0,1,1.78-3.4c.8-.92,3.58-2.88,3-4.27s.66-2.08-1.21-2.5A4,4,0,0,0,400.22,222.21Z"/><path class="cls-6" d="M404.59,304.27c1.55,0,6.26-.2,7.53.47s3.6,1.28,3.79,2.45a6.36,6.36,0,0,1,.17,3.28c-.36,1.59,0,2.28-1.16,4s.16,1.35-2.49,5.13-2.43,4.84-3.81,7.1-2.87,3.44-3.27,3.13-4.44-2.85-5.14-4.13-.84-5.55-1-7.17-1.16-6.7-.22-8S404.59,304.27,404.59,304.27Z"/><path class="cls-2" d="M0,533.07c1.13-5.52,37.87-97.32,40.05-102s11.18-21,11.18-21l.72-7.74s-2.23-41.84-1.85-47.9-.05-14.21,2-33.6,7.55-44.64,8.33-49.66,3.76-25.87,4.49-29,3.2-12.14,4.57-14.49,5.33-12.66,8.25-27.23,3-22.78,5.21-32.06,4.16-18,6.59-25.11,9.08-13.39,12-18.65,7.83-12.42,9.91-15.67,4.41-6.54,5.38-9.94,2-13.35,5-22.46,3.45-13.78,4.46-15.3c1.21-1.79,7-3.56,11.74-2.48,2.07.47,8.78,2.51,13.39,13.72s11,49.27,9,62.09-2.75,25.21-7,31.17-7.53,8-8,8.88.74,6.2.74,6.2,3.27,16,2.5,25.68c0,0-1,10.23-1.11,11.34,0,0,4.29-3,6.53-4.88s9.62-8.79,10.9-9.49,2.71-2.51,4-2.94,106,27.06,108.65,35.49,12.72,24.19,21.09,44S314.7,326.33,314,339s-1.93,29.76-1.93,29.76l-2.35,21.6s-7.28,17-7.9,18.71-3.36,3.95-4,5.67-13,19.85-19.32,26.08-9.57,11.52-11.26,13.37-11.18,9.52-20,15.5-13.13,9.21-18.31,13.92-9.06,6.55-12.16,12.66S204.64,507,203.32,512.07s-2,11.15-3.07,15.92S175.87,627,175,628.38,0,533.07,0,533.07Z"/><path class="cls-4" d="M169.09,200.62c-1.32.43-2.74,2.24-4,2.94s-8.67,7.59-10.9,9.49-6.53,4.88-6.53,4.88c.14-1.11,1.11-11.34,1.11-11.34.77-9.66-2.5-25.68-2.5-25.68s-1.18-5.33-.74-6.2,3.76-2.91,8-8.88,4.92-18.35,7-31.17-4.4-50.88-9-62.09a.16.16,0,0,0,0-.07c-2.17,2.2-2.88,9.08-1.06,23.19,7.79,60.47-21.43,78.06-21.43,78.06l10.19,3.09c9.63,19.11,2.6,42.66,2.6,42.66,9.06,3.84,15.79,11.48,21,25.45,0,0,13.59-24.89,21.2-40.78C175.15,201.9,169.39,200.52,169.09,200.62Z"/><path class="cls-4" d="M231.76,221.89c-2.79-5.14-30.32-29.76-30.32-29.76s-19.62,5.3-23.57,6.47-15.26,6.48-17.82,8.83c-4.21,3.87-12.4,10.52-12.4,10.52,5.3,3.2,19,18.52,31.16,107.3s25.34,84.49,30.38,85.53-9.48,5.2,0,7.69c19.09,5,64.53,8.38,67.37,27.73,0,0,14.91-18.35,20-28.5,2.87-4.29,5.31-8.38,6.33-11.22C306.18,397.33,234.56,227,231.76,221.89Z"/><path class="cls-4" d="M145.1,177.52c-2.76.94-23.48-5.62-27.14-6.89,1.49.35,23.94,4.43,26,3.56Z"/><path class="cls-7" d="M407.74,305.81c-.83,2.11-2.67,4-4.26,5.58l1.2,10.12c.62.05,1.24.06,1.7.13a5.94,5.94,0,0,0,3.12-1Z"/><path class="cls-7" d="M398.18,225.28c-.83,2.12-2.67,4-4.26,5.58l1.2,10.13c.62,0,1.24.06,1.7.13a6.11,6.11,0,0,0,3.12-1Z"/><path class="cls-8" d="M390.32,256.2c1.12,6.43,4.07,26.67,14.4,33.83l-1.83-15.45Z"/><path class="cls-9" d="M399.36,332.36c1.12,6.43,4.08,26.68,14.4,33.84l-1.83-15.46Z"/><path class="cls-2" d="M430.49,313.68c3.63,2.85,9.34,3.86,11.34,7.95,5.78,11.82-1.52,21.78-3.36,24.73a31.61,31.61,0,0,1-8.57,8.4c-3,2-9.21,3-11.43,2.72s-9.15-1.1-11.12-3.87-4.73-14.48-6.22-17.85,3.17-17.06,4.66-18.33,16.69-9.09,16.69-9.09Z"/><path class="cls-4" d="M301.19,406.82c-5,10-9.21,14.87-16.4,24.14a3.6,3.6,0,0,0,.1-1.07c-.14-1.22-3.72-3.66-5.08-4.73S249.38,421,249.38,421c10.22,2.07,14.76,6,15.63,11-5.24-6.51-20.15-6.56-20.15-6.56,16.85,3.42,24.09,10.82,13.58,23.7-7.51,10-19.63,20.21-27.29,26.45-13.2,10-25.38,27-28.92,36.27-2.08,5.44-5.38,16.5-4.44,25.93,0,0,3.15-18,10.45-28,8.26-11.25,15.21-16.57,23.12-21.38,5-3,20.65-11.61,35.85-26.72,15-14.93,23.6-24.43,32.37-41.55,2.7-4.24.72-9.48,3.08-14.15Z"/><path class="cls-4" d="M402.21,324.14c1.47-3.73,5.6-5.84,7.33-7.27,2-1.66,5.07-4.69,8.85-5.76A13.06,13.06,0,0,1,429.18,313s-5.39-6.58-9.48-7.33a27.66,27.66,0,0,0-8.25-.39c-2.42.29-1.69-.43-3.06-.45l-.53,2.07.63,5.25a41.85,41.85,0,0,1-3.07,4.51C404.92,317,402.21,324.14,402.21,324.14Z"/><path class="cls-4" d="M433.36,352.15c-6.05.27-12.23-3.71-14.24-18.95s-2.95-20.82.48-22.23c2.86-1.18-2.48-3.92-2.48-3.92s-4.34.2-4.8,1.58-5.06,2.41-4.9,7.64-2,1.18-1.9,8.36.67,4.5,1.94,10,2,6.93,2.86,10-.67,4.65,3.11,7.61,3.53,5.73,5.44,5.58A27.39,27.39,0,0,0,429,355.27,25.86,25.86,0,0,0,433.36,352.15Z"/><path class="cls-2" d="M156.92,241c4.62,14.16,25.94,71.29,39.1,122.83,5.19,20.31,11,44.4,13.35,63.77,0,0,1.77,12.38-16.47,6-21.75-7.6-31.93.51-36.6-11.24s-13.51-37.78-17.09-47.19-7.8-45-8.57-51.49,2.4-28.17,7.29-35.32S156.92,241,156.92,241Z"/><path class="cls-4" d="M258.44,449.14c-18.64,21.14-62.55,30.38-76.33,69.46s-33,96.37-33,96.37S174.82,628.7,175,628.38c.86-1.43,24.27-96.07,25.35-100.85s1.65-10.38,3-15.46,10.33-9.7,13.44-15.81,7-7.94,12.16-12.66,9.45-8,18.31-13.92,18.34-13.66,20-15.5,4.89-7.15,11.26-13.37A95.82,95.82,0,0,0,286.7,431c1.69-3.91,3.32-8.89,3.16-8.11C289.14,426.38,273.79,431.74,258.44,449.14Z"/><path class="cls-4" d="M194.47,497.91c19.27-22.15,41.2-32.05,51.76-52.36s-1.92-19.64-10.25-21.49,34.48-3.28,35.73-3,2.84,24,2.84,24l-19.26,22.16s-58.95,36.19-61.14,41.72S194.47,497.91,194.47,497.91Z"/><rect class="cls-10" x="174.79" y="12.34" width="226.32" height="451.99" rx="23.47" transform="translate(-30.56 42.71) rotate(-8.06)"/><path class="cls-11" d="M345.33,3.75A21.77,21.77,0,0,1,369.86,22.2l56.77,401.05a21.76,21.76,0,0,1-18.44,24.53L230.58,472.92a21.77,21.77,0,0,1-24.53-18.44L149.27,53.42A21.76,21.76,0,0,1,167.72,28.9L345.33,3.75m-.49-3.5L167.22,25.39a25.28,25.28,0,0,0-21.45,28.53L202.55,455a25.26,25.26,0,0,0,28.52,21.45l177.62-25.14a25.26,25.26,0,0,0,21.44-28.53l-56.77-401A25.26,25.26,0,0,0,344.84.25Z"/><rect class="cls-12" x="187.28" y="69.59" width="199.21" height="322.32" rx="5.89" transform="translate(-29.51 42.49) rotate(-8.06)"/><line class="cls-13" x1="232.95" y1="48.78" x2="288.19" y2="40.96"/><path class="cls-14" d="M299.37,425.48a14.93,14.93,0,1,1,16.87,12.69A14.92,14.92,0,0,1,299.37,425.48Z"/><rect class="cls-15" x="238.07" y="331.38" width="135.93" height="47.53" rx="10.3" transform="translate(-46.76 46.4) rotate(-8.06)"/><path class="cls-16" d="M284.62,350.9a25.79,25.79,0,0,1,4.22-.91,8.28,8.28,0,0,1,4.43.21,3.21,3.21,0,0,1,2.16,2.61,3.34,3.34,0,0,1-2,3.46v.05a3.68,3.68,0,0,1,3.41,3.18,3.92,3.92,0,0,1-1.07,3.31c-.94,1-2.65,1.73-5.56,2.14a26.39,26.39,0,0,1-3.6.29Zm4.06,5.12,1.08-.15c1.74-.24,2.57-1.09,2.41-2.17s-1.08-1.57-2.57-1.36a9.67,9.67,0,0,0-1.4.28Zm.92,6.48a10,10,0,0,0,1.28-.14c1.5-.21,2.74-1,2.52-2.5s-1.61-1.87-3.26-1.64l-1.12.16Z"/><path class="cls-16" d="M304,348l1.19,8.4c.36,2.51,1.49,3.66,3.18,3.42s2.51-1.6,2.15-4.17l-1.19-8.41,3.29-.46,1.16,8.18c.64,4.51-1.33,7-5.14,7.51s-6.14-1.2-6.8-5.86l-1.15-8.14Z"/><path class="cls-16" d="M324,360l-.84-6-5.84-8,3.77-.54,2,3.3c.61,1,1,1.73,1.52,2.63h.05c.19-1,.42-1.85.71-3l1-3.72,3.71-.52-3.61,9.19.87,6.08Z"/><polyline class="cls-17" points="333.86 302.96 342.05 296.56 377.36 310.77 369.17 317.18"/><path class="cls-18" d="M331.75,272.1a5.46,5.46,0,0,1-4.08-4,4,4,0,0,1,.9-4c.75-.66,2.18-1.24,4.76-.22l-.28.7c-1.75-.69-3.13-.66-4,.09a3.23,3.23,0,0,0-.68,3.27,4.74,4.74,0,0,0,3.51,3.49Z"/><path class="cls-19" d="M322.57,277.16l-.2.5a1.68,1.68,0,0,1-.33.83l-.2.5-3.34-1.34h0a.51.51,0,0,1-.26-.42,1.54,1.54,0,0,1,.52-1.3.49.49,0,0,1,.48-.11h0Z"/><path class="cls-20" d="M322.09,277.28a1.54,1.54,0,0,0-.52,1.29c.06.44.4.58.75.3a1.54,1.54,0,0,0,.52-1.29C322.78,277.14,322.44,277,322.09,277.28Z"/><path class="cls-21" d="M322.13,277.54a1,1,0,0,0-.35.87.29.29,0,0,0,.5.2,1.06,1.06,0,0,0,.35-.87A.29.29,0,0,0,322.13,277.54Z"/><path class="cls-20" d="M322.16,277.71h0a.7.7,0,0,1-.24.58h0c0,.19.18.24.33.12a.68.68,0,0,0,.24-.58C322.46,277.66,322.32,277.59,322.16,277.71Z"/><path class="cls-22" d="M322.16,277.71h0a.73.73,0,0,0-.23.59h0a.7.7,0,0,0,.24-.58Z"/><path class="cls-21" d="M320.67,275.41l-.43.07a1.31,1.31,0,0,0-.73.1l-.44.06.18,1.22h0a.39.39,0,0,0,.28.3,1.29,1.29,0,0,0,1.13-.16.42.42,0,0,0,.19-.36h0Z"/><path class="cls-19" d="M320.49,275.77a1.25,1.25,0,0,1-1.14.16c-.33-.13-.38-.42-.09-.65a1.27,1.27,0,0,1,1.13-.16C320.73,275.26,320.77,275.55,320.49,275.77Z"/><path class="cls-21" d="M320.3,275.7a.86.86,0,0,1-.79.11c-.23-.09-.26-.3-.06-.46a.92.92,0,0,1,.79-.11A.25.25,0,0,1,320.3,275.7Z"/><path class="cls-20" d="M320.17,275.64h0a.59.59,0,0,0-.53.08h0c-.15-.06-.17-.2,0-.3a.59.59,0,0,1,.53-.08C320.28,275.4,320.3,275.53,320.17,275.64Z"/><path class="cls-22" d="M320.17,275.64h0a.59.59,0,0,1-.53.08h0a.59.59,0,0,1,.53-.08Z"/><path class="cls-18" d="M321.71,260.44c-3.42,3.11-3,9.72-2.21,15.14h0c0,.05,0,.1.12.13h0a.59.59,0,0,0,.53-.08h0a.19.19,0,0,0,.08-.17h0c-.74-5.23-1.19-11.6,2-14.47,1.65-1.5,4.19-1.85,7.54-1l.18-.74C326.32,258.35,323.56,258.76,321.71,260.44Z"/><path class="cls-23" d="M346.72,278.46l-3.08.43a9.57,9.57,0,0,0-5.12.73l-3.08.43,3.17,22.42h0a2.83,2.83,0,0,0,2,2.07,8.89,8.89,0,0,0,8-1.13,2.81,2.81,0,0,0,1.32-2.53h0Z"/><path class="cls-24" d="M346.44,290.1a9,9,0,0,1-7.49,1.06l.92,6.5a9,9,0,0,0,7.49-1.05Z"/><path class="cls-25" d="M346.14,294.39a9.26,9.26,0,0,1-3.68.93l.27,1.9a9.17,9.17,0,0,0,3.67-.93Z"/><path class="cls-26" d="M343.64,278.89a9.51,9.51,0,0,0-5.12.73l-3.08.43.38,2.72a4.58,4.58,0,0,0,1.33.78,9.89,9.89,0,0,0,8.9-1.26,4.2,4.2,0,0,0,1.05-1.12l-.38-2.71Z"/><path class="cls-27" d="M345.39,281a8.87,8.87,0,0,1-8,1.13c-2.38-1-2.68-3-.65-4.6a8.87,8.87,0,0,1,8-1.13C347.12,277.35,347.42,279.41,345.39,281Z"/><polygon class="cls-26" points="349.4 303.88 349.17 304.06 349.01 303.73 348.86 303.67 345.72 281.5 345.4 281.05 345.63 280.88 346.17 281.09 349.4 303.88"/><polygon class="cls-16" points="349.17 304.06 348.21 303.67 348.57 303.41 345.4 281.05 345.94 281.26 349.17 304.06"/><polygon class="cls-16" points="339.93 305.22 340.19 305.33 340.26 304.96 340.38 304.87 337.25 282.7 337.43 282.18 337.16 282.07 336.7 282.43 339.93 305.22"/><polygon class="cls-26" points="340.19 305.33 341.01 304.69 340.59 304.54 337.43 282.18 336.97 282.54 340.19 305.33"/><path class="cls-23" d="M346.79,274.16l-3.45.49a10.56,10.56,0,0,0-5.71.81l-3.44.48.64,4.53h0a3.17,3.17,0,0,0,2.21,2.31,10,10,0,0,0,8.91-1.26,3.18,3.18,0,0,0,1.48-2.83h0Z"/><path class="cls-26" d="M346.94,275.26,334.34,277l0,.19h0a3.17,3.17,0,0,0,2.21,2.31,10,10,0,0,0,8.91-1.26,3.18,3.18,0,0,0,1.48-2.84h0Z"/><path class="cls-16" d="M345.3,277a9.9,9.9,0,0,1-8.9,1.26c-2.67-1.07-3-3.37-.73-5.14a9.94,9.94,0,0,1,8.91-1.26C347.24,272.92,347.56,275.22,345.3,277Z"/><path class="cls-23" d="M357.42,282.77l-3.08.44a9.67,9.67,0,0,0-5.12.72l-3.08.44,3.18,22.42h0a2.81,2.81,0,0,0,2,2.07,8.92,8.92,0,0,0,8-1.13,2.82,2.82,0,0,0,1.32-2.54h0Z"/><path class="cls-24" d="M357.13,294.42a9,9,0,0,1-7.48,1.06l.92,6.5a9,9,0,0,0,7.48-1.06Z"/><path class="cls-28" d="M356.84,298.7a9.44,9.44,0,0,1-3.68.94l.27,1.9a9.18,9.18,0,0,0,3.67-.94Z"/><path class="cls-26" d="M354.34,283.21a9.63,9.63,0,0,0-5.12.72l-3.08.44.39,2.71a4.47,4.47,0,0,0,1.31.79,9.94,9.94,0,0,0,8.91-1.26,4.52,4.52,0,0,0,1.05-1.12l-.38-2.72Z"/><path class="cls-27" d="M356.09,285.31a8.9,8.9,0,0,1-8,1.13c-2.38-1-2.68-3-.65-4.61a8.9,8.9,0,0,1,8-1.12C357.83,281.66,358.12,283.73,356.09,285.31Z"/><polygon class="cls-26" points="360.1 308.2 359.87 308.37 359.7 308.04 359.56 307.98 356.42 285.82 356.1 285.36 356.33 285.19 356.87 285.41 360.1 308.2"/><polygon class="cls-16" points="359.87 308.37 358.91 307.99 359.27 307.73 356.1 285.36 356.64 285.58 359.87 308.37"/><polygon class="cls-16" points="350.63 309.54 350.89 309.64 350.96 309.28 351.08 309.18 347.95 287.02 348.13 286.49 347.86 286.39 347.4 286.75 350.63 309.54"/><polygon class="cls-26" points="350.89 309.64 351.7 309.01 351.29 308.86 348.13 286.49 347.67 286.85 350.89 309.64"/><path class="cls-23" d="M357.48,278.48,354,279a10.65,10.65,0,0,0-5.71.81l-3.44.49.64,4.53h0a3.15,3.15,0,0,0,2.21,2.31,9.92,9.92,0,0,0,8.9-1.26,3.19,3.19,0,0,0,1.49-2.84h0Z"/><path class="cls-26" d="M357.64,279.58,345,281.36l0,.18h0a3.18,3.18,0,0,0,2.21,2.32,10,10,0,0,0,8.91-1.27,3.16,3.16,0,0,0,1.48-2.83h0Z"/><path class="cls-16" d="M356,281.31a9.94,9.94,0,0,1-8.91,1.26c-2.66-1.07-3-3.37-.72-5.14a9.91,9.91,0,0,1,8.91-1.26C357.94,277.24,358.26,279.54,356,281.31Z"/><path class="cls-23" d="M368.11,287.08l-3.08.44a9.47,9.47,0,0,0-5.12.72l-3.08.44L360,311.1h0a2.8,2.8,0,0,0,2,2.06,8.92,8.92,0,0,0,8-1.12,2.84,2.84,0,0,0,1.32-2.54h0Z"/><path class="cls-24" d="M367.82,298.73a9.05,9.05,0,0,1-7.48,1.06l.92,6.5a9,9,0,0,0,7.48-1.06Z"/><path class="cls-29" d="M367.53,303a9.44,9.44,0,0,1-3.68.94l.27,1.9a9.35,9.35,0,0,0,3.67-.94Z"/><path class="cls-26" d="M365,287.52a8.79,8.79,0,0,0-2.61,0,9.07,9.07,0,0,0-2.51.71l-3.08.44.39,2.71a4.62,4.62,0,0,0,1.32.79,9.92,9.92,0,0,0,8.9-1.26,4.39,4.39,0,0,0,1.05-1.13l-.38-2.71Z"/><path class="cls-27" d="M366.78,289.62a8.9,8.9,0,0,1-8,1.12c-2.38-1-2.68-3-.65-4.6a8.9,8.9,0,0,1,8-1.13C368.51,286,368.81,288,366.78,289.62Z"/><polygon class="cls-26" points="370.79 312.51 370.56 312.68 370.39 312.35 370.25 312.29 367.11 290.13 366.79 289.67 367.02 289.5 367.56 289.71 370.79 312.51"/><polygon class="cls-16" points="370.56 312.68 369.6 312.29 369.96 312.04 366.79 289.67 367.33 289.89 370.56 312.68"/><polygon class="cls-16" points="361.32 313.85 361.58 313.95 361.65 313.59 361.77 313.49 358.64 291.32 358.82 290.8 358.55 290.7 358.09 291.06 361.32 313.85"/><polygon class="cls-26" points="361.58 313.95 362.4 313.31 361.98 313.16 358.82 290.8 358.36 291.16 361.58 313.95"/><path class="cls-23" d="M368.17,282.78l-3.44.49a10.65,10.65,0,0,0-5.71.81l-3.44.49.64,4.52h0a3.15,3.15,0,0,0,2.21,2.31,9.89,9.89,0,0,0,8.9-1.26,3.17,3.17,0,0,0,1.49-2.83h0Z"/><path class="cls-26" d="M368.33,283.88l-12.6,1.79,0,.18h0a3.15,3.15,0,0,0,2.21,2.31,10,10,0,0,0,8.91-1.26,3.16,3.16,0,0,0,1.48-2.83h0Z"/><path class="cls-16" d="M366.69,285.62a10,10,0,0,1-8.9,1.26c-2.67-1.08-3-3.38-.73-5.15a10,10,0,0,1,8.91-1.26C368.63,281.54,369,283.85,366.69,285.62Z"/><polygon class="cls-16" points="364.79 286.2 329.48 271.98 337.66 265.57 372.97 279.79 364.79 286.2"/><polygon class="cls-30" points="336.22 266.71 330.93 270.84 366.24 285.06 371.52 280.92 336.22 266.71"/><polygon class="cls-23" points="365.31 289.88 330 275.67 329.48 271.98 364.79 286.2 365.31 289.88"/><path class="cls-27" d="M365.31,289.88,330,275.67l-.52-3.69c6.26,8.22,28,10.07,35.66,16.68Z"/><polygon class="cls-26" points="365.31 289.88 373.49 283.47 372.97 279.79 364.79 286.2 365.31 289.88"/><path class="cls-23" d="M338.55,260.45l-1.06,2.62a8.63,8.63,0,0,1-1.75,4.34L334.68,270l-2.76-1.11h0a2.59,2.59,0,0,1-1.4-2.19,8.1,8.1,0,0,1,2.73-6.78,2.59,2.59,0,0,1,2.53-.62h0Z"/><path class="cls-26" d="M336,261.06a8.08,8.08,0,0,0-2.73,6.78c.33,2.31,2.08,3,3.92,1.58a8.11,8.11,0,0,0,2.73-6.78C339.61,260.33,337.86,259.63,336,261.06Z"/><polygon class="cls-16" points="338.76 271.32 337.05 270.64 343.33 265.73 345.04 266.41 338.76 271.32"/><polygon class="cls-23" points="339.16 274.14 337.45 273.46 337.05 270.64 338.76 271.32 339.16 274.14"/><polygon class="cls-26" points="339.16 274.14 345.44 269.23 345.04 266.41 338.76 271.32 339.16 274.14"/><polygon class="cls-16" points="355.16 277.93 353.45 277.25 359.73 272.34 361.44 273.02 355.16 277.93"/><polygon class="cls-23" points="355.56 280.75 353.85 280.06 353.45 277.25 355.16 277.93 355.56 280.75"/><polygon class="cls-26" points="355.56 280.75 361.84 275.84 361.44 273.02 355.16 277.93 355.56 280.75"/><path class="cls-23" d="M363,270.65l-1,2.45a8.1,8.1,0,0,1-1.64,4.07l-1,2.44L335,269.79h0a2.37,2.37,0,0,1-1.3-2.05,7.51,7.51,0,0,1,2.55-6.33,2.41,2.41,0,0,1,2.36-.58h0Z"/><path class="cls-26" d="M362,273.1a8.1,8.1,0,0,1-1.64,4.07l-1,2.44-2.83-1.14a4.27,4.27,0,0,1-.27-1,8.76,8.76,0,0,1,3-7.36,4.36,4.36,0,0,1,.92-.56l2.84,1.14Z"/><path class="cls-27" d="M360.62,271.23a7.55,7.55,0,0,0-2.56,6.33c.31,2.16,1.95,2.82,3.66,1.48a7.56,7.56,0,0,0,2.56-6.34C364,270.54,362.33,269.88,360.62,271.23Z"/><path class="cls-23" d="M367.54,271.65l-1.15,2.84a9.34,9.34,0,0,1-1.9,4.72l-1.15,2.84-4.79-1.93h0a2.78,2.78,0,0,1-1.51-2.38,8.74,8.74,0,0,1,3-7.35,2.79,2.79,0,0,1,2.74-.67h0Z"/><path class="cls-26" d="M364.8,272.32a8.79,8.79,0,0,0-3,7.36c.36,2.5,2.26,3.26,4.25,1.71a8.76,8.76,0,0,0,3-7.36C368.69,271.53,366.79,270.76,364.8,272.32Z"/><path class="cls-23" d="M368.83,274l-.79,2a6.54,6.54,0,0,1-1.32,3.27l-.8,2-1.71-.69h0a1.94,1.94,0,0,1-1-1.66,6.07,6.07,0,0,1,2.06-5.11,1.92,1.92,0,0,1,1.9-.46h0Z"/><path class="cls-26" d="M366.93,274.48a6.14,6.14,0,0,0-2.06,5.11c.25,1.74,1.57,2.28,2.95,1.19a6.08,6.08,0,0,0,2.06-5.11C369.64,273.93,368.31,273.4,366.93,274.48Z"/><path class="cls-18" d="M367.24,276.65a1.88,1.88,0,0,0-.65,1.6c.08.54.49.71.93.37a1.91,1.91,0,0,0,.64-1.6C368.09,276.47,367.67,276.31,367.24,276.65Z"/><path class="cls-23" d="M369.89,277.49l-.22.55a1.87,1.87,0,0,1-.36.9l-.22.54-2.1-.85h0a.54.54,0,0,1-.29-.45,1.71,1.71,0,0,1,.57-1.41.52.52,0,0,1,.52-.12h0Z"/><path class="cls-26" d="M369.37,277.62a1.68,1.68,0,0,0-.57,1.41c.07.47.43.62.81.32a1.67,1.67,0,0,0,.57-1.4C370.11,277.47,369.75,277.32,369.37,277.62Z"/><path class="cls-21" d="M369.41,277.88a1.16,1.16,0,0,0-.4,1c.05.34.3.44.57.23a1.18,1.18,0,0,0,.39-1C369.93,277.77,369.67,277.67,369.41,277.88Z"/><path class="cls-20" d="M369.44,278.07h0a.8.8,0,0,1-.27.67h0c0,.22.2.28.38.14a.78.78,0,0,0,.27-.66C369.78,278,369.62,277.94,369.44,278.07Z"/><path class="cls-22" d="M369.44,278.07h0a.75.75,0,0,0-.26.66h0a.8.8,0,0,0,.27-.67Z"/><path class="cls-16" d="M334,256.89l-.81,2a6.59,6.59,0,0,1-1.35,3.35l-.81,2-2.13-.86h0a2,2,0,0,1-1.07-1.69,6.2,6.2,0,0,1,2.1-5.22,2,2,0,0,1,1.94-.48h0Z"/><path class="cls-26" d="M332.06,257.37a6.19,6.19,0,0,0-2.1,5.22c.25,1.78,1.6,2.32,3,1.21a6.2,6.2,0,0,0,2.11-5.22C334.83,256.8,333.48,256.26,332.06,257.37Z"/><path class="cls-16" d="M355.14,265.69l-.76,1.88a6.32,6.32,0,0,1-1.26,3.14l-.76,1.88-21.1-8.5h0a1.85,1.85,0,0,1-1-1.58,5.84,5.84,0,0,1,2-4.88,1.85,1.85,0,0,1,1.82-.44h0Z"/><path class="cls-26" d="M354.38,267.57a5.87,5.87,0,0,1-.42,1.66,6.16,6.16,0,0,1-.84,1.48l-.76,1.88-2.19-.88a4,4,0,0,1-.21-.8,6.75,6.75,0,0,1,2.29-5.67,3.58,3.58,0,0,1,.7-.43l2.19.88Z"/><path class="cls-27" d="M353.32,266.13a5.81,5.81,0,0,0-2,4.88c.23,1.66,1.49,2.17,2.81,1.14a5.84,5.84,0,0,0,2-4.88C355.9,265.61,354.64,265.1,353.32,266.13Z"/><path class="cls-16" d="M358.65,266.46l-.88,2.19a7.21,7.21,0,0,1-1.47,3.63l-.88,2.19L351.73,273h0a2.14,2.14,0,0,1-1.16-1.83,6.73,6.73,0,0,1,2.28-5.67A2.14,2.14,0,0,1,355,265h0Z"/><path class="cls-26" d="M356.54,267a6.77,6.77,0,0,0-2.28,5.67c.27,1.93,1.74,2.52,3.27,1.32a6.74,6.74,0,0,0,2.28-5.67C359.54,266.36,358.07,265.77,356.54,267Z"/><path class="cls-16" d="M359.65,268.28,359,269.8a5.08,5.08,0,0,1-1,2.53l-.61,1.52-1.33-.53h0a1.52,1.52,0,0,1-.8-1.28,4.68,4.68,0,0,1,1.58-3.93,1.48,1.48,0,0,1,1.47-.36h0Z"/><path class="cls-26" d="M358.18,268.64a4.7,4.7,0,0,0-1.58,3.94c.19,1.34,1.21,1.75,2.27.91a4.66,4.66,0,0,0,1.59-3.93C360.27,268.22,359.25,267.81,358.18,268.64Z"/><path class="cls-18" d="M358.39,270.1a1.9,1.9,0,0,0-.64,1.6c.07.55.49.71.92.37a1.88,1.88,0,0,0,.65-1.6C359.24,269.92,358.83,269.76,358.39,270.1Z"/><path class="cls-16" d="M361.05,270.94l-.22.55a1.79,1.79,0,0,1-.37.9l-.21.54-2.1-.84h0a.53.53,0,0,1-.29-.46,1.65,1.65,0,0,1,.57-1.4.52.52,0,0,1,.52-.13h0Z"/><path class="cls-26" d="M360.52,271.07a1.67,1.67,0,0,0-.56,1.41c.07.47.43.62.81.32a1.68,1.68,0,0,0,.57-1.4C361.27,270.92,360.9,270.77,360.52,271.07Z"/><path class="cls-21" d="M360.56,271.33a1.22,1.22,0,0,0-.4,1c0,.34.31.44.57.23a1.16,1.16,0,0,0,.4-1C361.08,271.23,360.83,271.12,360.56,271.33Z"/><path class="cls-20" d="M360.6,271.52h0a.8.8,0,0,1-.27.67h0c0,.21.21.27.39.14a.8.8,0,0,0,.26-.67C360.94,271.46,360.78,271.39,360.6,271.52Z"/><path class="cls-22" d="M360.6,271.52h0a.8.8,0,0,0-.27.66v0h0a.8.8,0,0,0,.27-.67Z"/><path class="cls-18" d="M369.88,272.76a8.93,8.93,0,0,0-5.41-.78,5.68,5.68,0,0,1-3.58-.48c-.07-.07-.18-.06-.29,0h0a.8.8,0,0,0-.27.66v0a.29.29,0,0,0,.11.18h0c1.26.79,2.63.61,4.11.49a8.13,8.13,0,0,1,4.9.68,3.54,3.54,0,0,1,1.84,3.15c-.14.72-.57,1.14-1.69,1.29h0a.24.24,0,0,0-.15.06h0a.75.75,0,0,0-.26.66h0c0,.15.11.22.21.21h0c2-.3,2.63-1.44,2.75-2.08C372.46,275.33,371.22,273.5,369.88,272.76Z"/><path class="cls-17" d="M308.77,237.17c-12.33,9.65-34.11,12.74-48.64,6.88s-16.31-18.42-4-28.08,34.11-12.74,48.63-6.89S321.11,227.51,308.77,237.17Z"/><path class="cls-31" d="M312.46,201c-.68-4.86-4.59-9.28-11.56-12.09-13.92-5.61-34.79-2.65-46.62,6.6-5.91,4.63-8.43,10-7.75,14.83l.16,1.08c-.69-4.87,1.84-10.19,7.75-14.82,11.82-9.25,32.69-12.21,46.62-6.6,7,2.8,10.87,7.22,11.56,12.09Z"/><path class="cls-31" d="M313.17,206c-.69-4.87-4.6-9.29-11.56-12.09-13.92-5.61-34.8-2.66-46.62,6.6-5.91,4.63-8.44,9.95-7.75,14.82l.16,1.09c-.69-4.87,1.83-10.2,7.74-14.82,11.83-9.26,32.7-12.21,46.62-6.6,7,2.8,10.88,7.22,11.56,12.09Z"/><path class="cls-31" d="M313.88,211c-.69-4.88-4.6-9.29-11.56-12.1-13.92-5.6-34.8-2.65-46.62,6.6-5.91,4.63-8.44,10-7.75,14.83l.15,1.08c-.69-4.87,1.84-10.19,7.75-14.82,11.82-9.26,32.7-12.21,46.62-6.6,7,2.8,10.87,7.22,11.56,12.09Z"/><g class="cls-32"><path class="cls-33" d="M312,219.85l-8.25-58.24L244,170.07l8.25,58.24h0c.62,4.42,4.16,8.42,10.48,11,12.62,5.09,31.54,2.41,42.25-6C310.37,229.09,312.67,224.26,312,219.85Z"/><path class="cls-34" d="M296.77,175.05c-10.71,8.39-29.64,11.07-42.26,6s-14.17-16-3.45-24.4,29.63-11.06,42.25-6S307.49,166.66,296.77,175.05Z"/></g><path class="cls-35" d="M306,159.57c-2.26-15.91-18.53-26.77-36.36-24.25s-30.44,17.47-28.19,33.39v0L250,229.6c.68,4.77,4.5,9.1,11.32,11.84C275,246.94,295.41,244,307,235c5.78-4.53,8.26-9.74,7.59-14.51L306,159.61Z"/><path class="cls-24" d="M285.07,244.64h0c-8.79,1.24-17.35.43-24.1-2.29-6.94-2.8-11.17-7.28-11.93-12.62l-8.62-60.87c-2.32-16.45,10.7-31.93,29-34.52s35.14,8.65,37.46,25.08l8.62,60.9c.76,5.34-2.07,10.82-8,15.43C301.86,240.25,293.86,243.4,285.07,244.64ZM269.73,136.3c-17.25,2.44-29.53,16.92-27.35,32.27l8.62,60.9c.65,4.61,4.45,8.54,10.71,11.05,6.43,2.6,14.63,3.37,23.09,2.17h0c8.45-1.19,16.11-4.21,21.57-8.48s7.87-9,7.22-13.61L305,159.75C302.8,144.36,287,133.86,269.73,136.3Z"/><path class="cls-24" d="M277.94,128.68l-5,.7a15.42,15.42,0,0,0-8.26,1.17l-5,.7,1.45,10.29h0c.19,1.34,1.27,2.56,3.2,3.34a14.4,14.4,0,0,0,12.88-1.82c1.63-1.28,2.33-2.75,2.14-4.1h0Z"/><path class="cls-27" d="M275.8,132.77a14.37,14.37,0,0,1-12.88,1.83c-3.84-1.55-4.32-4.88-1.05-7.44a14.36,14.36,0,0,1,12.88-1.82C278.6,126.89,279.07,130.22,275.8,132.77Z"/><path class="cls-36" d="M278,122l-5.52.78a17.09,17.09,0,0,0-9.15,1.29l-5.52.79,1,7.32h0c.21,1.5,1.4,2.85,3.54,3.71a16,16,0,0,0,14.27-2c1.81-1.42,2.58-3.05,2.37-4.54h0Z"/><path class="cls-18" d="M275.63,126.57a15.93,15.93,0,0,1-14.27,2c-4.26-1.72-4.79-5.41-1.17-8.24a15.9,15.9,0,0,1,14.27-2C278.73,120.05,279.25,123.73,275.63,126.57Z"/><path class="cls-31" d="M248.1,221.36c.69,4.87,4.6,9.29,11.56,12.1,13.93,5.61,34.8,2.65,46.62-6.6,5.91-4.63,8.44-10,7.75-14.83l-.15-1.08c.69,4.87-1.84,10.19-7.75,14.82-11.82,9.26-32.7,12.21-46.62,6.6-7-2.8-10.87-7.22-11.56-12.09Z"/><path class="cls-31" d="M247.4,216.37c.68,4.87,4.59,9.29,11.55,12.09,13.93,5.61,34.8,2.66,46.62-6.6,5.92-4.63,8.44-10,7.75-14.82l-.15-1.09c.69,4.87-1.84,10.2-7.75,14.82-11.82,9.26-32.7,12.22-46.62,6.6-7-2.8-10.87-7.22-11.56-12.09Z"/><path class="cls-31" d="M246.69,211.37c.69,4.87,4.59,9.29,11.56,12.1,13.92,5.6,34.8,2.65,46.62-6.6,5.91-4.63,8.44-10,7.75-14.83l-.16-1.09c.69,4.88-1.84,10.2-7.75,14.83C292.89,225,272,228,258.09,222.38c-7-2.81-10.87-7.22-11.56-12.09Z"/><path class="cls-16" d="M304.64,183.13a26.36,26.36,0,0,1-4,3.83c-8.95,7-23.09,10.4-35.47,9.2l2.93,20.66c12.38,1.2,26.52-2.19,35.47-9.2a25.8,25.8,0,0,0,4-3.83Z"/><path class="cls-31" d="M307.85,306.4c-.33-2.38-2.25-4.54-5.65-5.91-6.8-2.74-17-1.3-22.79,3.23-2.89,2.26-4.12,4.86-3.78,7.24l.07.53c-.34-2.38.9-5,3.79-7.24,5.78-4.53,16-6,22.79-3.23,3.4,1.37,5.31,3.53,5.65,5.91Z"/><path class="cls-31" d="M308.2,308.84c-.34-2.38-2.25-4.54-5.65-5.91-6.81-2.74-17-1.3-22.79,3.23-2.89,2.26-4.13,4.86-3.79,7.24l.08.53c-.34-2.38.89-5,3.78-7.24,5.78-4.53,16-6,22.79-3.23,3.41,1.37,5.32,3.53,5.65,5.91Z"/><path class="cls-31" d="M308.54,311.28c-.33-2.38-2.24-4.54-5.65-5.91-6.8-2.74-17-1.29-22.79,3.23-2.88,2.26-4.12,4.86-3.78,7.25l.07.52c-.33-2.38.9-5,3.79-7.24,5.78-4.52,16-6,22.79-3.23,3.4,1.37,5.31,3.53,5.65,5.91Z"/><g class="cls-32"><path class="cls-33" d="M307.64,315.63l-4-28.46L274.4,291.3l4,28.47h0c.31,2.16,2,4.12,5.13,5.36,6.16,2.48,15.41,1.17,20.65-2.93C306.83,320.15,308,317.79,307.64,315.63Z"/><path class="cls-34" d="M300.18,293.74c-5.24,4.1-14.49,5.41-20.66,2.92s-6.92-7.82-1.68-11.93,14.48-5.4,20.65-2.92S305.42,289.64,300.18,293.74Z"/></g><path class="cls-35" d="M304.67,286.17c-1.11-7.78-9.06-13.08-17.77-11.85s-14.89,8.54-13.78,16.32h0l4.21,29.75c.33,2.33,2.2,4.45,5.53,5.79,6.66,2.68,16.65,1.27,22.31-3.16,2.83-2.21,4-4.76,3.71-7.09l-4.21-29.75Z"/><path class="cls-24" d="M294.46,327.75h0a23.36,23.36,0,0,1-11.78-1.11c-3.39-1.37-5.46-3.56-5.83-6.17l-4.21-29.76c-1.14-8,5.23-15.6,14.19-16.87s17.18,4.23,18.31,12.26l4.22,29.77c.37,2.61-1,5.29-3.89,7.54A23.22,23.22,0,0,1,294.46,327.75ZM287,274.8c-8.43,1.19-14.43,8.27-13.37,15.77l4.22,29.76c.32,2.26,2.18,4.18,5.23,5.41a22.46,22.46,0,0,0,11.29,1.06h0a22.35,22.35,0,0,0,10.54-4.15c2.6-2,3.85-4.39,3.53-6.65l-4.21-29.74C303.13,278.74,295.4,273.6,287,274.8Z"/><path class="cls-24" d="M291,271.07l-2.44.34a7.54,7.54,0,0,0-4,.58l-2.44.34.72,5h0a2.24,2.24,0,0,0,1.56,1.63,7,7,0,0,0,6.29-.89,2.25,2.25,0,0,0,1.05-2h0Z"/><path class="cls-27" d="M289.93,273.07a7,7,0,0,1-6.29.89c-1.88-.75-2.11-2.38-.52-3.63a7,7,0,0,1,6.3-.89C291.3,270.2,291.53,271.82,289.93,273.07Z"/><path class="cls-36" d="M291,267.82l-2.7.38a8.26,8.26,0,0,0-4.47.64l-2.7.38.51,3.58h0a2.47,2.47,0,0,0,1.73,1.81,7.78,7.78,0,0,0,7-1,2.49,2.49,0,0,0,1.16-2.22h0Z"/><path class="cls-18" d="M289.85,270a7.81,7.81,0,0,1-7,1c-2.08-.84-2.34-2.65-.57-4a7.78,7.78,0,0,1,7-1C291.36,266.85,291.62,268.65,289.85,270Z"/><path class="cls-31" d="M276.39,316.37c.34,2.39,2.25,4.54,5.65,5.92,6.81,2.74,17,1.29,22.79-3.23,2.89-2.26,4.12-4.87,3.79-7.25l-.08-.53c.34,2.38-.9,5-3.79,7.25-5.77,4.52-16,6-22.78,3.22-3.41-1.37-5.32-3.52-5.65-5.9Z"/><path class="cls-31" d="M276.05,313.93c.33,2.38,2.24,4.54,5.65,5.91,6.8,2.75,17,1.3,22.78-3.22,2.89-2.26,4.13-4.87,3.79-7.25l-.07-.53c.33,2.38-.9,5-3.79,7.25-5.78,4.52-16,6-22.79,3.22-3.4-1.37-5.31-3.53-5.65-5.91Z"/><path class="cls-31" d="M275.7,311.49c.34,2.38,2.25,4.54,5.65,5.91,6.81,2.74,17,1.3,22.79-3.22,2.89-2.27,4.12-4.87,3.79-7.25l-.08-.53c.34,2.38-.9,5-3.79,7.24-5.77,4.53-16,6-22.78,3.23-3.41-1.37-5.32-3.53-5.65-5.91Z"/><path class="cls-16" d="M304,297.69a13,13,0,0,1-2,1.87c-4.38,3.42-11.29,5.08-17.34,4.5l1.43,10.1c6,.58,13-1.08,17.34-4.5a13,13,0,0,0,2-1.87Z"/><rect class="cls-37" x="293.52" y="215.98" width="79.62" height="36.68" rx="5.67" transform="translate(-29.55 49.03) rotate(-8.06)"/><path class="cls-16" d="M318.75,244l-.25-1.76a7.64,7.64,0,0,1-3.26-.35l.25-2.25a6.57,6.57,0,0,0,3.19.38c1.05-.15,1.72-.66,1.61-1.4s-.75-1.06-2.19-1.33c-2.07-.38-3.55-1.12-3.81-2.91-.23-1.63.74-3.07,2.66-3.74l-.25-1.76,1.82-.25.23,1.62a6.69,6.69,0,0,1,2.77.24l-.24,2.16a6.28,6.28,0,0,0-2.76-.25c-1.2.17-1.51.74-1.44,1.26s.79.91,2.44,1.28c2.32.46,3.35,1.36,3.59,3s-.74,3.22-2.81,3.89l.26,1.89Z"/><path class="cls-16" d="M336.4,242.1a31.54,31.54,0,0,0,.59-5.44l2.84-.59a25.94,25.94,0,0,1-1.58,5.6Z"/><path class="cls-16" d="M342.24,237a6.85,6.85,0,0,0,1.22-.17,4.9,4.9,0,0,0,2.27-1.08,3.73,3.73,0,0,0,1.2-2.43h-.06a3.23,3.23,0,0,1-2.28,1.21,3.66,3.66,0,0,1-4.29-3.23,4.42,4.42,0,0,1,3.92-5c3.09-.44,4.89,1.73,5.29,4.54a6.59,6.59,0,0,1-5.68,8.16,8.26,8.26,0,0,1-1.28.18Zm.85-6.27a1.74,1.74,0,0,0,2,1.68,1.81,1.81,0,0,0,1.44-1,1.35,1.35,0,0,0,.05-.73c-.18-1.28-.84-2.47-2.12-2.29C343.48,228.47,342.89,229.42,343.09,230.68Z"/><path class="cls-16" d="M326.87,239.13a6.17,6.17,0,0,0,1.22-.18,4.84,4.84,0,0,0,2.27-1.07,3.82,3.82,0,0,0,1.2-2.44h-.06a3.2,3.2,0,0,1-2.28,1.21,3.66,3.66,0,0,1-4.29-3.22,4.41,4.41,0,0,1,3.92-5c3.09-.44,4.89,1.72,5.29,4.53a7.3,7.3,0,0,1-1.33,5.84,7.22,7.22,0,0,1-4.35,2.33,11.74,11.74,0,0,1-1.28.18Zm.85-6.28a1.73,1.73,0,0,0,2,1.69,1.82,1.82,0,0,0,1.45-1,1.43,1.43,0,0,0,0-.72c-.18-1.28-.84-2.47-2.11-2.29C328.1,230.65,327.52,231.6,327.72,232.85Z"/><path class="cls-16" d="M352.51,235.5a6.85,6.85,0,0,0,1.22-.17,4.87,4.87,0,0,0,2.26-1.08,3.84,3.84,0,0,0,1.21-2.44h-.06a3.16,3.16,0,0,1-2.28,1.21,3.66,3.66,0,0,1-4.29-3.22,4.41,4.41,0,0,1,3.92-5c3.09-.44,4.89,1.72,5.28,4.53a6.58,6.58,0,0,1-5.67,8.17,9.7,9.7,0,0,1-1.28.18Zm.85-6.28a1.73,1.73,0,0,0,2,1.69,1.8,1.8,0,0,0,1.44-1,1.31,1.31,0,0,0,.05-.72c-.18-1.28-.84-2.47-2.11-2.29C353.74,227,353.16,228,353.36,229.22Z"/><path class="cls-31" d="M245.92,308c-.25-1.79-1.69-3.42-4.26-4.45-5.12-2.06-12.8-1-17.16,2.43-2.17,1.71-3.1,3.67-2.85,5.46l.06.4c-.26-1.79.67-3.76,2.85-5.46,4.35-3.41,12-4.49,17.16-2.43,2.56,1,4,2.66,4.26,4.45Z"/><path class="cls-31" d="M246.52,312.22c-.26-1.79-1.69-3.42-4.26-4.45-5.12-2.06-12.81-1-17.16,2.43-2.18,1.7-3.11,3.66-2.85,5.46l.05.4c-.25-1.8.68-3.76,2.86-5.46,4.35-3.41,12-4.49,17.16-2.43,2.56,1,4,2.66,4.25,4.45Z"/><path class="cls-31" d="M245.25,303.24c-.26-1.79-1.7-3.41-4.26-4.45-5.12-2.06-12.81-1-17.16,2.43-2.18,1.71-3.11,3.67-2.85,5.46l.05.4c-.25-1.79.68-3.75,2.86-5.46,4.35-3.4,12-4.49,17.16-2.43,2.56,1,4,2.66,4.25,4.45Z"/><g class="cls-32"><path class="cls-33" d="M246.85,323.37,240.71,280l-21.82,3.09,6.15,43.4h0s2.13,5,2.44,5.54c.56.9,2.79,1.85,4.3-1.44.22,0,1,0,1.22,0,0,0,2.14,4.54,4.34,4.23s2.78-5.22,2.78-5.22l1.44-.38c2.09,2.73,4.15,1.24,4.53.12A53.69,53.69,0,0,0,246.85,323.37Z"/><path class="cls-34" d="M238.14,284.88a17.2,17.2,0,0,1-15.42,2.18c-4.61-1.86-5.18-5.84-1.26-8.91A17.2,17.2,0,0,1,236.88,276C241.49,277.83,242.06,281.81,238.14,284.88Z"/></g><polygon class="cls-38" points="241.1 329.92 243.55 331.44 245.29 331.14 246.76 329.64 247.59 324.64 245.74 327 243.71 328.65 241.46 329.73 241.1 329.92"/><polygon class="cls-38" points="232.39 331.41 230.32 333.31 228.56 333.51 226.73 332.47 224.55 327.9 226.98 329.65 229.39 330.68 231.85 331.09 232.39 331.41"/><path class="cls-35" d="M241.49,279.23c-.82-5.82-6.76-9.78-13.27-8.86s-11.11,6.38-10.29,12.19h0l6.12,43.23c.25,1.75,1.64,3.32,4.13,4.32a16.6,16.6,0,0,0,4.27,1.06c2.08,3.61,3.37,4.51,5,4.27s2.65-1.59,3.43-5.43a18.17,18.17,0,0,0,4-2.25c2.11-1.66,3-3.56,2.77-5.3l-6.12-43.23Z"/><path class="cls-24" d="M237.48,335.82a4,4,0,0,1-3.4-1.5l-1.67-2.53-.19.24c-.61.77-1.29,1.65-2.13,1.77l-.54.07a3.37,3.37,0,0,1-3.38-1.79c-.54-1.16-2.31-5-2.38-5.47l-6.22-44c-.86-6,3.9-11.66,10.6-12.61s12.84,3.16,13.69,9.16l6.23,44c.07.51-.58,4.66-.78,5.92a3.36,3.36,0,0,1-2.75,2.66l-.54.08c-.87.12-1.85-.61-2.63-1.19l-.26-.19-.79,3A4,4,0,0,1,237.48,335.82Zm-5.09-5,.24,0,2.05,3.11a2.79,2.79,0,0,0,5-.7l.92-3.5.25,0a.82.82,0,0,1,.29,0l.18-.06.14.12.41.3c.64.48,1.52,1.13,2.08,1l.54-.07a2.65,2.65,0,0,0,2.13-2c.4-2.51.81-5.36.77-5.7l-6.22-44c-.79-5.61-6.56-9.44-12.86-8.55s-10.77,6.17-10,11.77l6.22,44c.07.32,1.25,3,2.32,5.27a2.63,2.63,0,0,0,2.61,1.37l.53-.07c.55-.08,1.16-.87,1.66-1.5l.35-.44,0-.06A.47.47,0,0,1,232.39,330.81Z"/><path class="cls-31" d="M222.3,316.06c.26,1.79,1.7,3.42,4.26,4.45,5.13,2.06,12.81,1,17.16-2.43,2.18-1.7,3.11-3.67,2.85-5.46l0-.4c.25,1.8-.68,3.76-2.86,5.46-4.35,3.41-12,4.49-17.16,2.43-2.56-1-4-2.66-4.25-4.45Z"/><path class="cls-31" d="M221.71,311.84c.25,1.79,1.69,3.42,4.25,4.45,5.13,2.06,12.81,1,17.16-2.43,2.18-1.7,3.11-3.66,2.86-5.46l-.06-.4c.25,1.8-.68,3.76-2.85,5.46-4.35,3.41-12,4.49-17.16,2.43-2.57-1-4-2.66-4.26-4.45Z"/><path class="cls-31" d="M221,307.08c.26,1.79,1.7,3.42,4.26,4.45,5.12,2.07,12.81,1,17.16-2.43,2.18-1.7,3.11-3.66,2.85-5.46l-.05-.4c.25,1.8-.68,3.76-2.86,5.46-4.35,3.41-12,4.5-17.16,2.43-2.56-1-4-2.66-4.25-4.45Z"/><path class="cls-16" d="M241.49,288.5a9.86,9.86,0,0,1-1.71,1.71c-3.78,3-10.07,4.16-15,3.08l2,14.38c4.94,1.08,11.23-.13,15-3.08a9.21,9.21,0,0,0,1.71-1.71Z"/><path class="cls-24" d="M231.23,267.67l-1.82.26a5.46,5.46,0,0,0-3,.43l-1.82.25.53,3.76h0a1.68,1.68,0,0,0,1.17,1.22,5.28,5.28,0,0,0,4.7-.67,1.64,1.64,0,0,0,.78-1.49h0Z"/><path class="cls-27" d="M230.45,269.17a5.24,5.24,0,0,1-4.7.66c-1.41-.56-1.58-1.78-.39-2.71a5.26,5.26,0,0,1,4.71-.67C231.47,267,231.64,268.23,230.45,269.17Z"/><path class="cls-36" d="M231.26,265.25l-2,.28a6.27,6.27,0,0,0-3.34.47l-2,.29.37,2.67h0a1.87,1.87,0,0,0,1.3,1.36,5.85,5.85,0,0,0,5.21-.74,1.84,1.84,0,0,0,.86-1.66h0Z"/><path class="cls-18" d="M230.39,266.9a5.79,5.79,0,0,1-5.21.74c-1.56-.63-1.75-2-.43-3a5.85,5.85,0,0,1,5.21-.74C231.52,264.52,231.71,265.87,230.39,266.9Z"/><path class="cls-24" d="M241,330.37l-.26-.69a14.69,14.69,0,0,0,3.89-2.11c1.93-1.51,2.87-3.27,2.63-4.95l.73-.11c.28,2-.76,4-2.91,5.64A15,15,0,0,1,241,330.37Z"/><path class="cls-24" d="M232.42,331.55a14.59,14.59,0,0,1-4.37-1c-2.39-1-3.92-2.49-4.31-4.31l.73-.15c.33,1.57,1.7,2.91,3.85,3.78a14.51,14.51,0,0,0,4.16.93Z"/><path class="cls-39" d="M207,100.92l6.16-.87c3.47-.49,5.27,1.12,5.58,3.31a3.2,3.2,0,0,1-1.48,3.47,4,4,0,0,1,3,3.48c.43,3-1.62,5.11-5,5.59l-6,.86Zm6.48,5.43c1.67-.23,2.36-.87,2.17-2.22s-1.16-1.76-2.54-1.57l-2.59.37.53,3.77ZM212,113.87l2.64-.37c1.46-.21,2.51-1.08,2.27-2.72s-1.24-2.25-3.19-2l-2.39.34Z"/><path class="cls-39" d="M224.71,98.41,227,114.24l-3.23.46-2.25-15.84Z"/><path class="cls-39" d="M243.21,111.94l-2.38.34a16.29,16.29,0,0,1-.5-1.81c-.59,1.7-2.11,2.41-4.1,2.7-4.14.58-6.81-2.56-7.46-7.17s1.41-8.58,6.08-9.24c3.77-.54,6,1.29,6.78,3.88l-3.16.45A2.91,2.91,0,0,0,235,99.37c-2.76.39-3.37,3.16-2.94,6.18s1.83,5.32,4.5,4.94c2.39-.33,2.84-2.09,2.56-4.13v-.07l-3.31.47-.39-2.74,6.51-.92C242.78,108.94,243.13,111.43,243.21,111.94Z"/><path class="cls-39" d="M250,94.83l6.16-.87c3.47-.49,5.26,1.13,5.57,3.32a3.21,3.21,0,0,1-1.47,3.47,4,4,0,0,1,3,3.47c.44,3-1.61,5.12-5,5.59l-6,.86Zm6.48,5.44c1.67-.24,2.36-.88,2.17-2.22s-1.16-1.77-2.54-1.58l-2.59.37.53,3.77ZM255,107.78l2.63-.37c1.47-.21,2.51-1.08,2.28-2.72s-1.24-2.25-3.19-2l-2.39.34Z"/><path class="cls-39" d="M278.91,98.73c.65,4.56-1,8.54-6,9.25s-7.5-2.77-8.14-7.28c-.55-3.9,1-8.32,6.06-9C275.59,91,278.31,94.47,278.91,98.73Zm-10.83,1.51c.45,3.16,2.07,5.5,4.57,5.15,2.76-.39,3.42-2.87,3-6.18-.41-2.92-1.76-5.35-4.58-4.95C268.4,94.63,267.65,97.2,268.08,100.24Z"/><path class="cls-39" d="M282.82,92.9l-4.29.61-.38-2.67L290,89.16l.38,2.68-4.3.6,1.87,13.17-3.25.46Z"/><path class="cls-39" d="M296.58,91l-4.29.6-.38-2.67,11.84-1.67.38,2.67-4.3.61,1.86,13.16-3.25.46Z"/><path class="cls-39" d="M306.09,86.89l3.23-.46,1.86,13.19,7.08-1,0,2.7-9.95,1.4Z"/><path class="cls-39" d="M329.48,92.68l-6.89,1,.61,4.27,7.6-1.08,0,2.71L320.42,101l-2.24-15.84,10.32-1.46.38,2.67-7.17,1,.5,3.58,6.89-1Z"/></g></g></g></svg>