<svg xmlns="http://www.w3.org/2000/svg" viewBox="0 0 76.14 102.31"><defs><style>.cls-1{fill:#f7f7f7;stroke:#323e4e;}.cls-1,.cls-2{stroke-miterlimit:10;}.cls-1,.cls-2,.cls-3,.cls-4{stroke-width:2px;}.cls-2{fill:#ffc564;}.cls-2,.cls-3,.cls-4{stroke:#202b3d;}.cls-3{fill:none;}.cls-3,.cls-4{stroke-linecap:round;stroke-linejoin:round;}.cls-4{fill:#5eb4e7;}</style></defs><title>water sensor_1</title><g id="Layer_2" data-name="Layer 2"><g id="Layer_1-2" data-name="Layer 1"><rect class="cls-1" x="15.12" y="1" width="45.91" height="34.04" rx="5.33"/><circle class="cls-2" cx="27.91" cy="18.02" r="3.95"/><rect class="cls-2" x="43.72" y="14.07" width="8.16" height="7.89"/><path class="cls-3" d="M1,71.55s33.64,38.36,74.14,0"/><path class="cls-3" d="M9.34,62.34s26.07,29.73,57.47,0"/><path class="cls-3" d="M17.42,54.1s18.74,21.37,41.3,0"/><path class="cls-3" d="M25.9,46.47s11.05,12.6,24.34,0"/><path class="cls-3" d="M33.29,40.24s4.34,4.94,9.56,0"/></g><g id="Layer_2-2" data-name="Layer 2"><path class="cls-4" d="M53.94,84.5c0,9.28-7.1,16.81-15.87,16.81S22.2,93.78,22.2,84.5,34.36,58.85,38.07,58.85,53.94,75.22,53.94,84.5Z"/></g></g></svg>