<svg xmlns="http://www.w3.org/2000/svg" xmlns:xlink="http://www.w3.org/1999/xlink" viewBox="0 0 226.36 320.12"><defs><style>.cls-1{fill:none;}.cls-2{isolation:isolate;}.cls-3{clip-path:url(#clip-path);}.cls-4{fill:#212933;}.cls-5{fill:#202832;}.cls-6{fill:#1f2630;}.cls-7{fill:#1e252f;}.cls-8{fill:#1d242d;}.cls-9{fill:#1c232c;}.cls-10{fill:#1b212a;}.cls-11{fill:#1a2029;}.cls-12{fill:#192028;}.cls-13{fill:#222b36;}.cls-14{clip-path:url(#clip-path-2);}.cls-15{clip-path:url(#clip-path-3);}.cls-16{fill:#a3a3a3;}.cls-17{fill:#9e9e9e;}.cls-18{fill:#999;}.cls-19{clip-path:url(#clip-path-4);}.cls-20{clip-path:url(#clip-path-5);}.cls-21{fill:#949494;}.cls-22{fill:#8f8f8f;}.cls-23{fill:#8a8a8a;}.cls-24{fill:#858585;}.cls-25{fill:gray;}.cls-26{clip-path:url(#clip-path-6);}.cls-27{fill:#172039;}.cls-28{fill:#12192d;}.cls-29{clip-path:url(#clip-path-7);}.cls-30{clip-path:url(#clip-path-8);}.cls-31{clip-path:url(#clip-path-9);}.cls-32{fill:#4c4f5c;}.cls-33{fill:#4e515f;}.cls-34{fill:#515462;}.cls-35{clip-path:url(#clip-path-10);}.cls-36{clip-path:url(#clip-path-11);}.cls-37{clip-path:url(#clip-path-12);}.cls-38{clip-path:url(#clip-path-13);}.cls-39{fill:#141b26;}.cls-40{fill:#141c27;}.cls-41{fill:#151c28;}.cls-42{clip-path:url(#clip-path-14);}.cls-43{clip-path:url(#clip-path-15);}.cls-44{fill:#131a25;}.cls-45{fill:#131923;}.cls-46{fill:#121822;}.cls-47{fill:#111721;}.cls-48{fill:#111620;}.cls-49{clip-path:url(#clip-path-16);}.cls-50{clip-path:url(#clip-path-17);}.cls-51{fill:#494c59;}.cls-52{fill:#474a56;}.cls-53{fill:#444753;}.cls-54{fill:#424550;}.cls-55{fill:#3f424d;}.cls-56{clip-path:url(#clip-path-18);}.cls-57{clip-path:url(#clip-path-19);}.cls-58{clip-path:url(#clip-path-20);}.cls-59{fill:#a88242;}.cls-60{fill:#a37e40;}.cls-61{fill:#9e7a3e;}.cls-62{clip-path:url(#clip-path-21);}.cls-63{clip-path:url(#clip-path-22);}.cls-64{fill:#856634;}.cls-65{fill:#8a6a36;}.cls-66{fill:#8f6e38;}.cls-67{fill:#94723a;}.cls-68{fill:#99763c;}.cls-69{clip-path:url(#clip-path-23);}.cls-70{clip-path:url(#clip-path-24);}.cls-71{clip-path:url(#clip-path-25);}.cls-72{clip-path:url(#clip-path-26);}.cls-73{clip-path:url(#clip-path-27);}.cls-74{clip-path:url(#clip-path-28);}.cls-75{clip-path:url(#clip-path-29);}.cls-76{clip-path:url(#clip-path-30);}.cls-77{clip-path:url(#clip-path-31);}.cls-78{clip-path:url(#clip-path-32);}.cls-79{fill:#a9a9a9;}.cls-80{fill:#d9d9d9;}.cls-81{fill:#545766;}.cls-82{clip-path:url(#clip-path-33);}.cls-83{fill:#11182b;}.cls-84{fill:#11172a;}.cls-85{clip-path:url(#clip-path-34);}.cls-86{clip-path:url(#clip-path-35);}.cls-87{clip-path:url(#clip-path-36);}.cls-88{clip-path:url(#clip-path-37);}.cls-89{clip-path:url(#clip-path-38);}.cls-90{fill:#7e7e7e;}.cls-91{clip-path:url(#clip-path-39);}.cls-92{fill:#2c3745;}.cls-93{fill:#6b7082;}.cls-94{fill:#ff4756;}.cls-95{fill:#1c2636;}.cls-96{clip-path:url(#clip-path-40);}.cls-97{clip-path:url(#clip-path-41);}.cls-98{clip-path:url(#clip-path-42);}.cls-99{clip-path:url(#clip-path-43);}.cls-100{clip-path:url(#clip-path-44);}.cls-101{clip-path:url(#clip-path-45);}.cls-102{clip-path:url(#clip-path-46);}.cls-103{clip-path:url(#clip-path-47);}.cls-104{clip-path:url(#clip-path-48);}.cls-105{clip-path:url(#clip-path-49);}.cls-106{clip-path:url(#clip-path-50);}.cls-107{clip-path:url(#clip-path-51);}.cls-108{clip-path:url(#clip-path-52);}.cls-109{clip-path:url(#clip-path-53);}.cls-110{clip-path:url(#clip-path-54);}.cls-111{clip-path:url(#clip-path-55);}.cls-112{clip-path:url(#clip-path-56);}.cls-113{clip-path:url(#clip-path-57);}.cls-114{clip-path:url(#clip-path-58);}.cls-115{clip-path:url(#clip-path-59);}.cls-116{clip-path:url(#clip-path-60);}.cls-117{clip-path:url(#clip-path-61);}.cls-118{clip-path:url(#clip-path-62);}.cls-119{fill:#8b8b8b;}.cls-120{fill:#868686;}.cls-121{fill:#818181;}.cls-122{fill:#7c7c7c;}.cls-123{clip-path:url(#clip-path-63);}.cls-124{fill:#33617d;}.cls-125{fill:#315e78;}.cls-126{clip-path:url(#clip-path-64);}.cls-127{clip-path:url(#clip-path-65);}.cls-128{clip-path:url(#clip-path-66);}.cls-129{fill:#3a708f;}.cls-130{fill:#3c7394;}.cls-131{fill:#3e7798;}.cls-132{clip-path:url(#clip-path-67);}.cls-133{clip-path:url(#clip-path-68);}.cls-134{fill:#386c8b;}.cls-135{fill:#376886;}.cls-136{fill:#356581;}.cls-137{clip-path:url(#clip-path-69);}.cls-138{clip-path:url(#clip-path-70);}.cls-139{clip-path:url(#clip-path-71);}.cls-140{clip-path:url(#clip-path-72);}.cls-141{clip-path:url(#clip-path-73);}.cls-142{clip-path:url(#clip-path-74);}.cls-143{clip-path:url(#clip-path-75);}.cls-144{clip-path:url(#clip-path-76);}.cls-145{clip-path:url(#clip-path-77);}.cls-146{clip-path:url(#clip-path-78);}.cls-147{clip-path:url(#clip-path-79);}.cls-148{clip-path:url(#clip-path-80);}.cls-149{clip-path:url(#clip-path-81);}.cls-150{fill:#539ecb;}.cls-151{clip-path:url(#clip-path-82);}.cls-152{fill:#d2d2d2;}.cls-153{clip-path:url(#clip-path-83);}.cls-154{clip-path:url(#clip-path-84);}</style><clipPath id="clip-path" transform="translate(0 0)"><path class="cls-1" d="M167.4,109.33l-9.48-4.91c6.82-.6,12.51-7,12.7-14.38L180.1,95C179.91,102.28,174.22,108.73,167.4,109.33Z"/></clipPath><clipPath id="clip-path-2" transform="translate(0 0)"><path class="cls-1" d="M166.37,7.33l9.48,4.91a11.81,11.81,0,0,1,6.07,11.08l-9.48-4.91A11.82,11.82,0,0,0,166.37,7.33Z"/></clipPath><clipPath id="clip-path-3" transform="translate(0 0)"><path class="cls-1" d="M166.37,7.33l9.48,4.91a10.73,10.73,0,0,0-5.94-1.14l-9.48-4.91A10.82,10.82,0,0,1,166.37,7.33Z"/></clipPath><clipPath id="clip-path-4" transform="translate(0 0)"><path class="cls-1" d="M169.25,1.73l9.48,4.91A15.8,15.8,0,0,0,170.06,5L160.58.06A15.79,15.79,0,0,1,169.25,1.73Z"/></clipPath><clipPath id="clip-path-5" transform="translate(0 0)"><path class="cls-1" d="M108.2,91.23c16.15-1.41,29.64-16.72,30.08-34.1L147.76,62c-.44,17.38-13.93,32.69-30.08,34.1Z"/></clipPath><clipPath id="clip-path-6" transform="translate(0 0)"><path class="cls-1" d="M102.86,115l-9.47-4.91a42.53,42.53,0,0,0,14.31,1.12,47.56,47.56,0,0,0,14.41-3.63l9.48,4.91a47.55,47.55,0,0,1-14.42,3.63A42.57,42.57,0,0,1,102.86,115Z"/></clipPath><clipPath id="clip-path-7" transform="translate(0 0)"><path class="cls-1" d="M108.62,74.87c7.77-.68,14.25-8.05,14.46-16.41l9.48,4.91c-.21,8.36-6.69,15.73-14.46,16.41Z"/></clipPath><clipPath id="clip-path-8" transform="translate(0 0)"><path class="cls-1" d="M84.71,106.77a40.48,40.48,0,0,0,8.68,3.29l9.47,4.91a40.6,40.6,0,0,1-8.67-3.29Z"/></clipPath><clipPath id="clip-path-9" transform="translate(0 0)"><path class="cls-1" d="M95.63,108.88,86.16,104a39.2,39.2,0,0,0,21.61,4.15l9.48,4.9A39.16,39.16,0,0,1,95.63,108.88Z"/></clipPath><clipPath id="clip-path-10" transform="translate(0 0)"><path class="cls-1" d="M105.05,90.64l-9.47-4.91a23.11,23.11,0,0,0,12.7,2.44l9.48,4.91A23.16,23.16,0,0,1,105.05,90.64Z"/></clipPath><clipPath id="clip-path-11" transform="translate(0 0)"><path class="cls-1" d="M94.12,88.53a25.57,25.57,0,0,0,14.08,2.7l9.48,4.91a25.57,25.57,0,0,1-14.08-2.7Z"/></clipPath><clipPath id="clip-path-12" transform="translate(0 0)"><path class="cls-1" d="M101.85,73.57a12.35,12.35,0,0,0,6.77,1.3l9.48,4.91a12.35,12.35,0,0,1-6.77-1.3Z"/></clipPath><clipPath id="clip-path-13" transform="translate(0 0)"><path class="cls-1" d="M114.2,72.85l-9.48-4.91a7.33,7.33,0,0,0,4.06.78l9.48,4.9A7.41,7.41,0,0,1,114.2,72.85Z"/></clipPath><clipPath id="clip-path-14" transform="translate(0 0)"><path class="cls-1" d="M123.08,58.46c.15-5.7-2.66-10.43-6.93-12.65l9.47,4.91c4.27,2.21,7.09,6.94,6.94,12.65Z"/></clipPath><clipPath id="clip-path-15" transform="translate(0 0)"><path class="cls-1" d="M113.26,51.44l9.47,4.91a8,8,0,0,1,4.14,7.52c-.13,5-4,9.35-8.61,9.75l-9.48-4.9c4.61-.41,8.48-4.77,8.61-9.76A8,8,0,0,0,113.26,51.44Z"/></clipPath><clipPath id="clip-path-16" transform="translate(0 0)"><path class="cls-1" d="M138.28,57.13c.3-11.86-5.54-21.68-14.41-26.28l9.47,4.91c8.88,4.6,14.72,14.42,14.42,26.28Z"/></clipPath><clipPath id="clip-path-17" transform="translate(0 0)"><path class="cls-1" d="M122.41,33.65l9.48,4.91c8,4.15,13.3,13,13,23.73-.4,15.7-12.6,29.51-27.16,30.79l-9.48-4.91c14.56-1.28,26.76-15.09,27.16-30.79C135.71,46.67,130.42,37.8,122.41,33.65Z"/></clipPath><clipPath id="clip-path-18" transform="translate(0 0)"><path class="cls-1" d="M133.29,12.64l9.47,4.91c14.48,7.5,24,23.51,23.53,42.87-.58,23-15.17,43.76-34.7,52l-9.48-4.91c19.53-8.27,34.12-29,34.71-52C157.31,36.15,147.76,20.14,133.29,12.64Z"/></clipPath><clipPath id="clip-path-19" transform="translate(0 0)"><path class="cls-1" d="M131.83,15.44l9.48,4.91c13.62,7,22.6,22.12,22.14,40.32-.68,26.71-21.41,50.19-46.2,52.35l-9.48-4.9C132.56,106,153.29,82.47,154,55.76,154.43,37.56,145.46,22.5,131.83,15.44Z"/></clipPath><clipPath id="clip-path-20" transform="translate(0 0)"><path class="cls-1" d="M109.24,50.67a7.32,7.32,0,0,1,4,.77l9.47,4.91a7.27,7.27,0,0,0-4-.77Z"/></clipPath><clipPath id="clip-path-21" transform="translate(0 0)"><path class="cls-1" d="M116.14,45.81l9.48,4.91a12.17,12.17,0,0,0-6.75-1.29l-9.48-4.91A12.25,12.25,0,0,1,116.14,45.81Z"/></clipPath><clipPath id="clip-path-22" transform="translate(0 0)"><path class="cls-1" d="M109.24,50.67a5,5,0,0,1,1.1.57l.58.3,1.2.63,6.6,3.41c-4.64.4-8.52,4.79-8.64,9.76a8,8,0,0,0,4.12,7.51l-9.48-4.91a8,8,0,0,1-4.12-7.51C100.73,55.46,104.6,51.08,109.24,50.67Z"/></clipPath><clipPath id="clip-path-23" transform="translate(0 0)"><path class="cls-1" d="M109.73,31.22a23,23,0,0,1,12.68,2.43l9.48,4.91a23,23,0,0,0-12.68-2.43Z"/></clipPath><clipPath id="clip-path-24" transform="translate(0 0)"><path class="cls-1" d="M123.86,30.85l9.48,4.91a25.47,25.47,0,0,0-14-2.7l-9.48-4.9A25.47,25.47,0,0,1,123.86,30.85Z"/></clipPath><clipPath id="clip-path-25" transform="translate(0 0)"><path class="cls-1" d="M111.33,78.48l-9.48-4.91c-4.27-2.21-7.09-6.94-6.94-12.64.21-8.36,6.72-15.73,14.48-16.41l9.48,4.91c-7.76.67-14.27,8-14.48,16.4C104.24,71.54,107.06,76.26,111.33,78.48Z"/></clipPath><clipPath id="clip-path-26" transform="translate(0 0)"><path class="cls-1" d="M95.58,85.73c-8-4.15-13.3-13-13-23.72L92,66.92c-.27,10.7,5,19.57,13,23.72Z"/></clipPath><clipPath id="clip-path-27" transform="translate(0 0)"><path class="cls-1" d="M82.55,62c.4-15.7,12.6-29.52,27.18-30.79l9.48,4.91C104.63,37.4,92.43,51.22,92,66.92Z"/></clipPath><clipPath id="clip-path-28" transform="translate(0 0)"><path class="cls-1" d="M103.6,93.44l-9.48-4.91c-8.87-4.6-14.72-14.42-14.41-26.27.44-17.39,13.93-32.69,30.1-34.1l9.48,4.9c-16.18,1.42-29.66,16.72-30.1,34.1C88.88,79,94.72,88.84,103.6,93.44Z"/></clipPath><clipPath id="clip-path-29" transform="translate(0 0)"><path class="cls-1" d="M86.16,104C72.53,96.91,63.55,81.84,64,63.63l9.48,4.91C73,86.75,82,101.82,95.64,108.88Z"/></clipPath><clipPath id="clip-path-30" transform="translate(0 0)"><path class="cls-1" d="M110.24,11.3a39.15,39.15,0,0,1,21.59,4.14l9.48,4.91a39.24,39.24,0,0,0-21.59-4.15Z"/></clipPath><clipPath id="clip-path-31" transform="translate(0 0)"><path class="cls-1" d="M64,63.63C64.7,37,85.43,13.47,110.24,11.3l9.48,4.9C94.9,18.38,74.18,41.86,73.5,68.54Z"/></clipPath><clipPath id="clip-path-32" transform="translate(0 0)"><path class="cls-1" d="M133.29,12.64l9.47,4.91A40.31,40.31,0,0,0,134,14.24l-9.48-4.91A40.59,40.59,0,0,1,133.29,12.64Z"/></clipPath><clipPath id="clip-path-33" transform="translate(0 0)"><path class="cls-1" d="M119.8,13.14l-9.48-4.91a42.82,42.82,0,0,1,14.22,1.1L134,14.24A42.82,42.82,0,0,0,119.8,13.14Z"/></clipPath><clipPath id="clip-path-34" transform="translate(0 0)"><path class="cls-1" d="M61.1,117l-9.48-4.91a10.82,10.82,0,0,0,5.94,1.14L67,118.11A10.82,10.82,0,0,1,61.1,117Z"/></clipPath><clipPath id="clip-path-35" transform="translate(0 0)"><path class="cls-1" d="M105.44,16.74,96,11.83a47.8,47.8,0,0,1,14.36-3.6l9.48,4.91A47.8,47.8,0,0,0,105.44,16.74Z"/></clipPath><clipPath id="clip-path-36" transform="translate(0 0)"><path class="cls-1" d="M61.1,117l-9.48-4.91A11.83,11.83,0,0,1,45.55,101L55,105.89A11.85,11.85,0,0,0,61.1,117Z"/></clipPath><clipPath id="clip-path-37" transform="translate(0 0)"><path class="cls-1" d="M58.22,122.57l-9.48-4.91c-5.47-2.83-9.07-8.88-8.89-16.18l9.48,4.91C49.15,113.69,52.75,119.74,58.22,122.57Z"/></clipPath><clipPath id="clip-path-38" transform="translate(0 0)"><path class="cls-1" d="M94.19,111.68l-9.48-4.91c-14.48-7.5-24-23.53-23.54-42.89.59-23,15.21-43.8,34.79-52l9.48,4.91c-19.58,8.25-34.2,29-34.79,52.05C70.16,88.15,79.7,104.17,94.19,111.68Z"/></clipPath><clipPath id="clip-path-39" transform="translate(0 0)"><path class="cls-1" d="M56.85,34.26l-9.48-4.91C47.56,22,53.25,15.57,60.07,15l9.48,4.91C62.73,20.48,57,26.92,56.85,34.26Z"/></clipPath><clipPath id="clip-path-40" transform="translate(0 0)"><path class="cls-1" d="M51.16,34.76l-9.48-4.91c.27-10.71,8.6-20.13,18.54-21l9.48,4.9C59.75,14.62,51.43,24.05,51.16,34.76Z"/></clipPath><clipPath id="clip-path-41" transform="translate(0 0)"><path class="cls-1" d="M170.07,166.5l9.48,4.9a2.61,2.61,0,0,0-1.37-.26l-9.48-4.91A2.52,2.52,0,0,1,170.07,166.5Z"/></clipPath><clipPath id="clip-path-42" transform="translate(0 0)"><path class="cls-1" d="M176.21,172.17l-9.48-4.91a3,3,0,0,1,2-1l9.48,4.91A3,3,0,0,0,176.21,172.17Z"/></clipPath><clipPath id="clip-path-43" transform="translate(0 0)"><path class="cls-1" d="M52.65,268.88,43.17,264c16.83,8.72,38.5,15.43,63.59,13.23,30.53-2.7,66.31-18.44,105.36-60.53a3.12,3.12,0,0,1,2-1,2.57,2.57,0,0,1,1.37.26l9.48,4.91a2.48,2.48,0,0,0-1.37-.26,3.12,3.12,0,0,0-2,1c-39.06,42.09-74.83,57.83-105.36,60.53C91.15,284.31,69.48,277.59,52.65,268.88Z"/></clipPath><clipPath id="clip-path-44" transform="translate(0 0)"><path class="cls-1" d="M68.4,231.91,58.92,227c13,6.71,29.66,11.86,49,10.18,23.48-2.09,51.06-14.19,81.22-46.7a3.14,3.14,0,0,1,2-1,2.54,2.54,0,0,1,1.38.27l9.47,4.9a2.57,2.57,0,0,0-1.37-.26,3.12,3.12,0,0,0-2,1c-30.16,32.51-57.74,44.61-81.22,46.69C98.05,243.78,81.37,238.63,68.4,231.91Z"/></clipPath><clipPath id="clip-path-45" transform="translate(0 0)"><path class="cls-1" d="M83.57,198.17l-9.48-4.91a63.28,63.28,0,0,0,34.8,7.25c16.67-1.49,36.25-10,57.84-33.25l9.48,4.91c-21.59,23.22-41.18,31.76-57.84,33.25A63.28,63.28,0,0,1,83.57,198.17Z"/></clipPath><clipPath id="clip-path-46" transform="translate(0 0)"><path class="cls-1" d="M80.66,203.77l-9.48-4.91c-2.13-1.1-4.12-2.26-6-3.42A76.34,76.34,0,0,1,48.8,181.79l9.48,4.91a76.34,76.34,0,0,0,16.41,13.65C76.53,201.51,78.53,202.67,80.66,203.77Z"/></clipPath><clipPath id="clip-path-47" transform="translate(0 0)"><path class="cls-1" d="M52.44,176.79l9.48,4.91a2.43,2.43,0,0,0-1.38-.26,2.94,2.94,0,0,0-1.89.93,3.25,3.25,0,0,0-.37,4.33l-9.48-4.91a3.25,3.25,0,0,1,.37-4.33,3,3,0,0,1,1.89-.93A2.52,2.52,0,0,1,52.44,176.79Z"/></clipPath><clipPath id="clip-path-48" transform="translate(0 0)"><path class="cls-1" d="M65.46,237.49,56,232.59c-2.94-1.53-5.7-3.12-8.25-4.73a108,108,0,0,1-22.62-18.78L34.59,214a107.5,107.5,0,0,0,22.62,18.77C59.76,234.37,62.52,236,65.46,237.49Z"/></clipPath><clipPath id="clip-path-49" transform="translate(0 0)"><path class="cls-1" d="M28.77,204.06,38.25,209a2.52,2.52,0,0,0-1.38-.26l-9.48-4.91A2.52,2.52,0,0,1,28.77,204.06Z"/></clipPath><clipPath id="clip-path-50" transform="translate(0 0)"><path class="cls-1" d="M34.59,214l-9.48-4.91a3.32,3.32,0,0,1,.37-4.36,3.12,3.12,0,0,1,1.91-.92l9.48,4.91a3.1,3.1,0,0,0-1.91.92A3.32,3.32,0,0,0,34.59,214Z"/></clipPath><clipPath id="clip-path-51" transform="translate(0 0)"><path class="cls-1" d="M49.84,274.52l-9.47-4.9c-3.82-2-7.4-4.06-10.71-6.15C11.23,251.84.78,239.54.65,239.41l9.48,4.91c.13.12,10.58,12.42,29,24.05C42.45,270.47,46,272.55,49.84,274.52Z"/></clipPath><clipPath id="clip-path-52" transform="translate(0 0)"><path class="cls-1" d="M4.31,234.39l9.48,4.91a2.52,2.52,0,0,0-1.38-.26l-9.48-4.91A2.61,2.61,0,0,1,4.31,234.39Z"/></clipPath><clipPath id="clip-path-53" transform="translate(0 0)"><path class="cls-1" d="M10.13,244.32.65,239.41A3.32,3.32,0,0,1,1,235.05a3.12,3.12,0,0,1,1.91-.92L12.41,239a3.12,3.12,0,0,0-1.91.92A3.32,3.32,0,0,0,10.13,244.32Z"/></clipPath><clipPath id="clip-path-54" transform="translate(0 0)"><path class="cls-1" d="M146.51,145.24l9.48,4.91a2.44,2.44,0,0,0-1.38-.27L145.13,145A2.52,2.52,0,0,1,146.51,145.24Z"/></clipPath><clipPath id="clip-path-55" transform="translate(0 0)"><path class="cls-1" d="M99.43,165.92,90,161a36.2,36.2,0,0,0,20,4.17c9.51-.86,20.71-5.69,33.28-19.21a3,3,0,0,1,1.95-1l9.48,4.91a3,3,0,0,0-2,1c-12.58,13.52-23.77,18.35-33.29,19.21A36.36,36.36,0,0,1,99.43,165.92Z"/></clipPath><clipPath id="clip-path-56" transform="translate(0 0)"><path class="cls-1" d="M96.53,171.53l-9.48-4.91c-1.29-.67-2.5-1.37-3.61-2.07a46.63,46.63,0,0,1-9.89-8.25L83,161.21a46.86,46.86,0,0,0,9.9,8.25C94,170.16,95.24,170.86,96.53,171.53Z"/></clipPath><clipPath id="clip-path-57" transform="translate(0 0)"><path class="cls-1" d="M77.18,151.31l9.48,4.91a2.57,2.57,0,0,0-1.39-.27,3.06,3.06,0,0,0-1.88.91,3.29,3.29,0,0,0-.37,4.35l-9.47-4.91a3.29,3.29,0,0,1,.36-4.35,3.06,3.06,0,0,1,1.88-.91A2.56,2.56,0,0,1,77.18,151.31Z"/></clipPath><clipPath id="clip-path-58" transform="translate(0 0)"><path class="cls-1" d="M125.93,128l9.48,4.91a2.46,2.46,0,0,0-1.36-.26l-9.48-4.91A2.55,2.55,0,0,1,125.93,128Z"/></clipPath><clipPath id="clip-path-59" transform="translate(0 0)"><path class="cls-1" d="M113.25,139.08l-9.48-4.91a12.65,12.65,0,0,0,7,1.45c3.28-.31,7.18-1.89,11.86-6.93a3.13,3.13,0,0,1,2-1l9.48,4.91a3.13,3.13,0,0,0-2,1c-4.68,5-8.58,6.62-11.87,6.93A12.63,12.63,0,0,1,113.25,139.08Z"/></clipPath><clipPath id="clip-path-60" transform="translate(0 0)"><path class="cls-1" d="M110.34,144.68l-9.48-4.91c-.55-.28-1.07-.59-1.55-.89a19.69,19.69,0,0,1-4.23-3.54l9.48,4.91a19.69,19.69,0,0,0,4.23,3.54C109.27,144.09,109.78,144.39,110.34,144.68Z"/></clipPath><clipPath id="clip-path-61" transform="translate(0 0)"><path class="cls-1" d="M98.72,130.34l9.48,4.91a2.57,2.57,0,0,0-1.37-.26,3.11,3.11,0,0,0-1.91.93,3.29,3.29,0,0,0-.36,4.33l-9.48-4.91a3.28,3.28,0,0,1,.37-4.33,3.06,3.06,0,0,1,1.9-.93A2.57,2.57,0,0,1,98.72,130.34Z"/></clipPath><clipPath id="clip-path-62" transform="translate(0 0)"><path class="cls-1" d="M119.69,185.63l9.48,4.91c11.69,6.05,39.69,47,39,72.54-.7,27.56-20.91,51.71-45,53.82l-9.48-4.9c24.12-2.11,44.33-26.27,45-53.83C159.38,232.61,131.38,191.68,119.69,185.63Z"/></clipPath><clipPath id="clip-path-63" transform="translate(0 0)"><path class="cls-1" d="M144.25,284.06a47.63,47.63,0,0,0,3.59-7.35l9.48,4.91a47.63,47.63,0,0,1-3.59,7.35Z"/></clipPath><clipPath id="clip-path-64" transform="translate(0 0)"><path class="cls-1" d="M147.84,276.71a1.45,1.45,0,0,0-.56-1.85l9.48,4.91a1.45,1.45,0,0,1,.56,1.85Z"/></clipPath><clipPath id="clip-path-65" transform="translate(0 0)"><path class="cls-1" d="M147.28,274.86l9.48,4.91-.16-.07a1.46,1.46,0,0,0-.55-.07l-9.47-4.91a1.27,1.27,0,0,1,.54.08A.76.76,0,0,1,147.28,274.86Z"/></clipPath><clipPath id="clip-path-66" transform="translate(0 0)"><path class="cls-1" d="M159.45,271.82l-9.48-4.9a1.25,1.25,0,0,0,.45.13h.22l9.48,4.9h-.23A1.07,1.07,0,0,1,159.45,271.82Z"/></clipPath><clipPath id="clip-path-67" transform="translate(0 0)"><path class="cls-1" d="M154.71,280.7l-9.48-4.91a1.67,1.67,0,0,1,1.35-1.07l9.47,4.91A1.67,1.67,0,0,0,154.71,280.7Z"/></clipPath><clipPath id="clip-path-68" transform="translate(0 0)"><path class="cls-1" d="M152.82,260.09c0-.66,0-1.38,0-2.25l9.48,4.9c0,.88,0,1.6,0,2.26a34,34,0,0,1-.73,5.54,1.7,1.7,0,0,1-1.45,1.41l-9.48-4.9a1.72,1.72,0,0,0,1.45-1.42A34,34,0,0,0,152.82,260.09Z"/></clipPath><clipPath id="clip-path-69" transform="translate(0 0)"><path class="cls-1" d="M152.8,257.84a1.35,1.35,0,0,0-.7-1.19l9.48,4.9a1.37,1.37,0,0,1,.7,1.19h0l-9.48-4.9Z"/></clipPath><clipPath id="clip-path-70" transform="translate(0 0)"><path class="cls-1" d="M152.1,256.65l9.48,4.91a1.12,1.12,0,0,0-.66-.13l-9.48-4.91A1.21,1.21,0,0,1,152.1,256.65Z"/></clipPath><clipPath id="clip-path-71" transform="translate(0 0)"><path class="cls-1" d="M160.83,261.44l-9.48-4.91h.09l9.48,4.91Z"/></clipPath><clipPath id="clip-path-72" transform="translate(0 0)"><path class="cls-1" d="M159.45,271.82l-9.48-4.9a1.42,1.42,0,0,1-.69-1.54,29.19,29.19,0,0,0,.69-5c0-.58,0-1.24,0-2.09l9.48,4.91c0,.85,0,1.51,0,2.09a29.31,29.31,0,0,1-.69,5A1.41,1.41,0,0,0,159.45,271.82Z"/></clipPath><clipPath id="clip-path-73" transform="translate(0 0)"><path class="cls-1" d="M159.43,263.16,150,258.25a1.7,1.7,0,0,1,1.4-1.72l9.48,4.91A1.69,1.69,0,0,0,159.43,263.16Z"/></clipPath><clipPath id="clip-path-74" transform="translate(0 0)"><path class="cls-1" d="M127.23,300.3A42.1,42.1,0,0,0,142.35,287l9.48,4.91a42.1,42.1,0,0,1-15.12,13.34Z"/></clipPath><clipPath id="clip-path-75" transform="translate(0 0)"><path class="cls-1" d="M123.77,301.84a35.7,35.7,0,0,0,3.46-1.54l9.48,4.91a35.7,35.7,0,0,1-3.46,1.54Z"/></clipPath><clipPath id="clip-path-76" transform="translate(0 0)"><path class="cls-1" d="M123.77,301.84l9.48,4.91a33.58,33.58,0,0,1-7.21,1.89h-.1l-9.47-4.91h.09A33.58,33.58,0,0,0,123.77,301.84Z"/></clipPath><clipPath id="clip-path-77" transform="translate(0 0)"><path class="cls-1" d="M115.78,303.61a1.13,1.13,0,0,0,.69.13l9.47,4.91a1.19,1.19,0,0,1-.68-.13Z"/></clipPath><clipPath id="clip-path-78" transform="translate(0 0)"><path class="cls-1" d="M125.26,308.52l-9.48-4.91a1.32,1.32,0,0,1-.69-1.18l9.48,4.91A1.33,1.33,0,0,0,125.26,308.52Z"/></clipPath><clipPath id="clip-path-79" transform="translate(0 0)"><path class="cls-1" d="M124.57,307.34l-9.48-4.91a1.75,1.75,0,0,1,1.4-1.75c12.78-1.86,23.68-11.84,28.74-24.89l9.48,4.91c-5.06,13.05-16,23-28.74,24.89A1.75,1.75,0,0,0,124.57,307.34Z"/></clipPath><clipPath id="clip-path-80" transform="translate(0 0)"><path class="cls-1" d="M103.08,313,93.6,308.1a36.48,36.48,0,0,0,20.09,3.9l9.48,4.9A36.39,36.39,0,0,1,103.08,313Z"/></clipPath><clipPath id="clip-path-81" transform="translate(0 0)"><path class="cls-1" d="M93.61,308.1c-13.78-7.13-22.92-23-22.43-42.27l9.48,4.91C80.17,290,89.31,305.88,103.09,313Z"/></clipPath><clipPath id="clip-path-82" transform="translate(0 0)"><path class="cls-1" d="M71.18,265.83c.71-27.9,36.65-80.15,45.75-80.95l9.48,4.91c-9.1.79-45,53.05-45.75,81Z"/></clipPath><clipPath id="clip-path-83" transform="translate(0 0)"><path class="cls-1" d="M121.12,182.9l9.48,4.9a7.82,7.82,0,0,0-4.11-1.08l-9.48-4.9A7.73,7.73,0,0,1,121.12,182.9Z"/></clipPath><clipPath id="clip-path-84" transform="translate(0 0)"><path class="cls-1" d="M101.65,315.81l-9.48-4.91c-14.64-7.58-24.35-24.43-23.83-44.82.73-28.64,36.75-83.22,48.67-84.26l9.48,4.9c-11.92,1.05-47.94,55.63-48.67,84.27C77.3,291.37,87,308.23,101.65,315.81Z"/></clipPath></defs><title>water_sensor_N2</title><g id="Layer_2" data-name="Layer 2"><g id="Layer_2-2" data-name="Layer 2"><g class="cls-2"><g class="cls-3"><g class="cls-2"><path class="cls-4" d="M167.4,109.33l-9.48-4.91c.43,0,.85-.1,1.27-.18l9.48,4.91c-.42.08-.84.14-1.27.18" transform="translate(0 0)"/><path class="cls-5" d="M168.67,109.15l-9.48-4.91a13.06,13.06,0,0,0,3.27-1.13l9.48,4.9a12.7,12.7,0,0,1-3.27,1.14" transform="translate(0 0)"/><path class="cls-6" d="M171.94,108l-9.48-4.9a14.74,14.74,0,0,0,1.89-1.16l9.48,4.91a14.24,14.24,0,0,1-1.89,1.15" transform="translate(0 0)"/><path class="cls-7" d="M173.83,106.86,164.35,102a14.83,14.83,0,0,0,1.5-1.25l9.48,4.91a16,16,0,0,1-1.5,1.25" transform="translate(0 0)"/><path class="cls-8" d="M175.33,105.61l-9.48-4.91a14.48,14.48,0,0,0,1.3-1.41l9.48,4.91a14.48,14.48,0,0,1-1.3,1.41" transform="translate(0 0)"/><path class="cls-9" d="M176.63,104.2l-9.48-4.91a16,16,0,0,0,1.18-1.65l9.48,4.9a15.08,15.08,0,0,1-1.18,1.66" transform="translate(0 0)"/><path class="cls-10" d="M177.81,102.54l-9.48-4.9a16.3,16.3,0,0,0,1.09-2.12l9.48,4.91a16.18,16.18,0,0,1-1.09,2.11" transform="translate(0 0)"/><path class="cls-11" d="M178.9,100.43l-9.48-4.91a15.13,15.13,0,0,0,1.2-5.48L180.1,95a15.17,15.17,0,0,1-1.2,5.48" transform="translate(0 0)"/></g></g></g><polygon class="cls-12" points="180.1 94.95 170.62 90.04 172.44 18.41 181.92 23.32 180.1 94.95"/><polygon class="cls-13" points="131.59 112.46 122.11 107.55 157.92 104.42 167.4 109.33 131.59 112.46"/><g class="cls-2"><g class="cls-14"><g class="cls-2"><path class="cls-11" d="M181.92,23.32l-9.48-4.91a11.82,11.82,0,0,0-6.07-11.08l9.48,4.91a11.81,11.81,0,0,1,6.07,11.08" transform="translate(0 0)"/></g></g></g><g class="cls-2"><g class="cls-15"><g class="cls-2"><path class="cls-16" d="M169.91,11.1l-9.48-4.91a11.86,11.86,0,0,1,2.15,0l9.48,4.91a11,11,0,0,0-2.15,0" transform="translate(0 0)"/><path class="cls-17" d="M172.06,11.11,162.58,6.2a10.86,10.86,0,0,1,3.13.82l9.48,4.91a10.63,10.63,0,0,0-3.13-.82" transform="translate(0 0)"/><path class="cls-18" d="M175.19,11.93,165.71,7c.22.09.44.2.66.31l9.48,4.91c-.22-.11-.44-.22-.66-.31" transform="translate(0 0)"/></g></g></g><g class="cls-2"><g class="cls-19"><g class="cls-2"><path class="cls-4" d="M170.06,5,160.58.06a17.3,17.3,0,0,1,3.14,0L173.2,5a17.3,17.3,0,0,0-3.14,0" transform="translate(0 0)"/><path class="cls-5" d="M173.2,5,163.72.08a15.86,15.86,0,0,1,4.57,1.19l9.48,4.91A15.86,15.86,0,0,0,173.2,5" transform="translate(0 0)"/><path class="cls-6" d="M177.77,6.18l-9.48-4.91c.32.14.64.3,1,.46l9.48,4.91c-.32-.17-.64-.32-1-.46" transform="translate(0 0)"/></g></g></g><g class="cls-2"><g class="cls-20"><g class="cls-2"><path class="cls-16" d="M117.68,96.14l-9.48-4.91a30.06,30.06,0,0,0,3-.42l9.48,4.9a27.42,27.42,0,0,1-3,.43" transform="translate(0 0)"/><path class="cls-17" d="M120.68,95.71l-9.48-4.9a30.29,30.29,0,0,0,7.73-2.68L128.41,93a30.27,30.27,0,0,1-7.73,2.67" transform="translate(0 0)"/><path class="cls-18" d="M128.41,93l-9.48-4.91a32.65,32.65,0,0,0,4.47-2.74l9.48,4.91A32.65,32.65,0,0,1,128.41,93" transform="translate(0 0)"/><path class="cls-21" d="M132.88,90.3l-9.48-4.91a34.69,34.69,0,0,0,3.57-3l9.48,4.91a34.69,34.69,0,0,1-3.57,3" transform="translate(0 0)"/><path class="cls-22" d="M136.45,87.33,127,82.42a36.26,36.26,0,0,0,3.09-3.34l9.48,4.9a35.14,35.14,0,0,1-3.09,3.35" transform="translate(0 0)"/><path class="cls-23" d="M139.54,84l-9.48-4.9a37.68,37.68,0,0,0,2.79-3.93l9.48,4.91A37.55,37.55,0,0,1,139.54,84" transform="translate(0 0)"/><path class="cls-24" d="M142.33,80.06l-9.48-4.91a37.25,37.25,0,0,0,2.6-5L144.92,75a36.08,36.08,0,0,1-2.59,5" transform="translate(0 0)"/><path class="cls-25" d="M144.92,75l-9.47-4.91a35.65,35.65,0,0,0,2.83-13c.3-11.86-5.54-21.68-14.42-26.28l9.48,4.91c8.88,4.6,14.72,14.42,14.42,26.28a35.5,35.5,0,0,1-2.84,13" transform="translate(0 0)"/></g></g></g><g class="cls-2"><g class="cls-26"><g class="cls-2"><path class="cls-5" d="M102.86,115l-9.47-4.91a40.23,40.23,0,0,0,5.87,1l9.48,4.91a40.61,40.61,0,0,1-5.88-1" transform="translate(0 0)"/><path class="cls-4" d="M108.74,116l-9.48-4.91a44,44,0,0,0,8.44.07,48.16,48.16,0,0,0,5.08-.73l9.48,4.91a48,48,0,0,1-5.09.73,43.86,43.86,0,0,1-8.43-.07" transform="translate(0 0)"/><path class="cls-5" d="M122.26,115.36l-9.48-4.91a49,49,0,0,0,9.33-2.9l9.48,4.91a49.19,49.19,0,0,1-9.33,2.9" transform="translate(0 0)"/></g></g></g><path class="cls-27" d="M102.86,115l28.73-2.51a47.55,47.55,0,0,1-14.42,3.63A42.57,42.57,0,0,1,102.86,115Z" transform="translate(0 0)"/><polygon class="cls-28" points="102.86 114.97 93.39 110.06 122.11 107.55 131.59 112.46 102.86 114.97"/><g class="cls-2"><g class="cls-29"><g class="cls-2"><path class="cls-16" d="M118.1,79.78l-9.48-4.91a11.35,11.35,0,0,0,1.44-.21l9.48,4.91a14.28,14.28,0,0,1-1.44.21" transform="translate(0 0)"/><path class="cls-17" d="M119.54,79.57l-9.48-4.91a14.31,14.31,0,0,0,3.71-1.28l9.48,4.91a14.31,14.31,0,0,1-3.71,1.28" transform="translate(0 0)"/><path class="cls-18" d="M123.25,78.29l-9.48-4.91a16.23,16.23,0,0,0,2.15-1.31L125.4,77a15.3,15.3,0,0,1-2.15,1.32" transform="translate(0 0)"/><path class="cls-21" d="M125.4,77l-9.48-4.9a19.46,19.46,0,0,0,1.72-1.43l9.47,4.9A15.42,15.42,0,0,1,125.4,77" transform="translate(0 0)"/><path class="cls-22" d="M127.11,75.54l-9.47-4.9A18.82,18.82,0,0,0,119.12,69l9.48,4.9a16.23,16.23,0,0,1-1.49,1.61" transform="translate(0 0)"/><path class="cls-23" d="M128.6,73.93,119.12,69a18,18,0,0,0,1.35-1.89l9.47,4.91a15.62,15.62,0,0,1-1.34,1.88" transform="translate(0 0)"/><path class="cls-24" d="M129.94,72.05l-9.47-4.91a19.07,19.07,0,0,0,1.25-2.42l9.47,4.91a16.78,16.78,0,0,1-1.25,2.42" transform="translate(0 0)"/><path class="cls-25" d="M131.19,69.63l-9.47-4.91a17.18,17.18,0,0,0,1.36-6.26c.15-5.71-2.67-10.44-6.94-12.65l9.48,4.91c4.27,2.21,7.09,6.94,6.94,12.65a17.19,17.19,0,0,1-1.37,6.26" transform="translate(0 0)"/></g></g></g><polygon class="cls-13" points="67.04 118.11 57.56 113.2 93.39 110.06 102.86 114.97 67.04 118.11"/><g class="cls-2"><g class="cls-30"><g class="cls-2"><path class="cls-18" d="M94.19,111.68l-9.48-4.91c.83.42,1.66.82,2.52,1.19l9.47,4.91c-.85-.37-1.69-.77-2.51-1.19" transform="translate(0 0)"/><path class="cls-17" d="M96.7,112.87,87.23,108a39.89,39.89,0,0,0,6.16,2.1l9.47,4.91a40.63,40.63,0,0,1-6.16-2.1" transform="translate(0 0)"/></g></g></g><g class="cls-2"><g class="cls-31"><g class="cls-2"><path class="cls-32" d="M95.63,108.88,86.16,104c.78.4,1.57.78,2.39,1.13L98,110c-.82-.35-1.61-.73-2.4-1.13" transform="translate(0 0)"/><path class="cls-33" d="M98,110l-9.48-4.91a38.62,38.62,0,0,0,11.4,3l9.48,4.91A38.62,38.62,0,0,1,98,110" transform="translate(0 0)"/><path class="cls-34" d="M109.43,113,100,108.07a41.61,41.61,0,0,0,7.82.05l9.48,4.9a40.8,40.8,0,0,1-7.82,0" transform="translate(0 0)"/></g></g></g><g class="cls-2"><g class="cls-35"><g class="cls-2"><path class="cls-32" d="M105.05,90.64l-9.47-4.91c.46.24.92.46,1.4.67l9.48,4.9q-.72-.3-1.41-.66" transform="translate(0 0)"/><path class="cls-33" d="M106.46,91.3,97,86.4a22.72,22.72,0,0,0,6.71,1.74l9.47,4.91a22.74,22.74,0,0,1-6.7-1.75" transform="translate(0 0)"/><path class="cls-34" d="M113.16,93.05l-9.47-4.91a24.22,24.22,0,0,0,4.59,0l9.48,4.91a25.19,25.19,0,0,1-4.6,0" transform="translate(0 0)"/></g></g></g><g class="cls-2"><g class="cls-36"><g class="cls-2"><path class="cls-18" d="M103.6,93.44l-9.48-4.91c.51.26,1,.51,1.56.74l9.48,4.91c-.53-.23-1-.48-1.56-.74" transform="translate(0 0)"/><path class="cls-17" d="M105.16,94.18l-9.48-4.91a25.1,25.1,0,0,0,7.43,1.93l9.47,4.91a25.12,25.12,0,0,1-7.42-1.93" transform="translate(0 0)"/><path class="cls-16" d="M112.58,96.11l-9.47-4.91a27,27,0,0,0,5.09,0l9.48,4.91a27.11,27.11,0,0,1-5.1,0" transform="translate(0 0)"/></g></g></g><g class="cls-2"><g class="cls-37"><g class="cls-2"><path class="cls-18" d="M111.33,78.48l-9.47-4.91c.24.13.49.24.74.35l9.48,4.91-.75-.35" transform="translate(0 0)"/><path class="cls-17" d="M112.08,78.83l-9.48-4.91a12,12,0,0,0,3.58.93l9.47,4.91a12.2,12.2,0,0,1-3.57-.93" transform="translate(0 0)"/><path class="cls-16" d="M115.65,79.76l-9.47-4.91a13.23,13.23,0,0,0,2.44,0l9.48,4.91a13.34,13.34,0,0,1-2.45,0" transform="translate(0 0)"/></g></g></g><g class="cls-2"><g class="cls-38"><g class="cls-2"><path class="cls-39" d="M114.2,72.85l-9.48-4.91.45.21,9.47,4.91-.44-.21" transform="translate(0 0)"/><path class="cls-40" d="M114.64,73.06l-9.47-4.91a7.18,7.18,0,0,0,2.14.56l9.47,4.9a7,7,0,0,1-2.14-.55" transform="translate(0 0)"/><path class="cls-41" d="M116.78,73.61l-9.47-4.9a8,8,0,0,0,1.47,0l9.48,4.9a7.3,7.3,0,0,1-1.48,0" transform="translate(0 0)"/></g></g></g><g class="cls-2"><g class="cls-42"><g class="cls-2"><path class="cls-25" d="M131.19,69.63l-9.47-4.91a17.18,17.18,0,0,0,1.36-6.26c.15-5.71-2.67-10.44-6.94-12.65l9.48,4.91c4.27,2.21,7.09,6.94,6.94,12.65a17.19,17.19,0,0,1-1.37,6.26" transform="translate(0 0)"/></g></g></g><g class="cls-2"><g class="cls-43"><g class="cls-2"><path class="cls-41" d="M118.26,73.62l-9.48-4.9a8.51,8.51,0,0,0,.86-.13l9.48,4.91a6.35,6.35,0,0,1-.86.12" transform="translate(0 0)"/><path class="cls-40" d="M119.12,73.5l-9.48-4.91a8.63,8.63,0,0,0,2.21-.76l9.48,4.9a8.29,8.29,0,0,1-2.21.77" transform="translate(0 0)"/><path class="cls-39" d="M121.33,72.73l-9.48-4.9a9.48,9.48,0,0,0,1.29-.79L122.62,72a8.51,8.51,0,0,1-1.29.78" transform="translate(0 0)"/><path class="cls-44" d="M122.62,72,113.14,67a10.21,10.21,0,0,0,1-.85l9.48,4.91a11.48,11.48,0,0,1-1,.85" transform="translate(0 0)"/><path class="cls-45" d="M123.64,71.1l-9.48-4.91a11.25,11.25,0,0,0,.88-1l9.48,4.9a11.51,11.51,0,0,1-.88,1" transform="translate(0 0)"/><path class="cls-46" d="M124.52,70.14,115,65.24a10,10,0,0,0,.8-1.13L125.32,69a11.33,11.33,0,0,1-.8,1.12" transform="translate(0 0)"/><path class="cls-47" d="M125.32,69l-9.48-4.91a10.16,10.16,0,0,0,.74-1.43l9.48,4.91a10.16,10.16,0,0,1-.74,1.43" transform="translate(0 0)"/><path class="cls-48" d="M126.06,67.59l-9.48-4.91a10.17,10.17,0,0,0,.81-3.72,8,8,0,0,0-4.13-7.52l9.47,4.91a8,8,0,0,1,4.14,7.52,10.17,10.17,0,0,1-.81,3.72" transform="translate(0 0)"/></g></g></g><g class="cls-2"><g class="cls-49"><g class="cls-2"><path class="cls-25" d="M144.92,75l-9.47-4.91a35.65,35.65,0,0,0,2.83-13c.3-11.86-5.54-21.68-14.42-26.28l9.48,4.91c8.88,4.6,14.72,14.42,14.42,26.28a35.5,35.5,0,0,1-2.84,13" transform="translate(0 0)"/></g></g></g><g class="cls-2"><g class="cls-50"><g class="cls-2"><path class="cls-34" d="M117.76,93.08l-9.48-4.91a24.38,24.38,0,0,0,2.7-.39l9.48,4.91a24.38,24.38,0,0,1-2.7.39" transform="translate(0 0)"/><path class="cls-33" d="M120.46,92.69,111,87.78a26.42,26.42,0,0,0,7-2.41l9.48,4.91a26.92,26.92,0,0,1-7,2.41" transform="translate(0 0)"/><path class="cls-32" d="M127.43,90.28,118,85.37a30,30,0,0,0,4-2.47l9.47,4.91a29.3,29.3,0,0,1-4,2.47" transform="translate(0 0)"/><path class="cls-51" d="M131.47,87.81,122,82.9a32.77,32.77,0,0,0,3.22-2.69l9.48,4.91a31.76,31.76,0,0,1-3.23,2.69" transform="translate(0 0)"/><path class="cls-52" d="M134.7,85.12l-9.48-4.91a32,32,0,0,0,2.79-3l9.48,4.91a32,32,0,0,1-2.79,3" transform="translate(0 0)"/><path class="cls-53" d="M137.49,82.1,128,77.19a32.85,32.85,0,0,0,2.52-3.54l9.48,4.9a33,33,0,0,1-2.52,3.55" transform="translate(0 0)"/><path class="cls-54" d="M140,78.55l-9.48-4.9a34.19,34.19,0,0,0,2.35-4.54L142.36,74A34.07,34.07,0,0,1,140,78.55" transform="translate(0 0)"/><path class="cls-55" d="M142.36,74l-9.48-4.91a32.5,32.5,0,0,0,2.56-11.73c.27-10.71-5-19.58-13-23.73l9.48,4.91c8,4.15,13.3,13,13,23.73A32.5,32.5,0,0,1,142.36,74" transform="translate(0 0)"/></g></g></g><g class="cls-2"><g class="cls-56"><g class="cls-2"><path class="cls-17" d="M131.59,112.46l-9.48-4.91c1.06-.45,2.11-.94,3.14-1.46l9.48,4.91c-1,.52-2.08,1-3.14,1.46" transform="translate(0 0)"/><path class="cls-18" d="M134.73,111l-9.48-4.91a53.19,53.19,0,0,0,7.27-4.45l9.48,4.91a53.19,53.19,0,0,1-7.27,4.45" transform="translate(0 0)"/><path class="cls-21" d="M142,106.55l-9.48-4.91a56,56,0,0,0,5.83-4.86l9.48,4.91a56,56,0,0,1-5.83,4.86" transform="translate(0 0)"/><path class="cls-22" d="M147.83,101.69l-9.48-4.91a59.25,59.25,0,0,0,5-5.45l9.48,4.9a59.37,59.37,0,0,1-5,5.46" transform="translate(0 0)"/><path class="cls-23" d="M152.87,96.23l-9.48-4.9a59.21,59.21,0,0,0,4.55-6.4l9.48,4.91a59.08,59.08,0,0,1-4.55,6.39" transform="translate(0 0)"/><path class="cls-24" d="M157.42,89.84l-9.48-4.91a60.68,60.68,0,0,0,4.25-8.21l9.47,4.91a60.08,60.08,0,0,1-4.24,8.21" transform="translate(0 0)"/><path class="cls-25" d="M161.66,81.63l-9.47-4.91a58.41,58.41,0,0,0,4.63-21.21c.49-19.36-9.06-35.37-23.53-42.87l9.47,4.91c14.48,7.5,24,23.51,23.53,42.87a58,58,0,0,1-4.63,21.21" transform="translate(0 0)"/></g></g></g><g class="cls-2"><g class="cls-57"><g class="cls-2"><path class="cls-34" d="M117.25,113l-9.48-4.9a43.91,43.91,0,0,0,4.6-.66l9.48,4.91a41.4,41.4,0,0,1-4.6.65" transform="translate(0 0)"/><path class="cls-33" d="M121.85,112.37l-9.48-4.91a45.85,45.85,0,0,0,11.88-4.11l9.48,4.91a46,46,0,0,1-11.88,4.11" transform="translate(0 0)"/><path class="cls-32" d="M133.73,108.26l-9.48-4.91a49,49,0,0,0,6.87-4.2l9.48,4.91a49.91,49.91,0,0,1-6.87,4.2" transform="translate(0 0)"/><path class="cls-51" d="M140.6,104.06l-9.48-4.91a52.87,52.87,0,0,0,5.48-4.57l9.48,4.91a52.87,52.87,0,0,1-5.48,4.57" transform="translate(0 0)"/><path class="cls-52" d="M146.08,99.49l-9.48-4.91a56.35,56.35,0,0,0,4.75-5.13l9.48,4.9a55.18,55.18,0,0,1-4.75,5.14" transform="translate(0 0)"/><path class="cls-53" d="M150.83,94.35l-9.48-4.9a57.08,57.08,0,0,0,4.28-6l9.48,4.91a55.94,55.94,0,0,1-4.28,6" transform="translate(0 0)"/><path class="cls-54" d="M155.11,88.33l-9.48-4.91a56.77,56.77,0,0,0,4-7.71l9.47,4.91a55.6,55.6,0,0,1-4,7.71" transform="translate(0 0)"/><path class="cls-55" d="M159.09,80.62l-9.47-4.91A54.81,54.81,0,0,0,154,55.76c.46-18.2-8.51-33.26-22.14-40.32l9.48,4.91c13.62,7,22.6,22.12,22.14,40.32a54.86,54.86,0,0,1-4.36,20" transform="translate(0 0)"/></g></g></g><g class="cls-2"><g class="cls-58"><g class="cls-2"><path class="cls-59" d="M118.72,55.58l-9.48-4.91a7.79,7.79,0,0,1,1.45,0l9.48,4.91a7.79,7.79,0,0,0-1.45,0" transform="translate(0 0)"/><path class="cls-60" d="M120.17,55.59l-9.48-4.91a7.44,7.44,0,0,1,2.12.55l9.48,4.91a7.12,7.12,0,0,0-2.12-.55" transform="translate(0 0)"/><path class="cls-61" d="M122.29,56.14l-9.48-4.91.45.21,9.47,4.91-.44-.21" transform="translate(0 0)"/></g></g></g><g class="cls-2"><g class="cls-62"><g class="cls-2"><path class="cls-41" d="M118.87,49.43l-9.48-4.91a12.52,12.52,0,0,1,2.45,0l9.48,4.91a12.52,12.52,0,0,0-2.45,0" transform="translate(0 0)"/><path class="cls-40" d="M121.32,49.44l-9.48-4.91a12.13,12.13,0,0,1,3.56.93l9.48,4.91a12.13,12.13,0,0,0-3.56-.93" transform="translate(0 0)"/><path class="cls-39" d="M124.88,50.37l-9.48-4.91.74.35,9.48,4.91c-.24-.13-.49-.24-.74-.35" transform="translate(0 0)"/></g></g></g><g class="cls-2"><g class="cls-63"><g class="cls-2"><path class="cls-64" d="M114.2,72.85l-9.48-4.91a8,8,0,0,1-4.12-7.51,10.12,10.12,0,0,1,.81-3.71l9.48,4.91a10.12,10.12,0,0,0-.81,3.71,8,8,0,0,0,4.12,7.51" transform="translate(0 0)"/><path class="cls-65" d="M110.89,61.63l-9.48-4.91a11.39,11.39,0,0,1,.74-1.43l9.48,4.91a10.16,10.16,0,0,0-.74,1.43" transform="translate(0 0)"/><path class="cls-66" d="M111.63,60.2l-9.48-4.91a11,11,0,0,1,.8-1.13l9.48,4.91a10,10,0,0,0-.8,1.13" transform="translate(0 0)"/><path class="cls-67" d="M112.43,59.07,103,54.16a11.5,11.5,0,0,1,.89-1l9.48,4.91a9,9,0,0,0-.89,1" transform="translate(0 0)"/><path class="cls-68" d="M113.32,58.11l-9.48-4.91a10.44,10.44,0,0,1,1-.85l9.48,4.91a9.19,9.19,0,0,0-1,.85" transform="translate(0 0)"/><path class="cls-61" d="M114.34,57.26l-9.48-4.91a9.48,9.48,0,0,1,1.29-.79l9.48,4.91a9.48,9.48,0,0,0-1.29.79" transform="translate(0 0)"/><path class="cls-60" d="M115.63,56.47l-9.48-4.91a9.13,9.13,0,0,1,2.22-.77l9.48,4.91a8.73,8.73,0,0,0-2.22.77" transform="translate(0 0)"/><path class="cls-59" d="M117.85,55.7l-9.48-4.91.87-.12,9.48,4.91a8.66,8.66,0,0,0-.87.12" transform="translate(0 0)"/></g></g></g><g class="cls-2"><g class="cls-69"><g class="cls-2"><path class="cls-16" d="M119.21,36.13l-9.48-4.91a23.42,23.42,0,0,1,4.59,0l9.48,4.91a23.42,23.42,0,0,0-4.59,0" transform="translate(0 0)"/><path class="cls-17" d="M123.8,36.16l-9.48-4.91A22.67,22.67,0,0,1,121,33l9.48,4.91a22.37,22.37,0,0,0-6.69-1.74" transform="translate(0 0)"/><path class="cls-18" d="M130.49,37.9,121,33c.47.2.94.43,1.4.66l9.48,4.91c-.46-.24-.93-.46-1.4-.66" transform="translate(0 0)"/></g></g></g><g class="cls-2"><g class="cls-70"><g class="cls-2"><path class="cls-34" d="M119.29,33.06l-9.48-4.9a26.19,26.19,0,0,1,5.09,0l9.48,4.91a27,27,0,0,0-5.09,0" transform="translate(0 0)"/><path class="cls-33" d="M124.38,33.1l-9.48-4.91a25.43,25.43,0,0,1,7.41,1.92L131.79,35a25.12,25.12,0,0,0-7.41-1.92" transform="translate(0 0)"/><path class="cls-32" d="M131.79,35l-9.48-4.91c.53.23,1,.48,1.55.74l9.48,4.91c-.51-.26-1-.51-1.55-.74" transform="translate(0 0)"/></g></g></g><g class="cls-2"><g class="cls-71"><g class="cls-2"><path class="cls-48" d="M111.33,78.48l-9.47-4.91c-4.28-2.21-7.1-6.94-7-12.64a17.12,17.12,0,0,1,1.36-6.25l9.48,4.91a17.12,17.12,0,0,0-1.36,6.24c-.15,5.71,2.67,10.43,6.94,12.65" transform="translate(0 0)"/><path class="cls-47" d="M105.75,59.59l-9.48-4.91a18.94,18.94,0,0,1,1.25-2.41L107,57.18a17.16,17.16,0,0,0-1.25,2.41" transform="translate(0 0)"/><path class="cls-46" d="M107,57.18l-9.48-4.91a18.35,18.35,0,0,1,1.34-1.89l9.48,4.9a18.49,18.49,0,0,0-1.34,1.9" transform="translate(0 0)"/><path class="cls-45" d="M108.34,55.28l-9.48-4.9a19.18,19.18,0,0,1,1.5-1.62l9.48,4.91a17.63,17.63,0,0,0-1.5,1.61" transform="translate(0 0)"/><path class="cls-44" d="M109.84,53.67l-9.48-4.91a16.94,16.94,0,0,1,1.72-1.43l9.47,4.91a15.42,15.42,0,0,0-1.71,1.43" transform="translate(0 0)"/><path class="cls-39" d="M111.55,52.24l-9.47-4.91A15.3,15.3,0,0,1,104.23,46l9.48,4.91a16,16,0,0,0-2.16,1.32" transform="translate(0 0)"/><path class="cls-40" d="M113.71,50.92,104.23,46A14.92,14.92,0,0,1,108,44.72l9.48,4.91a14.16,14.16,0,0,0-3.72,1.29" transform="translate(0 0)"/><path class="cls-41" d="M117.43,49.63,108,44.72a14.24,14.24,0,0,1,1.44-.2l9.48,4.91a14.24,14.24,0,0,0-1.44.2" transform="translate(0 0)"/></g></g></g><g class="cls-2"><g class="cls-72"><g class="cls-2"><path class="cls-25" d="M105.05,90.64l-9.47-4.91c-8-4.15-13.3-13-13-23.72a32.5,32.5,0,0,1,2.56-11.73l9.48,4.91A32.25,32.25,0,0,0,92,66.92c-.27,10.7,5,19.57,13,23.72" transform="translate(0 0)"/></g></g></g><g class="cls-2"><g class="cls-73"><g class="cls-2"><path class="cls-25" d="M105.05,90.64l-9.47-4.91c-8-4.15-13.3-13-13-23.72a32.5,32.5,0,0,1,2.56-11.73l9.48,4.91A32.25,32.25,0,0,0,92,66.92c-.27,10.7,5,19.57,13,23.72" transform="translate(0 0)"/><path class="cls-24" d="M94.59,55.19l-9.48-4.91a34,34,0,0,1,2.34-4.53l9.48,4.91a33.41,33.41,0,0,0-2.34,4.53" transform="translate(0 0)"/><path class="cls-23" d="M96.93,50.66l-9.48-4.91A34.31,34.31,0,0,1,90,42.21l9.48,4.9a34.44,34.44,0,0,0-2.52,3.55" transform="translate(0 0)"/><path class="cls-22" d="M99.45,47.11,90,42.21a33.49,33.49,0,0,1,2.8-3l9.48,4.91a32.09,32.09,0,0,0-2.8,3" transform="translate(0 0)"/><path class="cls-21" d="M102.25,44.09l-9.48-4.91A30.29,30.29,0,0,1,96,36.5l9.48,4.9a30.59,30.59,0,0,0-3.22,2.69" transform="translate(0 0)"/><path class="cls-18" d="M105.47,41.4,96,36.5A29.09,29.09,0,0,1,100,34l9.48,4.91a30,30,0,0,0-4,2.47" transform="translate(0 0)"/><path class="cls-17" d="M109.52,38.93,100,34a27,27,0,0,1,7-2.42l9.47,4.91a27,27,0,0,0-7,2.42" transform="translate(0 0)"/><path class="cls-16" d="M116.5,36.51,107,31.6a27,27,0,0,1,2.7-.38l9.48,4.91a24.88,24.88,0,0,0-2.71.38" transform="translate(0 0)"/></g></g></g><g class="cls-2"><g class="cls-74"><g class="cls-2"><path class="cls-55" d="M103.6,93.44l-9.48-4.91c-8.87-4.6-14.72-14.42-14.41-26.27a35.65,35.65,0,0,1,2.83-13L92,54.17a35.64,35.64,0,0,0-2.83,13C88.88,79,94.72,88.84,103.6,93.44" transform="translate(0 0)"/><path class="cls-54" d="M92,54.17l-9.48-4.91a37.25,37.25,0,0,1,2.6-5l9.48,4.91a37.25,37.25,0,0,0-2.6,5" transform="translate(0 0)"/><path class="cls-53" d="M94.62,49.15l-9.48-4.91a36.12,36.12,0,0,1,2.79-3.92l9.47,4.91a37.46,37.46,0,0,0-2.78,3.92" transform="translate(0 0)"/><path class="cls-52" d="M97.4,45.23l-9.47-4.91A36.28,36.28,0,0,1,91,37l9.48,4.91a36.49,36.49,0,0,0-3.1,3.35" transform="translate(0 0)"/><path class="cls-51" d="M100.5,41.88,91,37a35.91,35.91,0,0,1,3.56-3l9.48,4.91a33.55,33.55,0,0,0-3.56,3" transform="translate(0 0)"/><path class="cls-32" d="M104.06,38.91,94.58,34a34.43,34.43,0,0,1,4.48-2.74l9.48,4.91a32.75,32.75,0,0,0-4.48,2.74" transform="translate(0 0)"/><path class="cls-33" d="M108.54,36.17l-9.48-4.91a30.3,30.3,0,0,1,7.75-2.68l9.48,4.91a29.92,29.92,0,0,0-7.75,2.68" transform="translate(0 0)"/><path class="cls-34" d="M116.29,33.49l-9.48-4.91a27.4,27.4,0,0,1,3-.42l9.48,4.9a30.09,30.09,0,0,0-3,.43" transform="translate(0 0)"/></g></g></g><g class="cls-2"><g class="cls-75"><g class="cls-2"><path class="cls-25" d="M95.63,108.88,86.16,104C72.53,96.91,63.55,81.84,64,63.63a54.45,54.45,0,0,1,4.35-19.92l9.48,4.9A54.55,54.55,0,0,0,73.5,68.54C73,86.75,82,101.82,95.63,108.88" transform="translate(0 0)"/></g></g></g><g class="cls-2"><g class="cls-76"><g class="cls-2"><path class="cls-16" d="M115.11,16.86,105.63,12a41.91,41.91,0,0,1,4.61-.65,40.68,40.68,0,0,1,7.81,0l9.48,4.9a41.51,41.51,0,0,0-7.81-.05,44.48,44.48,0,0,0-4.61.66" transform="translate(0 0)"/><path class="cls-17" d="M127.53,16.25l-9.48-4.9a38.24,38.24,0,0,1,11.39,3l9.48,4.91a38.63,38.63,0,0,0-11.39-3" transform="translate(0 0)"/><path class="cls-18" d="M138.92,19.22l-9.48-4.91c.81.35,1.61.73,2.39,1.13l9.48,4.91c-.78-.4-1.58-.78-2.39-1.13" transform="translate(0 0)"/></g></g></g><g class="cls-2"><g class="cls-77"><g class="cls-2"><path class="cls-25" d="M95.63,108.88,86.16,104C72.53,96.91,63.55,81.84,64,63.63a54.45,54.45,0,0,1,4.35-19.92l9.48,4.9A54.55,54.55,0,0,0,73.5,68.54C73,86.75,82,101.82,95.63,108.88" transform="translate(0 0)"/><path class="cls-24" d="M77.85,48.61l-9.48-4.9a55.6,55.6,0,0,1,4-7.71l9.48,4.91a56.05,56.05,0,0,0-4,7.7" transform="translate(0 0)"/><path class="cls-23" d="M81.83,40.91,72.35,36a57,57,0,0,1,4.28-6l9.48,4.91a55.94,55.94,0,0,0-4.28,6" transform="translate(0 0)"/><path class="cls-22" d="M86.11,34.89,76.63,30a56.47,56.47,0,0,1,4.75-5.14l9.48,4.91a53.85,53.85,0,0,0-4.75,5.14" transform="translate(0 0)"/><path class="cls-21" d="M90.86,29.75l-9.48-4.91a54.16,54.16,0,0,1,5.48-4.57l9.48,4.91a52.87,52.87,0,0,0-5.48,4.57" transform="translate(0 0)"/><path class="cls-18" d="M96.34,25.18l-9.48-4.91a51.64,51.64,0,0,1,6.88-4.2L103.22,21a49.05,49.05,0,0,0-6.88,4.2" transform="translate(0 0)"/><path class="cls-17" d="M103.22,21l-9.48-4.91A45.94,45.94,0,0,1,105.63,12l9.48,4.91A45.94,45.94,0,0,0,103.22,21" transform="translate(0 0)"/><path class="cls-16" d="M115.11,16.86,105.63,12a41.91,41.91,0,0,1,4.61-.65,40.68,40.68,0,0,1,7.81,0l9.48,4.9a41.51,41.51,0,0,0-7.81-.05,44.48,44.48,0,0,0-4.61.66" transform="translate(0 0)"/></g></g></g><g class="cls-2"><g class="cls-78"><g class="cls-2"><path class="cls-33" d="M134,14.24l-9.48-4.91a40.09,40.09,0,0,1,6.23,2.12l9.48,4.91A40.09,40.09,0,0,0,134,14.24" transform="translate(0 0)"/><path class="cls-32" d="M140.25,16.36l-9.48-4.91c.86.37,1.69.77,2.52,1.19l9.47,4.91c-.82-.42-1.66-.82-2.51-1.19" transform="translate(0 0)"/></g></g></g><polygon class="cls-79" points="134.02 14.24 124.54 9.33 160.43 6.19 169.91 11.1 134.02 14.24"/><path class="cls-80" d="M169.91,11.1c6.82-.6,12.2,4.88,12,12.22L180.1,95c-.19,7.33-5.88,13.78-12.7,14.38l-35.81,3.13c19.53-8.28,34.12-29,34.7-52s-13-41.33-32.27-46.18Z" transform="translate(0 0)"/><polygon class="cls-81" points="105.44 16.74 95.96 11.83 124.54 9.33 134.02 14.24 105.44 16.74"/><g class="cls-2"><g class="cls-82"><g class="cls-2"><path class="cls-83" d="M119.8,13.14l-9.48-4.91a43.86,43.86,0,0,1,8.43.07l9.48,4.91a43.86,43.86,0,0,0-8.43-.07" transform="translate(0 0)"/><path class="cls-84" d="M128.23,13.21,118.75,8.3a42.2,42.2,0,0,1,5.79,1L134,14.24a40.74,40.74,0,0,0-5.79-1" transform="translate(0 0)"/></g></g></g><g class="cls-2"><g class="cls-85"><g class="cls-2"><path class="cls-6" d="M61.1,117l-9.48-4.91.66.31,9.48,4.91L61.1,117" transform="translate(0 0)"/><path class="cls-5" d="M61.76,117.28l-9.48-4.91a10.46,10.46,0,0,0,3.13.81l9.48,4.91a10.46,10.46,0,0,1-3.13-.81" transform="translate(0 0)"/><path class="cls-4" d="M64.89,118.09l-9.48-4.91a11,11,0,0,0,2.15,0L67,118.11a11.85,11.85,0,0,1-2.15,0" transform="translate(0 0)"/></g></g></g><g class="cls-2"><g class="cls-86"><g class="cls-2"><path class="cls-84" d="M105.44,16.74,96,11.83A48.19,48.19,0,0,1,105.22,9l9.47,4.91a48.31,48.31,0,0,0-9.25,2.86" transform="translate(0 0)"/><path class="cls-83" d="M114.69,13.88,105.22,9a45.72,45.72,0,0,1,5.1-.74l9.48,4.91a45.9,45.9,0,0,0-5.11.74" transform="translate(0 0)"/></g></g></g><g class="cls-2"><g class="cls-87"><g class="cls-2"><path class="cls-25" d="M61.1,117l-9.48-4.91A11.83,11.83,0,0,1,45.55,101L55,105.89A11.85,11.85,0,0,0,61.1,117" transform="translate(0 0)"/></g></g></g><g class="cls-2"><g class="cls-88"><g class="cls-2"><path class="cls-11" d="M58.22,122.57l-9.48-4.91c-5.47-2.83-9.07-8.88-8.89-16.18l9.48,4.91c-.18,7.3,3.42,13.35,8.89,16.18" transform="translate(0 0)"/></g></g></g><g class="cls-2"><g class="cls-89"><g class="cls-2"><path class="cls-55" d="M94.19,111.68l-9.48-4.91c-14.48-7.5-24-23.53-23.54-42.89a58.15,58.15,0,0,1,4.63-21.2l9.48,4.91a58.11,58.11,0,0,0-4.63,21.2c-.49,19.36,9,35.38,23.54,42.89" transform="translate(0 0)"/><path class="cls-54" d="M75.28,47.59,65.8,42.68A60,60,0,0,1,70,34.48l9.48,4.91a58.86,58.86,0,0,0-4.24,8.2" transform="translate(0 0)"/><path class="cls-53" d="M79.52,39.39,70,34.48a60.28,60.28,0,0,1,4.54-6.38L84.06,33a61.46,61.46,0,0,0-4.54,6.39" transform="translate(0 0)"/><path class="cls-52" d="M84.06,33l-9.48-4.9a59.37,59.37,0,0,1,5-5.46l9.48,4.91a60.57,60.57,0,0,0-5,5.45" transform="translate(0 0)"/><path class="cls-51" d="M89.1,27.55l-9.48-4.91a57.31,57.31,0,0,1,5.83-4.86l9.48,4.91a57.31,57.31,0,0,0-5.83,4.86" transform="translate(0 0)"/><path class="cls-32" d="M94.93,22.69l-9.48-4.91a53.3,53.3,0,0,1,7.28-4.45l9.48,4.91a53.3,53.3,0,0,0-7.28,4.45" transform="translate(0 0)"/><path class="cls-33" d="M102.21,18.24l-9.48-4.91c1.06-.54,2.14-1,3.23-1.5l9.48,4.91c-1.09.46-2.17,1-3.23,1.5" transform="translate(0 0)"/></g></g></g><polygon class="cls-79" points="69.55 19.88 60.07 14.97 95.96 11.83 105.44 16.74 69.55 19.88"/><polygon class="cls-90" points="55.02 105.89 45.55 100.98 47.37 29.35 56.85 34.26 55.02 105.89"/><g class="cls-2"><g class="cls-91"><g class="cls-2"><path class="cls-25" d="M56.85,34.26l-9.48-4.91a15.13,15.13,0,0,1,1.2-5.48l9.48,4.91a14.88,14.88,0,0,0-1.2,5.48" transform="translate(0 0)"/><path class="cls-24" d="M58.05,28.78l-9.48-4.91a15.68,15.68,0,0,1,1.09-2.12l9.48,4.91a14.61,14.61,0,0,0-1.09,2.12" transform="translate(0 0)"/><path class="cls-23" d="M59.14,26.66l-9.48-4.91a15,15,0,0,1,1.18-1.65L60.32,25a15,15,0,0,0-1.18,1.65" transform="translate(0 0)"/><path class="cls-22" d="M60.32,25,50.84,20.1a14.48,14.48,0,0,1,1.3-1.41l9.48,4.91A14.48,14.48,0,0,0,60.32,25" transform="translate(0 0)"/><path class="cls-21" d="M61.62,23.6l-9.48-4.91a14.83,14.83,0,0,1,1.5-1.25l9.48,4.9a16.39,16.39,0,0,0-1.5,1.26" transform="translate(0 0)"/><path class="cls-18" d="M63.12,22.34l-9.48-4.9a13.12,13.12,0,0,1,1.89-1.16L65,21.19a14,14,0,0,0-1.89,1.15" transform="translate(0 0)"/><path class="cls-17" d="M65,21.19l-9.48-4.91a12.68,12.68,0,0,1,3.27-1.13l9.48,4.91A12.55,12.55,0,0,0,65,21.19" transform="translate(0 0)"/><path class="cls-16" d="M68.28,20.06,58.8,15.15c.42-.08.84-.14,1.27-.18l9.48,4.91c-.43,0-.85.1-1.27.18" transform="translate(0 0)"/></g></g></g><path class="cls-92" d="M170.06,5c9.95-.87,17.83,7.14,17.55,17.85l-1.82,71.63c-.28,10.7-8.6,20.13-18.54,21L66.88,124.23c-9.94.87-17.82-7.14-17.55-17.84l1.83-71.63c.27-10.71,8.59-20.14,18.54-21Zm10,90,1.82-71.63c.19-7.34-5.19-12.82-12-12.22L134,14.24a42.82,42.82,0,0,0-14.22-1.1,47.8,47.8,0,0,0-14.36,3.6L69.55,19.88c-6.82.6-12.51,7-12.7,14.38L55,105.89c-.18,7.34,5.2,12.81,12,12.22L102.86,115a42.57,42.57,0,0,0,14.31,1.12,47.55,47.55,0,0,0,14.42-3.63l35.81-3.13c6.82-.6,12.51-7,12.7-14.38" transform="translate(0 0)"/><path class="cls-93" d="M134,14.24c19.24,4.85,32.86,23.14,32.27,46.18s-15.17,43.76-34.7,52L102.86,115c-19.21-4.88-32.8-23.18-32.21-46.18S85.86,25,105.44,16.74ZM117.25,113c24.79-2.16,45.52-25.64,46.2-52.35S144.51,14,119.72,16.2,74.18,41.86,73.5,68.54,92.44,115.2,117.25,113" transform="translate(0 0)"/><path class="cls-80" d="M163.45,60.67c-.68,26.71-21.41,50.19-46.2,52.35S72.82,95.25,73.5,68.54,94.9,18.38,119.72,16.2,164.13,34,163.45,60.67ZM117.68,96.14c16.15-1.41,29.64-16.72,30.08-34.1s-12.32-30.39-28.47-29-29.66,16.72-30.1,34.1,12.32,30.39,28.49,29" transform="translate(0 0)"/><path class="cls-94" d="M118.76,53.84c5.5-.48,9.87,4,9.72,9.89s-4.76,11.15-10.27,11.63-9.9-3.93-9.75-9.88S113.23,54.33,118.76,53.84Z" transform="translate(0 0)"/><path class="cls-93" d="M119.29,33.06c16.15-1.41,28.91,11.6,28.47,29s-13.93,32.69-30.08,34.1-28.94-11.59-28.49-29S103.11,34.48,119.29,33.06Zm-1.53,60C132.32,91.8,144.52,78,144.92,62.29s-11.15-27.44-25.71-26.16S92.43,51.22,92,66.92s11.14,27.43,25.73,26.16" transform="translate(0 0)"/><path class="cls-95" d="M119,46.51c9.26-.81,16.57,6.65,16.32,16.62s-8,18.76-17.24,19.57S101.42,76,101.68,66.07,109.69,47.32,119,46.51Zm-.74,28.85c5.51-.48,10.12-5.68,10.27-11.63s-4.22-10.37-9.72-9.89-10.15,5.72-10.3,11.64,4.22,10.36,9.75,9.88" transform="translate(0 0)"/><path class="cls-80" d="M119.21,36.13c14.56-1.28,26.11,10.46,25.71,26.16s-12.6,29.51-27.16,30.79S91.63,82.62,92,66.92,104.63,37.4,119.21,36.13ZM118.1,79.78c7.77-.68,14.25-8,14.46-16.41s-5.92-14.62-13.69-13.94-14.27,8-14.48,16.4,5.94,14.63,13.71,14" transform="translate(0 0)"/><path class="cls-27" d="M119.8,13.14A42.82,42.82,0,0,1,134,14.24l-28.58,2.5A47.8,47.8,0,0,1,119.8,13.14Z" transform="translate(0 0)"/><polygon class="cls-13" points="69.7 13.75 60.22 8.85 160.58 0.07 170.06 4.97 69.7 13.75"/><path class="cls-80" d="M70.65,68.79c-.59,23,13,41.3,32.21,46.18L67,118.11c-6.82.59-12.2-4.88-12-12.22l1.83-71.63c.19-7.34,5.88-13.78,12.7-14.38l35.89-3.14C85.86,25,71.24,45.75,70.65,68.79Z" transform="translate(0 0)"/><polygon class="cls-12" points="49.33 106.39 39.85 101.48 41.68 29.85 51.16 34.76 49.33 106.39"/><g class="cls-2"><g class="cls-96"><g class="cls-2"><path class="cls-11" d="M51.16,34.76l-9.48-4.91a21.87,21.87,0,0,1,1.75-8l9.47,4.91a22,22,0,0,0-1.74,8" transform="translate(0 0)"/><path class="cls-10" d="M52.9,26.76l-9.47-4.91A23.09,23.09,0,0,1,45,18.76l9.48,4.91a24.39,24.39,0,0,0-1.6,3.09" transform="translate(0 0)"/><path class="cls-9" d="M54.5,23.67,45,18.76a24.57,24.57,0,0,1,1.72-2.42l9.48,4.91a23.44,23.44,0,0,0-1.72,2.42" transform="translate(0 0)"/><path class="cls-8" d="M56.22,21.25l-9.48-4.91a23.4,23.4,0,0,1,1.91-2.06l9.48,4.91a23.4,23.4,0,0,0-1.91,2.06" transform="translate(0 0)"/><path class="cls-7" d="M58.13,19.19l-9.48-4.91a22.57,22.57,0,0,1,2.2-1.84l9.48,4.91a21.23,21.23,0,0,0-2.2,1.84" transform="translate(0 0)"/><path class="cls-6" d="M60.33,17.35l-9.48-4.91a20.54,20.54,0,0,1,2.76-1.68l9.48,4.9a21.69,21.69,0,0,0-2.76,1.69" transform="translate(0 0)"/><path class="cls-5" d="M63.09,15.66l-9.48-4.9a18.35,18.35,0,0,1,4.77-1.65L67.86,14a18.33,18.33,0,0,0-4.77,1.64" transform="translate(0 0)"/><path class="cls-4" d="M67.86,14,58.38,9.11a16.29,16.29,0,0,1,1.84-.26l9.48,4.9a18.53,18.53,0,0,0-1.84.27" transform="translate(0 0)"/></g></g></g><g class="cls-2"><g class="cls-2"><g class="cls-97"><g class="cls-2"><path class="cls-41" d="M178.18,171.14l-9.48-4.91h.49l9.48,4.91a2.67,2.67,0,0,0-.49,0" transform="translate(0 0)"/><path class="cls-40" d="M178.67,171.14l-9.48-4.91a2.62,2.62,0,0,1,.73.19l9.48,4.91a2.71,2.71,0,0,0-.73-.19" transform="translate(0 0)"/><path class="cls-39" d="M179.4,171.33l-9.48-4.91.15.08,9.48,4.9-.15-.07" transform="translate(0 0)"/></g></g></g><g class="cls-2"><g class="cls-98"><g class="cls-2"><path class="cls-45" d="M176.21,172.17l-9.48-4.91.18-.19,9.48,4.91-.18.19" transform="translate(0 0)"/><path class="cls-44" d="M176.39,172l-9.48-4.91a2.2,2.2,0,0,1,.34-.28l9.48,4.9a3.07,3.07,0,0,0-.34.29" transform="translate(0 0)"/><path class="cls-39" d="M176.73,171.69l-9.48-4.9a3.19,3.19,0,0,1,.42-.26l9.48,4.91a3.09,3.09,0,0,0-.42.25" transform="translate(0 0)"/><path class="cls-40" d="M177.15,171.44l-9.48-4.91a2.9,2.9,0,0,1,.73-.26l9.48,4.91a2.9,2.9,0,0,0-.73.26" transform="translate(0 0)"/><path class="cls-41" d="M177.88,171.18l-9.48-4.91.3,0,9.48,4.91-.3,0" transform="translate(0 0)"/></g></g></g><g class="cls-2"><g class="cls-99"><g class="cls-2"><path class="cls-39" d="M52.65,268.88,43.17,264c2.58,1.33,5.27,2.62,8.06,3.84l9.48,4.9c-2.8-1.21-5.48-2.5-8.06-3.83" transform="translate(0 0)"/><path class="cls-40" d="M60.71,272.71l-9.48-4.9A117.68,117.68,0,0,0,85.68,277l9.48,4.91a117.29,117.29,0,0,1-34.45-9.22" transform="translate(0 0)"/><path class="cls-41" d="M95.16,281.93,85.68,277a110.32,110.32,0,0,0,21.08.18,112.7,112.7,0,0,0,12.35-1.78l9.48,4.91a115.54,115.54,0,0,1-12.35,1.78,110.32,110.32,0,0,1-21.08-.18" transform="translate(0 0)"/><path class="cls-40" d="M128.59,280.33l-9.48-4.91a130.43,130.43,0,0,0,33.45-11.79l9.48,4.91a130.43,130.43,0,0,1-33.45,11.79" transform="translate(0 0)"/><path class="cls-39" d="M162,268.54l-9.48-4.91A171.6,171.6,0,0,0,176,249.21l9.48,4.91A171.6,171.6,0,0,1,162,268.54" transform="translate(0 0)"/><path class="cls-44" d="M185.46,254.12,176,249.21a230.59,230.59,0,0,0,23.55-19.75l9.48,4.9a229.46,229.46,0,0,1-23.55,19.76" transform="translate(0 0)"/><path class="cls-45" d="M209,234.36l-9.48-4.9q6.24-6,12.59-12.79l.14-.14,9.48,4.9-.14.15q-6.36,6.84-12.59,12.78" transform="translate(0 0)"/><path class="cls-44" d="M221.74,221.43l-9.48-4.9a3.27,3.27,0,0,1,.35-.3l9.48,4.91-.35.29" transform="translate(0 0)"/><path class="cls-39" d="M222.09,221.14l-9.48-4.91a2.82,2.82,0,0,1,.44-.26l9.48,4.91a2.82,2.82,0,0,0-.44.26" transform="translate(0 0)"/><path class="cls-40" d="M222.53,220.88,213.05,216a3.07,3.07,0,0,1,.75-.27l9.48,4.91a2.71,2.71,0,0,0-.75.27" transform="translate(0 0)"/><path class="cls-41" d="M223.28,220.61l-9.48-4.91.31,0h.5l9.48,4.91a2.09,2.09,0,0,0-.5,0l-.31,0" transform="translate(0 0)"/><path class="cls-40" d="M224.09,220.57l-9.48-4.91a2.62,2.62,0,0,1,.73.19l9.47,4.91a2.55,2.55,0,0,0-.72-.19" transform="translate(0 0)"/><path class="cls-39" d="M224.81,220.76l-9.47-4.91.14.07,9.48,4.91-.15-.07" transform="translate(0 0)"/></g></g></g><g class="cls-2"><g class="cls-100"><g class="cls-2"><path class="cls-39" d="M68.4,231.91,58.92,227c2,1,4,2,6.19,2.94l9.48,4.91c-2.14-.93-4.21-1.92-6.19-3" transform="translate(0 0)"/><path class="cls-40" d="M74.59,234.86,65.11,230A90.09,90.09,0,0,0,91.63,237l9.48,4.91a90.32,90.32,0,0,1-26.52-7.09" transform="translate(0 0)"/><path class="cls-41" d="M101.11,242,91.63,237a84.45,84.45,0,0,0,16.25.15,90.79,90.79,0,0,0,9.49-1.37l9.48,4.9a86.11,86.11,0,0,1-9.49,1.37,83.67,83.67,0,0,1-16.25-.14" transform="translate(0 0)"/><path class="cls-40" d="M126.85,240.72l-9.48-4.9a100.88,100.88,0,0,0,25.78-9.09l9.48,4.91a100.45,100.45,0,0,1-25.78,9.08" transform="translate(0 0)"/><path class="cls-39" d="M152.63,231.64l-9.48-4.91a133.51,133.51,0,0,0,18.06-11.12l9.48,4.91a133.51,133.51,0,0,1-18.06,11.12" transform="translate(0 0)"/><path class="cls-44" d="M170.69,220.52l-9.48-4.91a178.5,178.5,0,0,0,18.18-15.25l9.48,4.91a179.81,179.81,0,0,1-18.18,15.25" transform="translate(0 0)"/><path class="cls-45" d="M188.87,205.27l-9.48-4.91q4.8-4.59,9.71-9.87l.15-.14,9.47,4.91-.14.14q-4.91,5.28-9.71,9.87" transform="translate(0 0)"/><path class="cls-44" d="M198.72,195.26l-9.47-4.91a1.93,1.93,0,0,1,.35-.29l9.47,4.91a3,3,0,0,0-.35.29" transform="translate(0 0)"/><path class="cls-39" d="M199.07,195l-9.47-4.91a2.8,2.8,0,0,1,.43-.27l9.48,4.91a2.27,2.27,0,0,0-.44.27" transform="translate(0 0)"/><path class="cls-40" d="M199.51,194.7,190,189.79a3.11,3.11,0,0,1,.76-.26l9.48,4.9a3.14,3.14,0,0,0-.76.27" transform="translate(0 0)"/><path class="cls-41" d="M200.27,194.43l-9.48-4.9.3-.05a2.77,2.77,0,0,1,.5,0l9.48,4.9h-.5l-.3,0" transform="translate(0 0)"/><path class="cls-40" d="M201.07,194.39l-9.48-4.9a2.32,2.32,0,0,1,.73.19l9.48,4.9a2.62,2.62,0,0,0-.73-.19" transform="translate(0 0)"/><path class="cls-39" d="M201.8,194.58l-9.48-4.9.15.07,9.47,4.9-.14-.07" transform="translate(0 0)"/></g></g></g><g class="cls-2"><g class="cls-101"><g class="cls-2"><path class="cls-39" d="M83.57,198.17l-9.48-4.91q2.11,1.1,4.41,2.1L88,200.27q-2.28-1-4.4-2.1" transform="translate(0 0)"/><path class="cls-40" d="M88,200.27l-9.47-4.91a64.58,64.58,0,0,0,18.88,5l9.47,4.91a64.75,64.75,0,0,1-18.88-5" transform="translate(0 0)"/><path class="cls-41" d="M106.85,205.32l-9.47-4.91a60.37,60.37,0,0,0,11.51.1,63.87,63.87,0,0,0,6.75-1l9.48,4.91a63.87,63.87,0,0,1-6.75,1,60.48,60.48,0,0,1-11.52-.1" transform="translate(0 0)"/><path class="cls-40" d="M125.12,204.44l-9.48-4.91A71.54,71.54,0,0,0,134,193.07l9.48,4.91a71.54,71.54,0,0,1-18.34,6.46" transform="translate(0 0)"/><path class="cls-39" d="M143.46,198,134,193.07a94.86,94.86,0,0,0,12.87-7.92l9.47,4.91A95.18,95.18,0,0,1,143.46,198" transform="translate(0 0)"/><path class="cls-44" d="M156.32,190.06l-9.47-4.91a127.72,127.72,0,0,0,13-10.92l9.48,4.91a128,128,0,0,1-13,10.92" transform="translate(0 0)"/><path class="cls-45" d="M169.33,179.14l-9.48-4.91q3.41-3.24,6.88-7l9.48,4.91q-3.48,3.74-6.88,7" transform="translate(0 0)"/></g></g></g><g class="cls-2"><g class="cls-102"><g class="cls-2"><path class="cls-48" d="M80.66,203.77l-9.48-4.91c-2.13-1.1-4.12-2.26-6-3.42A76.34,76.34,0,0,1,48.8,181.79l9.48,4.91a76.34,76.34,0,0,0,16.41,13.65c1.84,1.16,3.84,2.32,6,3.42" transform="translate(0 0)"/></g></g></g><path class="cls-95" d="M178.18,171.14a2.46,2.46,0,0,1,2,.78,3.27,3.27,0,0,1-.24,4.35c-22.38,24.17-43.6,33.71-61.78,35.27s-33.13-4.64-43.52-11.19A76.34,76.34,0,0,1,58.28,186.7a3.25,3.25,0,0,1,.37-4.33,2.94,2.94,0,0,1,1.89-.93,2.46,2.46,0,0,1,2.12.85c.38.44.63.72,1,1.05.67.71,1.67,1.7,3,2.9a77.85,77.85,0,0,0,11.36,8.7c9.8,6.19,23.77,11.93,40.43,10.48s36.25-10,57.84-33.25A3,3,0,0,1,178.18,171.14Z" transform="translate(0 0)"/><g class="cls-2"><g class="cls-103"><g class="cls-2"><path class="cls-48" d="M58.28,186.7l-9.48-4.91a3.09,3.09,0,0,1-.39-3.21l9.48,4.91a3.09,3.09,0,0,0,.39,3.21" transform="translate(0 0)"/><path class="cls-47" d="M57.89,183.49l-9.48-4.91c.07-.16.16-.32.25-.48L58.14,183a3.13,3.13,0,0,0-.25.48" transform="translate(0 0)"/><path class="cls-46" d="M58.14,183l-9.48-4.91a3.18,3.18,0,0,1,.27-.37l9.48,4.9a3.28,3.28,0,0,0-.27.38" transform="translate(0 0)"/><path class="cls-45" d="M58.41,182.63l-9.48-4.9a2,2,0,0,1,.24-.27l.09-.09,9.47,4.91-.08.09a2,2,0,0,0-.24.26" transform="translate(0 0)"/><path class="cls-44" d="M58.73,182.28l-9.47-4.91a3,3,0,0,1,.34-.28L59.08,182a3.07,3.07,0,0,0-.35.28" transform="translate(0 0)"/><path class="cls-39" d="M59.08,182l-9.48-4.91a3.19,3.19,0,0,1,.42-.26l9.48,4.91a2.65,2.65,0,0,0-.42.26" transform="translate(0 0)"/><path class="cls-40" d="M59.5,181.74,50,176.83a3,3,0,0,1,.74-.26l9.48,4.91a2.62,2.62,0,0,0-.74.26" transform="translate(0 0)"/><path class="cls-41" d="M60.24,181.48l-9.48-4.91.3,0a2.09,2.09,0,0,1,.5,0L61,181.44a2.09,2.09,0,0,0-.5,0,1.54,1.54,0,0,0-.3,0" transform="translate(0 0)"/><path class="cls-40" d="M61,181.44l-9.48-4.91a2.62,2.62,0,0,1,.73.19l9.48,4.91a2.62,2.62,0,0,0-.73-.19" transform="translate(0 0)"/><path class="cls-39" d="M61.77,181.63l-9.48-4.91.15.07,9.48,4.91-.15-.07" transform="translate(0 0)"/></g></g></g><g class="cls-2"><g class="cls-104"><g class="cls-2"><path class="cls-48" d="M65.46,237.49,56,232.59c-2.94-1.53-5.7-3.12-8.25-4.73a108,108,0,0,1-22.62-18.78L34.59,214a107.5,107.5,0,0,0,22.62,18.77c2.55,1.61,5.31,3.21,8.25,4.73" transform="translate(0 0)"/></g></g></g><g class="cls-2"><g class="cls-105"><g class="cls-2"><path class="cls-41" d="M36.87,208.71l-9.48-4.91a2.9,2.9,0,0,1,.51,0l9.48,4.91a2.17,2.17,0,0,0-.51,0" transform="translate(0 0)"/><path class="cls-40" d="M37.38,208.71,27.9,203.8a2.55,2.55,0,0,1,.72.19l9.48,4.91a2.55,2.55,0,0,0-.72-.19" transform="translate(0 0)"/><path class="cls-39" d="M38.1,208.9,28.62,204l.15.07L38.25,209l-.15-.07" transform="translate(0 0)"/></g></g></g><path class="cls-95" d="M36.87,208.71a2.42,2.42,0,0,1,2.1.84l1.37,1.51c.95,1,2.35,2.41,4.17,4.09a112.56,112.56,0,0,0,16,12.21c13.77,8.71,33.38,16.79,56.89,14.73s51.06-14.18,81.22-46.69a3.12,3.12,0,0,1,2-1,2.46,2.46,0,0,1,2,.77,3.28,3.28,0,0,1-.22,4.34c-31,33.46-60.19,46.56-85.19,48.72s-45.64-6.41-60-15.46A107.5,107.5,0,0,1,34.59,214a3.32,3.32,0,0,1,.37-4.36A3.1,3.1,0,0,1,36.87,208.71Z" transform="translate(0 0)"/><g class="cls-2"><g class="cls-106"><g class="cls-2"><path class="cls-48" d="M34.59,214l-9.48-4.91a3.14,3.14,0,0,1-.37-3.24l9.48,4.9a3.15,3.15,0,0,0,.37,3.25" transform="translate(0 0)"/><path class="cls-47" d="M34.22,210.74l-9.48-4.9a2.82,2.82,0,0,1,.25-.49l9.48,4.9a3.78,3.78,0,0,0-.25.49" transform="translate(0 0)"/><path class="cls-46" d="M34.47,210.25,25,205.35a3.28,3.28,0,0,1,.27-.38l9.48,4.9a4.44,4.44,0,0,0-.27.38" transform="translate(0 0)"/><path class="cls-45" d="M34.74,209.87,25.26,205a2.62,2.62,0,0,1,.22-.25l.06-.05,9.48,4.9-.06.06-.22.24" transform="translate(0 0)"/><path class="cls-44" d="M35,209.57l-9.48-4.9a2.28,2.28,0,0,1,.34-.29l9.48,4.9c-.12.09-.23.19-.34.29" transform="translate(0 0)"/><path class="cls-39" d="M35.36,209.28l-9.48-4.9a2.89,2.89,0,0,1,.44-.27L35.8,209a2.82,2.82,0,0,0-.44.26" transform="translate(0 0)"/><path class="cls-40" d="M35.8,209l-9.48-4.91a3.14,3.14,0,0,1,.76-.27l9.48,4.91a2.77,2.77,0,0,0-.76.27" transform="translate(0 0)"/><path class="cls-41" d="M36.56,208.75l-9.48-4.91.31,0,9.48,4.91-.31,0" transform="translate(0 0)"/></g></g></g><g class="cls-2"><g class="cls-107"><g class="cls-2"><path class="cls-48" d="M49.84,274.52l-9.47-4.9c-3.82-2-7.4-4.06-10.71-6.15C11.23,251.84.78,239.54.65,239.41l9.48,4.91c.13.12,10.58,12.42,29,24.05,3.31,2.1,6.89,4.18,10.7,6.15" transform="translate(0 0)"/></g></g></g><g class="cls-2"><g class="cls-108"><g class="cls-2"><path class="cls-41" d="M12.41,239l-9.48-4.91h.51L12.92,239a2.9,2.9,0,0,0-.51,0" transform="translate(0 0)"/><path class="cls-40" d="M12.92,239l-9.48-4.91a2.55,2.55,0,0,1,.72.19l9.48,4.91a2.55,2.55,0,0,0-.72-.19" transform="translate(0 0)"/><path class="cls-39" d="M13.64,239.23l-9.48-4.91.15.07,9.48,4.91-.15-.07" transform="translate(0 0)"/></g></g></g><path class="cls-95" d="M12.41,239a2.43,2.43,0,0,1,2.11.85l.44.51c.3.33.75.81,1.35,1.48,1.22,1.27,3,3.09,5.41,5.3A147.45,147.45,0,0,0,42.4,263c17.84,11.26,43.31,21.78,73.84,19.11s66.3-18.44,105.36-60.53a3.12,3.12,0,0,1,2-1,2.42,2.42,0,0,1,2,.76,3.25,3.25,0,0,1-.21,4.34c-39.87,43.05-77.29,59.79-109.33,62.57S57.56,280,39.14,268.37s-28.88-23.93-29-24.05A3.32,3.32,0,0,1,10.5,240,3.12,3.12,0,0,1,12.41,239Z" transform="translate(0 0)"/><g class="cls-2"><g class="cls-109"><g class="cls-2"><path class="cls-48" d="M10.13,244.32.65,239.41a3.18,3.18,0,0,1-.37-3.25l9.48,4.91a3.18,3.18,0,0,0,.37,3.25" transform="translate(0 0)"/><path class="cls-47" d="M9.76,241.07.28,236.16a2.73,2.73,0,0,1,.25-.48L10,240.59a3.58,3.58,0,0,0-.24.48" transform="translate(0 0)"/><path class="cls-46" d="M10,240.59.53,235.68a2.26,2.26,0,0,1,.26-.37l9.47,4.91c-.09.12-.18.24-.26.37" transform="translate(0 0)"/><path class="cls-45" d="M10.26,240.22.79,235.31c.07-.09.15-.17.23-.26l.06-.05,9.48,4.91-.06.05-.24.26" transform="translate(0 0)"/><path class="cls-44" d="M10.56,239.91,1.08,235a2.34,2.34,0,0,1,.35-.29l9.47,4.91a2.28,2.28,0,0,0-.34.29" transform="translate(0 0)"/><path class="cls-39" d="M10.9,239.62l-9.47-4.91a3.87,3.87,0,0,1,.43-.27l9.48,4.91a2.27,2.27,0,0,0-.44.27" transform="translate(0 0)"/><path class="cls-40" d="M11.34,239.35l-9.48-4.91a3.11,3.11,0,0,1,.76-.26l9.48,4.9a3.14,3.14,0,0,0-.76.27" transform="translate(0 0)"/><path class="cls-41" d="M12.1,239.08l-9.48-4.9a1.67,1.67,0,0,1,.31-.05L12.41,239l-.31,0" transform="translate(0 0)"/></g></g></g></g><g class="cls-2"><g class="cls-2"><g class="cls-110"><g class="cls-2"><path class="cls-41" d="M154.61,149.88,145.13,145h.5l9.48,4.91a2.78,2.78,0,0,0-.5,0" transform="translate(0 0)"/><path class="cls-40" d="M155.11,149.88,145.63,145a2.33,2.33,0,0,1,.73.2l9.48,4.9a2.62,2.62,0,0,0-.73-.19" transform="translate(0 0)"/><path class="cls-39" d="M155.84,150.07l-9.48-4.9.15.07,9.48,4.91-.15-.08" transform="translate(0 0)"/></g></g></g><g class="cls-2"><g class="cls-111"><g class="cls-2"><path class="cls-39" d="M99.43,165.92,90,161c.81.42,1.66.83,2.54,1.21l9.48,4.91c-.88-.38-1.73-.79-2.54-1.21" transform="translate(0 0)"/><path class="cls-40" d="M102,167.13l-9.48-4.91a37,37,0,0,0,10.84,2.9l9.48,4.91a37,37,0,0,1-10.84-2.9" transform="translate(0 0)"/><path class="cls-41" d="M112.81,170l-9.48-4.91a34.19,34.19,0,0,0,6.57.06,33.56,33.56,0,0,0,3.84-.56l9.48,4.91a35.74,35.74,0,0,1-3.85.56,34.1,34.1,0,0,1-6.56-.06" transform="translate(0 0)"/><path class="cls-40" d="M123.22,169.53l-9.48-4.91a40.67,40.67,0,0,0,10.49-3.69l9.48,4.91a40.67,40.67,0,0,1-10.49,3.69" transform="translate(0 0)"/><path class="cls-39" d="M133.71,165.84l-9.48-4.91a54.14,54.14,0,0,0,7.38-4.55l9.48,4.91a54.14,54.14,0,0,1-7.38,4.55" transform="translate(0 0)"/><path class="cls-44" d="M141.09,161.29l-9.48-4.91a74.12,74.12,0,0,0,7.55-6.33l9.48,4.9a74.07,74.07,0,0,1-7.55,6.34" transform="translate(0 0)"/><path class="cls-45" d="M148.64,155l-9.48-4.9c1.32-1.27,2.66-2.62,4-4.08l.15-.16,9.48,4.91-.15.16c-1.36,1.46-2.7,2.81-4,4.07" transform="translate(0 0)"/><path class="cls-44" d="M152.81,150.72l-9.48-4.91a4.19,4.19,0,0,1,.34-.28l9.48,4.91a3,3,0,0,0-.34.28" transform="translate(0 0)"/><path class="cls-39" d="M153.15,150.44l-9.48-4.91a2.73,2.73,0,0,1,.43-.26l9.47,4.91a3.19,3.19,0,0,0-.42.26" transform="translate(0 0)"/><path class="cls-40" d="M153.57,150.18l-9.47-4.91a2.77,2.77,0,0,1,.73-.26l9.48,4.91a3,3,0,0,0-.74.26" transform="translate(0 0)"/><path class="cls-41" d="M154.31,149.92,144.83,145l.3,0,9.48,4.91-.3,0" transform="translate(0 0)"/></g></g></g><g class="cls-2"><g class="cls-112"><g class="cls-2"><path class="cls-48" d="M96.53,171.53l-9.48-4.91c-1.29-.67-2.5-1.37-3.61-2.07a46.63,46.63,0,0,1-9.89-8.25L83,161.21a46.86,46.86,0,0,0,9.9,8.25c1.11.7,2.32,1.4,3.61,2.07" transform="translate(0 0)"/></g></g></g><g class="cls-2"><g class="cls-113"><g class="cls-2"><path class="cls-48" d="M83,161.21l-9.47-4.91a3.08,3.08,0,0,1-.39-3.22L82.64,158a3.1,3.1,0,0,0,.38,3.22" transform="translate(0 0)"/><path class="cls-47" d="M82.64,158l-9.48-4.91a3.4,3.4,0,0,1,.26-.5l9.48,4.91a3.4,3.4,0,0,0-.26.5" transform="translate(0 0)"/><path class="cls-46" d="M82.9,157.49l-9.48-4.91a3.28,3.28,0,0,1,.27-.38l9.48,4.9a4.56,4.56,0,0,0-.27.39" transform="translate(0 0)"/><path class="cls-45" d="M83.17,157.1l-9.48-4.9c.07-.09.15-.17.22-.25l.06-.06,9.48,4.91-.06.06-.22.24" transform="translate(0 0)"/><path class="cls-44" d="M83.45,156.8,74,151.89a3.07,3.07,0,0,1,.35-.28l9.47,4.9a4.38,4.38,0,0,0-.34.29" transform="translate(0 0)"/><path class="cls-39" d="M83.79,156.51l-9.47-4.9a3.74,3.74,0,0,1,.42-.27l9.48,4.91a4.92,4.92,0,0,0-.43.26" transform="translate(0 0)"/><path class="cls-40" d="M84.22,156.25l-9.48-4.91a3.33,3.33,0,0,1,.75-.26L85,156a2.9,2.9,0,0,0-.75.26" transform="translate(0 0)"/><path class="cls-41" d="M85,156l-9.48-4.91.3,0a2.77,2.77,0,0,1,.5,0l9.48,4.9a2.78,2.78,0,0,0-.5,0l-.3,0" transform="translate(0 0)"/><path class="cls-40" d="M85.77,156l-9.48-4.9a2.31,2.31,0,0,1,.74.19l9.48,4.91a2.32,2.32,0,0,0-.74-.2" transform="translate(0 0)"/><path class="cls-39" d="M86.51,156.15,77,151.24l.15.07,9.48,4.91-.15-.07" transform="translate(0 0)"/></g></g></g><path class="cls-95" d="M154.61,149.88a2.48,2.48,0,0,1,2.07.79,3.26,3.26,0,0,1-.24,4.34c-13.33,14.4-26.12,20.23-37.13,21.2a42.23,42.23,0,0,1-26.39-6.75,46.86,46.86,0,0,1-9.9-8.25,3.29,3.29,0,0,1,.37-4.35,3.06,3.06,0,0,1,1.88-.91,2.52,2.52,0,0,1,2.14.86l.52.56c.37.41.95,1,1.7,1.67a47,47,0,0,0,6.55,5,37.29,37.29,0,0,0,23.19,6c9.52-.86,20.71-5.69,33.29-19.21A3,3,0,0,1,154.61,149.88Z" transform="translate(0 0)"/></g><g class="cls-2"><g class="cls-2"><g class="cls-114"><g class="cls-2"><path class="cls-41" d="M134.05,132.6l-9.48-4.91h.49l9.48,4.91a2.67,2.67,0,0,0-.49,0" transform="translate(0 0)"/><path class="cls-40" d="M134.54,132.6l-9.48-4.91a2.55,2.55,0,0,1,.72.19l9.48,4.91a2.55,2.55,0,0,0-.72-.19" transform="translate(0 0)"/><path class="cls-39" d="M135.26,132.79l-9.48-4.91.15.07,9.48,4.91-.15-.07" transform="translate(0 0)"/></g></g></g><g class="cls-2"><g class="cls-115"><g class="cls-2"><path class="cls-39" d="M113.25,139.08l-9.48-4.91c.28.15.58.29.88.42l9.48,4.91-.88-.42" transform="translate(0 0)"/><path class="cls-40" d="M114.13,139.5l-9.48-4.91a12.87,12.87,0,0,0,3.8,1l9.48,4.91a12.87,12.87,0,0,1-3.8-1" transform="translate(0 0)"/><path class="cls-41" d="M117.93,140.51l-9.48-4.91a11.54,11.54,0,0,0,2.28,0,13.48,13.48,0,0,0,1.34-.19l9.48,4.9a11,11,0,0,1-1.35.2,11.44,11.44,0,0,1-2.27,0" transform="translate(0 0)"/><path class="cls-40" d="M121.55,140.33l-9.48-4.9a14.58,14.58,0,0,0,3.67-1.29l9.48,4.9a14.2,14.2,0,0,1-3.67,1.29" transform="translate(0 0)"/><path class="cls-39" d="M125.22,139l-9.48-4.9a20.61,20.61,0,0,0,2.6-1.6l9.48,4.9a18.52,18.52,0,0,1-2.6,1.6" transform="translate(0 0)"/><path class="cls-44" d="M127.82,137.44l-9.48-4.9a27.83,27.83,0,0,0,2.74-2.31l9.48,4.91a27.65,27.65,0,0,1-2.74,2.3" transform="translate(0 0)"/><path class="cls-45" d="M130.56,135.14l-9.48-4.91c.49-.47,1-1,1.51-1.54l.14-.14,9.48,4.91-.14.14c-.51.56-1,1.07-1.51,1.54" transform="translate(0 0)"/><path class="cls-44" d="M132.21,133.46l-9.48-4.91.35-.29,9.48,4.91-.35.29" transform="translate(0 0)"/><path class="cls-39" d="M132.56,133.17l-9.48-4.91a2.82,2.82,0,0,1,.44-.26l9.48,4.9a4,4,0,0,0-.44.27" transform="translate(0 0)"/><path class="cls-40" d="M133,132.9l-9.48-4.9a2.93,2.93,0,0,1,.75-.27l9.48,4.91a2.9,2.9,0,0,0-.75.26" transform="translate(0 0)"/><path class="cls-41" d="M133.75,132.64l-9.48-4.91.3,0,9.48,4.91-.3,0" transform="translate(0 0)"/></g></g></g><g class="cls-2"><g class="cls-116"><g class="cls-2"><path class="cls-48" d="M110.34,144.68l-9.48-4.91c-.55-.28-1.07-.59-1.55-.89a19.69,19.69,0,0,1-4.23-3.54l9.48,4.91a19.69,19.69,0,0,0,4.23,3.54c.48.3,1,.6,1.55.89" transform="translate(0 0)"/></g></g></g><g class="cls-2"><g class="cls-117"><g class="cls-2"><path class="cls-48" d="M104.56,140.25l-9.48-4.91a3.15,3.15,0,0,1-.38-3.22l9.48,4.91a3.12,3.12,0,0,0,.38,3.22" transform="translate(0 0)"/><path class="cls-47" d="M104.18,137l-9.48-4.91a3.67,3.67,0,0,1,.25-.48l9.48,4.91a3.67,3.67,0,0,0-.25.48" transform="translate(0 0)"/><path class="cls-46" d="M104.43,136.55,95,131.64a3,3,0,0,1,.26-.36l9.48,4.9a2.78,2.78,0,0,0-.26.37" transform="translate(0 0)"/><path class="cls-45" d="M104.69,136.18l-9.48-4.9a2.91,2.91,0,0,1,.24-.27l.08-.08,9.48,4.91-.09.08c-.08.09-.16.17-.23.26" transform="translate(0 0)"/><path class="cls-44" d="M105,135.84l-9.48-4.91a3,3,0,0,1,.34-.28l9.48,4.9a3.07,3.07,0,0,0-.34.29" transform="translate(0 0)"/><path class="cls-39" d="M105.35,135.55l-9.48-4.9a3.87,3.87,0,0,1,.43-.27l9.48,4.91a3.78,3.78,0,0,0-.43.26" transform="translate(0 0)"/><path class="cls-40" d="M105.78,135.29l-9.48-4.91a3.43,3.43,0,0,1,.74-.26l9.48,4.91a3,3,0,0,0-.74.26" transform="translate(0 0)"/><path class="cls-41" d="M106.52,135,97,130.12l.31,0a4.17,4.17,0,0,1,.5,0l9.48,4.91a2.78,2.78,0,0,0-.5,0l-.31,0" transform="translate(0 0)"/><path class="cls-40" d="M107.33,135l-9.48-4.91a2.62,2.62,0,0,1,.73.19l9.47,4.91a2.55,2.55,0,0,0-.72-.19" transform="translate(0 0)"/><path class="cls-39" d="M108.05,135.18l-9.47-4.91.14.07,9.48,4.91-.15-.07" transform="translate(0 0)"/></g></g></g><path class="cls-95" d="M134.05,132.6a2.41,2.41,0,0,1,2,.79,3.27,3.27,0,0,1-.21,4.34c-5.46,5.92-11,8.5-15.74,8.92h-.09a18,18,0,0,1-11.26-2.87,19.69,19.69,0,0,1-4.23-3.54,3.29,3.29,0,0,1,.36-4.33,3.11,3.11,0,0,1,1.91-.93,2.43,2.43,0,0,1,2.1.84l.16.17c.13.13.33.33.6.58a14.85,14.85,0,0,0,2.36,1.8,13,13,0,0,0,8.15,2.15c3.29-.31,7.19-1.89,11.87-6.93A3.13,3.13,0,0,1,134.05,132.6Z" transform="translate(0 0)"/></g><g class="cls-2"><g class="cls-2"><g class="cls-118"><g class="cls-2"><path class="cls-17" d="M123.17,316.9l-9.48-4.9a40.07,40.07,0,0,0,4.24-.61l9.48,4.91a37.62,37.62,0,0,1-4.24.6" transform="translate(0 0)"/><path class="cls-18" d="M127.41,316.3l-9.48-4.91a42.34,42.34,0,0,0,11-3.81l9.48,4.91a42.71,42.71,0,0,1-11,3.81" transform="translate(0 0)"/><path class="cls-21" d="M138.39,312.49l-9.48-4.91a47.46,47.46,0,0,0,6.51-4l9.48,4.91a47.46,47.46,0,0,1-6.51,4" transform="translate(0 0)"/><path class="cls-22" d="M144.9,308.51l-9.48-4.91a50.78,50.78,0,0,0,5.33-4.44l9.48,4.91a52,52,0,0,1-5.33,4.44" transform="translate(0 0)"/><path class="cls-119" d="M150.23,304.07l-9.48-4.91a57.35,57.35,0,0,0,4.72-5.11L155,299a57.35,57.35,0,0,1-4.72,5.11" transform="translate(0 0)"/><path class="cls-120" d="M155,299l-9.48-4.91a58.79,58.79,0,0,0,4.37-6.15l9.48,4.91A60.31,60.31,0,0,1,155,299" transform="translate(0 0)"/><path class="cls-121" d="M159.32,292.81l-9.48-4.91a58.27,58.27,0,0,0,4.19-8.13l9.48,4.91a59.37,59.37,0,0,1-4.19,8.13" transform="translate(0 0)"/><path class="cls-122" d="M163.51,284.68,154,279.77a59.46,59.46,0,0,0,4.7-21.6c.65-25.56-27.35-66.49-39-72.54l9.48,4.91c11.69,6.05,39.69,47,39,72.54a59.24,59.24,0,0,1-4.69,21.6" transform="translate(0 0)"/></g></g></g><g class="cls-2"><g class="cls-123"><g class="cls-2"><path class="cls-124" d="M153.41,289.48l-9.47-4.91a48.49,48.49,0,0,0,3.35-6.49l9.48,4.91a47.4,47.4,0,0,1-3.36,6.49" transform="translate(0 0)"/><path class="cls-125" d="M156.77,283l-9.48-4.91c.19-.45.37-.91.55-1.37l9.48,4.91c-.18.46-.36.92-.55,1.37" transform="translate(0 0)"/></g></g></g><g class="cls-2"><g class="cls-126"><g class="cls-2"><path class="cls-125" d="M157.32,281.62l-9.48-4.91a1.45,1.45,0,0,0-.56-1.85l9.48,4.91a1.45,1.45,0,0,1,.56,1.85" transform="translate(0 0)"/></g></g></g><g class="cls-2"><g class="cls-127"><g class="cls-2"><path class="cls-16" d="M156.05,279.63l-9.47-4.91h.25l9.47,4.9h-.25" transform="translate(0 0)"/><path class="cls-17" d="M156.3,279.63l-9.47-4.9a1,1,0,0,1,.29.07l.09,0,9.48,4.91-.09,0-.3-.07" transform="translate(0 0)"/><path class="cls-18" d="M156.69,279.74l-9.48-4.91.07,0,9.48,4.91-.07,0" transform="translate(0 0)"/></g></g></g><g class="cls-2"><g class="cls-128"><g class="cls-2"><path class="cls-129" d="M159.45,271.82l-9.48-4.9.07,0,9.48,4.91-.07,0" transform="translate(0 0)"/><path class="cls-130" d="M159.52,271.86,150,267a1.36,1.36,0,0,0,.36.1l9.48,4.9a1.06,1.06,0,0,1-.36-.09" transform="translate(0 0)"/><path class="cls-131" d="M159.88,272l-9.48-4.9h.24l9.48,4.9h-.24" transform="translate(0 0)"/></g></g></g><g class="cls-2"><g class="cls-132"><g class="cls-2"><path class="cls-25" d="M154.71,280.7l-9.48-4.91v0l9.48,4.9v0" transform="translate(0 0)"/><path class="cls-24" d="M154.72,280.67l-9.48-4.9a2.1,2.1,0,0,1,.13-.26l9.48,4.91c0,.08-.09.17-.13.25" transform="translate(0 0)"/><path class="cls-23" d="M154.85,280.42l-9.48-4.91a1.33,1.33,0,0,1,.14-.19l9.48,4.91a1.33,1.33,0,0,0-.14.19" transform="translate(0 0)"/><path class="cls-22" d="M155,280.23l-9.48-4.91.15-.16,9.48,4.9c0,.06-.11.11-.15.17" transform="translate(0 0)"/><path class="cls-21" d="M155.14,280.06l-9.48-4.9a1.14,1.14,0,0,1,.17-.15l9.48,4.91-.17.14" transform="translate(0 0)"/><path class="cls-18" d="M155.31,279.92,145.83,275a1.27,1.27,0,0,1,.22-.13l9.48,4.9-.22.14" transform="translate(0 0)"/><path class="cls-17" d="M155.53,279.78l-9.48-4.9a1.32,1.32,0,0,1,.38-.13l9.48,4.9a1.71,1.71,0,0,0-.38.13" transform="translate(0 0)"/><path class="cls-16" d="M155.91,279.65l-9.48-4.9.15,0,9.47,4.91-.14,0" transform="translate(0 0)"/></g></g></g><g class="cls-2"><g class="cls-133"><g class="cls-2"><path class="cls-131" d="M160.12,272l-9.48-4.9.14,0,9.48,4.9-.14,0" transform="translate(0 0)"/><path class="cls-130" d="M160.26,271.93l-9.48-4.9a1.71,1.71,0,0,0,.38-.13l9.48,4.9a1.32,1.32,0,0,1-.38.13" transform="translate(0 0)"/><path class="cls-129" d="M160.64,271.8l-9.48-4.9a1.64,1.64,0,0,0,.22-.14l9.48,4.91a1,1,0,0,1-.22.13" transform="translate(0 0)"/><path class="cls-134" d="M160.86,271.67l-9.48-4.91.18-.15,9.48,4.91-.18.15" transform="translate(0 0)"/><path class="cls-135" d="M161,271.52l-9.48-4.91a1.1,1.1,0,0,0,.15-.16l9.48,4.9-.15.17" transform="translate(0 0)"/><path class="cls-136" d="M161.19,271.35l-9.48-4.9a1.43,1.43,0,0,0,.14-.2l9.48,4.91a1.33,1.33,0,0,1-.14.19" transform="translate(0 0)"/><path class="cls-124" d="M161.33,271.16l-9.48-4.91A1.83,1.83,0,0,0,152,266l9.48,4.91c0,.08-.08.16-.13.24" transform="translate(0 0)"/><path class="cls-125" d="M161.46,270.92,152,266a1.66,1.66,0,0,0,.11-.38,34,34,0,0,0,.73-5.54c0-.66,0-1.38,0-2.25a1.35,1.35,0,0,0-.7-1.19l9.48,4.9a1.37,1.37,0,0,1,.7,1.19c0,.88,0,1.6,0,2.26a34,34,0,0,1-.73,5.54,2.38,2.38,0,0,1-.11.38" transform="translate(0 0)"/></g></g></g><g class="cls-2"><g class="cls-137"><g class="cls-2"><path class="cls-125" d="M161.46,270.92,152,266a1.66,1.66,0,0,0,.11-.38,34,34,0,0,0,.73-5.54c0-.66,0-1.38,0-2.25a1.35,1.35,0,0,0-.7-1.19l9.48,4.9a1.37,1.37,0,0,1,.7,1.19c0,.88,0,1.6,0,2.26a34,34,0,0,1-.73,5.54,2.38,2.38,0,0,1-.11.38" transform="translate(0 0)"/></g></g></g><g class="cls-2"><g class="cls-138"><g class="cls-2"><path class="cls-16" d="M160.92,261.43l-9.48-4.91h.24l9.48,4.91h-.24" transform="translate(0 0)"/><path class="cls-17" d="M161.16,261.43l-9.48-4.91a1.06,1.06,0,0,1,.35.09l9.48,4.91a1.06,1.06,0,0,0-.35-.09" transform="translate(0 0)"/><path class="cls-18" d="M161.51,261.52,152,256.61l.07,0,9.48,4.91-.07,0" transform="translate(0 0)"/></g></g></g><g class="cls-2"><g class="cls-139"><g class="cls-2"><path class="cls-16" d="M160.83,261.44l-9.48-4.91h.09l9.48,4.91h-.09" transform="translate(0 0)"/></g></g></g><g class="cls-2"><g class="cls-140"><g class="cls-2"><path class="cls-25" d="M159.45,271.82l-9.48-4.9a1.42,1.42,0,0,1-.69-1.54,29.19,29.19,0,0,0,.69-5c0-.58,0-1.24,0-2.09l9.48,4.91c0,.85,0,1.51,0,2.09a29.31,29.31,0,0,1-.69,5,1.41,1.41,0,0,0,.69,1.53" transform="translate(0 0)"/></g></g></g><g class="cls-2"><g class="cls-141"><g class="cls-2"><path class="cls-25" d="M159.43,263.16,150,258.25a2,2,0,0,1,.14-.72l9.48,4.91a1.92,1.92,0,0,0-.14.72" transform="translate(0 0)"/><path class="cls-24" d="M159.57,262.44l-9.48-4.91c0-.08.08-.16.13-.24l9.48,4.91a1.83,1.83,0,0,0-.13.24" transform="translate(0 0)"/><path class="cls-23" d="M159.7,262.2l-9.48-4.91c0-.07.09-.13.13-.19l9.48,4.91c0,.06-.09.12-.13.19" transform="translate(0 0)"/><path class="cls-22" d="M159.83,262l-9.48-4.91.15-.16,9.48,4.91-.15.16" transform="translate(0 0)"/><path class="cls-21" d="M160,261.85l-9.48-4.91.17-.14,9.48,4.91-.17.14" transform="translate(0 0)"/><path class="cls-18" d="M160.15,261.71l-9.48-4.91a1.05,1.05,0,0,1,.21-.12l9.48,4.9a1.07,1.07,0,0,0-.21.13" transform="translate(0 0)"/><path class="cls-17" d="M160.36,261.58l-9.48-4.9a1.16,1.16,0,0,1,.37-.13l9.48,4.91a1.15,1.15,0,0,0-.37.12" transform="translate(0 0)"/><path class="cls-16" d="M160.73,261.46l-9.48-4.91.1,0,9.48,4.91-.1,0" transform="translate(0 0)"/></g></g></g><g class="cls-2"><g class="cls-142"><g class="cls-2"><path class="cls-129" d="M136.64,305.25l-9.48-4.91a38.71,38.71,0,0,0,5.24-3.21l9.48,4.91a38.71,38.71,0,0,1-5.24,3.21" transform="translate(0 0)"/><path class="cls-134" d="M141.88,302l-9.48-4.91a41,41,0,0,0,4.26-3.56l9.48,4.91a41,41,0,0,1-4.26,3.56" transform="translate(0 0)"/><path class="cls-135" d="M146.14,298.48l-9.48-4.91a43.18,43.18,0,0,0,3.78-4.09l9.48,4.91a43.18,43.18,0,0,1-3.78,4.09" transform="translate(0 0)"/><path class="cls-136" d="M149.92,294.39l-9.48-4.91a47.88,47.88,0,0,0,3.5-4.91l9.47,4.91a46.3,46.3,0,0,1-3.49,4.91" transform="translate(0 0)"/></g></g></g><g class="cls-2"><g class="cls-143"><g class="cls-2"><path class="cls-130" d="M127.71,308.35l-9.48-4.9a34.94,34.94,0,0,0,8.93-3.11l9.48,4.91a34.91,34.91,0,0,1-8.93,3.1" transform="translate(0 0)"/><path class="cls-129" d="M136.64,305.25l-9.48-4.91a38.71,38.71,0,0,0,5.24-3.21l9.48,4.91a38.71,38.71,0,0,1-5.24,3.21" transform="translate(0 0)"/></g></g></g><g class="cls-2"><g class="cls-144"><g class="cls-2"><path class="cls-131" d="M125.94,308.65l-9.47-4.91h.09c.56-.08,1.12-.18,1.67-.28l9.48,4.9c-.55.11-1.11.21-1.67.29h-.1" transform="translate(0 0)"/><path class="cls-130" d="M127.71,308.35l-9.48-4.9a34.94,34.94,0,0,0,8.93-3.11l9.48,4.91a34.91,34.91,0,0,1-8.93,3.1" transform="translate(0 0)"/></g></g></g><g class="cls-2"><g class="cls-145"><g class="cls-2"><path class="cls-129" d="M125.26,308.52l-9.48-4.91.07,0,9.48,4.91-.07,0" transform="translate(0 0)"/><path class="cls-130" d="M125.33,308.56l-9.48-4.91a1.18,1.18,0,0,0,.37.09l9.47,4.91a1.12,1.12,0,0,1-.36-.09" transform="translate(0 0)"/><path class="cls-131" d="M125.69,308.65l-9.47-4.91h.25l9.47,4.91a1,1,0,0,1-.25,0" transform="translate(0 0)"/></g></g></g><g class="cls-2"><g class="cls-146"><g class="cls-2"><path class="cls-25" d="M125.26,308.52l-9.48-4.91a1.32,1.32,0,0,1-.69-1.18l9.48,4.91a1.33,1.33,0,0,0,.69,1.18" transform="translate(0 0)"/></g></g></g><g class="cls-2"><g class="cls-147"><g class="cls-2"><path class="cls-25" d="M124.57,307.34l-9.48-4.91a1.78,1.78,0,0,1,.14-.72l9.48,4.91a1.75,1.75,0,0,0-.14.72" transform="translate(0 0)"/><path class="cls-24" d="M124.71,306.62l-9.48-4.91c0-.08.08-.17.13-.25l9.48,4.91a2,2,0,0,0-.13.25" transform="translate(0 0)"/><path class="cls-23" d="M124.84,306.37l-9.48-4.91.14-.19,9.48,4.91a1.33,1.33,0,0,0-.14.19" transform="translate(0 0)"/><path class="cls-22" d="M125,306.18l-9.48-4.91a.75.75,0,0,1,.15-.16l9.48,4.91a.75.75,0,0,0-.15.16" transform="translate(0 0)"/><path class="cls-21" d="M125.13,306l-9.48-4.91.17-.15,9.48,4.91a.8.8,0,0,0-.17.15" transform="translate(0 0)"/><path class="cls-18" d="M125.3,305.87,115.82,301l.22-.13,9.48,4.91-.22.13" transform="translate(0 0)"/><path class="cls-17" d="M125.52,305.74,116,300.83a1.64,1.64,0,0,1,.39-.14l9.48,4.91a1.64,1.64,0,0,0-.39.14" transform="translate(0 0)"/><path class="cls-16" d="M125.91,305.6l-9.48-4.91h.06c.52-.07,1-.16,1.55-.26l9.48,4.9c-.52.11-1,.2-1.55.27h-.06" transform="translate(0 0)"/><path class="cls-17" d="M127.52,305.32l-9.48-4.9a32,32,0,0,0,8.16-2.84l9.48,4.91a32,32,0,0,1-8.16,2.83" transform="translate(0 0)"/><path class="cls-18" d="M135.68,302.49l-9.48-4.91a34.77,34.77,0,0,0,4.79-2.94l9.48,4.91a36.41,36.41,0,0,1-4.79,2.94" transform="translate(0 0)"/><path class="cls-21" d="M140.47,299.55,131,294.64a37.74,37.74,0,0,0,3.91-3.26l9.48,4.91a37.74,37.74,0,0,1-3.91,3.26" transform="translate(0 0)"/><path class="cls-22" d="M144.38,296.29l-9.48-4.91a41.42,41.42,0,0,0,3.48-3.76l9.48,4.9a40.26,40.26,0,0,1-3.48,3.77" transform="translate(0 0)"/><path class="cls-23" d="M147.86,292.52l-9.48-4.9a43.18,43.18,0,0,0,3.22-4.54l9.48,4.91a42,42,0,0,1-3.22,4.53" transform="translate(0 0)"/><path class="cls-24" d="M151.08,288l-9.48-4.91a44,44,0,0,0,3.12-6L154.2,282a44,44,0,0,1-3.12,6" transform="translate(0 0)"/><path class="cls-25" d="M154.2,282l-9.48-4.91q.27-.63.51-1.26l9.48,4.91c-.16.42-.34.84-.51,1.26" transform="translate(0 0)"/></g></g></g><g class="cls-2"><g class="cls-148"><g class="cls-2"><path class="cls-21" d="M103.08,313,93.6,308.1c.75.39,1.5.74,2.27,1.08l9.48,4.9c-.77-.33-1.53-.69-2.27-1.07" transform="translate(0 0)"/><path class="cls-18" d="M105.35,314.08l-9.48-4.9a36.07,36.07,0,0,0,10.56,2.76l9.48,4.91a35.69,35.69,0,0,1-10.56-2.77" transform="translate(0 0)"/><path class="cls-17" d="M115.91,316.85l-9.48-4.91a38.2,38.2,0,0,0,7.26.06l9.48,4.9a37.4,37.4,0,0,1-7.26,0" transform="translate(0 0)"/></g></g></g><g class="cls-2"><g class="cls-149"><g class="cls-2"><path class="cls-125" d="M103.08,313,93.6,308.1c-13.77-7.13-22.91-23-22.42-42.27.19-7.42,2.88-16.57,6.89-26l9.47,4.91c-4,9.44-6.69,18.59-6.88,26C80.17,290,89.31,305.88,103.08,313" transform="translate(0 0)"/></g></g></g><path class="cls-150" d="M126.41,189.79c9.1-.8,42.51,45.39,41.79,73.29-.7,27.56-20.91,51.71-45,53.82S80,298.3,80.66,270.74C81.37,242.84,117.31,190.58,126.41,189.79Zm30.91,91.83a1.41,1.41,0,0,0-.72-1.92,1.46,1.46,0,0,0-.55-.07,1.67,1.67,0,0,0-1.34,1.07c-5.06,13.05-16,23-28.74,24.89a1.77,1.77,0,0,0-1.41,1.75,1.27,1.27,0,0,0,1.38,1.31h.1c14-2.05,25.83-13,31.28-27m2.8-9.67a1.7,1.7,0,0,0,1.45-1.41,34,34,0,0,0,.73-5.54c0-.66,0-1.38,0-2.26a1.27,1.27,0,0,0-1.36-1.31h-.09a1.69,1.69,0,0,0-1.4,1.72c0,.85,0,1.51,0,2.09a29.31,29.31,0,0,1-.69,5,1.35,1.35,0,0,0,1.13,1.66h.23" transform="translate(0 0)"/><g class="cls-2"><g class="cls-151"><g class="cls-2"><path class="cls-125" d="M103.08,313,93.6,308.1c-13.77-7.13-22.91-23-22.42-42.27.19-7.42,2.88-16.57,6.89-26l9.47,4.91c-4,9.44-6.69,18.59-6.88,26C80.17,290,89.31,305.88,103.08,313" transform="translate(0 0)"/><path class="cls-124" d="M87.54,244.72l-9.47-4.91a191.85,191.85,0,0,1,13.24-25.27l9.48,4.91a192.48,192.48,0,0,0-13.25,25.27" transform="translate(0 0)"/><path class="cls-136" d="M100.79,219.45l-9.48-4.91a178.94,178.94,0,0,1,13-18.51l9.47,4.91a180.52,180.52,0,0,0-13,18.51" transform="translate(0 0)"/><path class="cls-135" d="M113.78,200.94,104.31,196a76.38,76.38,0,0,1,6.35-7l9.48,4.9a78.07,78.07,0,0,0-6.36,7" transform="translate(0 0)"/><path class="cls-134" d="M120.14,193.9l-9.48-4.9a29.7,29.7,0,0,1,3-2.54l9.48,4.91a30.85,30.85,0,0,0-3,2.53" transform="translate(0 0)"/><path class="cls-129" d="M123.1,191.37l-9.48-4.91a14,14,0,0,1,1.68-1.05l9.47,4.91a13.47,13.47,0,0,0-1.67,1.05" transform="translate(0 0)"/><path class="cls-130" d="M124.77,190.32l-9.47-4.91a5.22,5.22,0,0,1,1.46-.51l9.48,4.91a5,5,0,0,0-1.47.51" transform="translate(0 0)"/><path class="cls-131" d="M126.24,189.81l-9.48-4.91.17,0,9.48,4.91-.17,0" transform="translate(0 0)"/></g></g></g><path class="cls-152" d="M126.49,186.72c11.89-1,45.31,47.47,44.58,76.11-.74,29.25-22.27,54.89-48,57.14s-46-19.74-45.27-49C78.55,242.35,114.57,187.77,126.49,186.72ZM123.17,316.9c24.12-2.11,44.33-26.26,45-53.82.72-27.9-32.69-74.09-41.79-73.29s-45,53.05-45.75,81C80,298.3,99,319,123.17,316.9" transform="translate(0 0)"/><path class="cls-80" d="M160.92,261.43a1.27,1.27,0,0,1,1.36,1.31c0,.88,0,1.6,0,2.26a34,34,0,0,1-.73,5.54,1.73,1.73,0,0,1-1.45,1.42h-.23a1.35,1.35,0,0,1-1.13-1.66,29.31,29.31,0,0,0,.69-5c0-.58,0-1.24,0-2.09a1.69,1.69,0,0,1,1.4-1.72Z" transform="translate(0 0)"/><path class="cls-80" d="M156.05,279.63a1.46,1.46,0,0,1,.55.07,1.41,1.41,0,0,1,.72,1.92c-5.45,14.05-17.29,25-31.28,27h-.1a1.26,1.26,0,0,1-1.37-1.31,1.75,1.75,0,0,1,1.4-1.75c12.78-1.86,23.68-11.84,28.74-24.89A1.67,1.67,0,0,1,156.05,279.63Z" transform="translate(0 0)"/><g class="cls-2"><g class="cls-153"><g class="cls-2"><path class="cls-17" d="M126.49,186.72l-9.48-4.9a3.31,3.31,0,0,1,.45,0l9.48,4.91h-.45" transform="translate(0 0)"/><path class="cls-18" d="M126.94,186.71l-9.48-4.91a7.58,7.58,0,0,1,2.86.71l9.48,4.91a7.44,7.44,0,0,0-2.86-.71" transform="translate(0 0)"/><path class="cls-21" d="M129.8,187.42l-9.48-4.91c.26.12.53.24.8.39l9.48,4.9c-.28-.14-.54-.27-.8-.38" transform="translate(0 0)"/></g></g></g><g class="cls-2"><g class="cls-154"><g class="cls-2"><path class="cls-122" d="M101.65,315.81l-9.48-4.91c-14.64-7.58-24.35-24.43-23.83-44.82.2-7.89,3.07-17.74,7.38-27.89l9.48,4.9c-4.31,10.16-7.18,20-7.38,27.9-.52,20.38,9.19,37.24,23.83,44.82" transform="translate(0 0)"/><path class="cls-121" d="M85.2,243.09l-9.48-4.9a195.11,195.11,0,0,1,13.39-25.62l9.48,4.91A195.63,195.63,0,0,0,85.2,243.09" transform="translate(0 0)"/><path class="cls-120" d="M98.59,217.48l-9.48-4.91a172,172,0,0,1,12.52-17.81l9.48,4.91a170.52,170.52,0,0,0-12.52,17.81" transform="translate(0 0)"/><path class="cls-119" d="M111.11,199.67l-9.48-4.91a83.71,83.71,0,0,1,6.79-7.49l9.48,4.91a80.9,80.9,0,0,0-6.79,7.49" transform="translate(0 0)"/><path class="cls-22" d="M117.9,192.18l-9.48-4.91a37.85,37.85,0,0,1,3.69-3.15l9.48,4.91a36.5,36.5,0,0,0-3.69,3.15" transform="translate(0 0)"/><path class="cls-21" d="M121.59,189l-9.48-4.91a18.16,18.16,0,0,1,2.35-1.48l9.48,4.91a18.16,18.16,0,0,0-2.35,1.48" transform="translate(0 0)"/><path class="cls-18" d="M123.94,187.55l-9.48-4.91a7.76,7.76,0,0,1,2.26-.79l9.48,4.91a7.47,7.47,0,0,0-2.26.79" transform="translate(0 0)"/><path class="cls-17" d="M126.2,186.76l-9.48-4.91.29,0,9.48,4.9-.29,0" transform="translate(0 0)"/></g></g></g></g></g></g></svg>